{
.appVersion = "3151";
.formatVersion = 3;
axes = (
{
name = Weight;
tag = wght;
}
);
classes = (
{
automatic = 1;
code = "iMatra-deva iMatra-deva.0 iMatra-deva.05 iMatra-deva.10";
name = DevaIMatras;
},
{
automatic = 1;
code = "iMatra_reph-deva iMatra_reph-deva.0 iMatra_reph-deva.05 iMatra_reph-deva.10";
name = DevaIMatraRephs;
},
{
automatic = 1;
code = "iMatra_reph_anusvara-deva iMatra_reph_anusvara-deva.0 iMatra_reph_anusvara-deva.05 iMatra_reph_anusvara-deva.10";
name = DevaIMatraRephAnusvaras;
},
{
automatic = 1;
code = "ka-deva kha-deva ga-deva gha-deva nga-deva ca-deva cha-deva ja-deva jha-deva nya-deva tta-deva ttha-deva dda-deva ddha-deva nna-deva ta-deva tha-deva da-deva dha-deva na-deva nnna-deva pa-deva pha-deva ba-deva bha-deva ma-deva ya-deva ra-deva rra-deva la-deva lla-deva llla-deva va-deva sha-deva ssa-deva sa-deva ha-deva qa-deva khha-deva ghha-deva za-deva dddha-deva rha-deva fa-deva yya-deva zha-deva jjya-deva gga-deva jja-deva ddda-deva bba-deva la-deva.loclMAR sha-deva.loclMAR jha-deva.loclNEP zha-deva.loclNEP na-deva.post ya-deva.post ra-deva.post va-deva.post";
name = DevaFullforms;
},
{
automatic = 1;
code = "k-deva k_r-deva k_ss-deva kh-deva kh_r-deva g-deva g_r-deva gh-deva gh_r-deva ng-deva ng_k-deva c-deva ch-deva j-deva j_j-deva j_ny-deva jh-deva ny-deva tt-deva tth-deva tth_r-deva dd-deva dd_r-deva ddh-deva ddh_r-deva nn-deva t-deva t_t-deva t_r-deva th-deva d-deva dh-deva n-deva nnn-deva p-deva p_r-deva ph-deva b-deva bh-deva m-deva y-deva rr-deva l-deva ll-deva lll-deva v-deva sh-deva sh_r-deva ss-deva s-deva h-deva q-deva khh-deva ghh-deva z-deva f-deva l-deva.loclMAR sh-deva.loclMAR jh-deva.loclNEP";
name = DevaHalfforms;
},
{
automatic = 1;

glyphs = (
{
color = 6;
glyphname = A;
kernLeft = A;
kernRight = A;
lastChange = "2023-01-27 11:36:36 +0000";
layers = (
{
anchors = (
{
name = bottom;
pos = (345,0);
},
{
name = ogonek;
pos = (683,5);
},
{
name = top;
pos = (397,742);
}
);
background = {
anchors = (
{
name = ogonek;
pos = (683,5);
},
{
name = top;
pos = (397,742);
}
);
shapes = (
{
closed = 1;
nodes = (
(257,697,o),
(40,475,o),
(40,223,cs),
(40,74,o),
(122,-11,o),
(237,-11,cs),
(351,-11,o),
(434,96,o),
(487,328,c),
(492,328,l),
(492,115,ls),
(492,36,o),
(537,-4,o),
(591,-4,cs),
(640,-4,o),
(680,33,o),
(692,68,c),
(681,79,l),
(670,59,o),
(643,42,o),
(621,42,cs),
(591,42,o),
(573,69,o),
(573,109,cs),
(573,630,l),
(492,594,l),
(492,317,o),
(377,50,o),
(257,50,cs),
(181,50,o),
(125,125,o),
(125,249,cs),
(125,472,o),
(289,654,o),
(517,685,c),
(517,711,l)
);
}
);
};
hints = (
{
place = (40, 0);
place = (40, 0);
type = Stem;
},
{
place = (40, 0);
place = (40, 0);
type = Stem;
},
{
horizontal = 1;
place = (-13, 0);
place = (-13, 0);
type = Stem;
}
);
layerId = "E777F328-EA17-4AE7-9EBA-8002E537BA4F";
name = Light;
shapes = (
{
closed = 1;
nodes = (
(257,697,o),
(40,475,o),
(40,223,cs),
(40,74,o),
(122,-11,o),
(237,-11,cs),
(351,-11,o),
(434,96,o),
(487,328,c),
(492,328,l),
(492,115,ls),
(492,36,o),
(537,-4,o),
(591,-4,cs),
(640,-4,o),
(680,33,o),
(692,68,c),
(681,79,l),
(670,59,o),
(643,42,o),
(621,42,cs),
(591,42,o),
(573,69,o),
(573,109,cs),
(573,630,l),
(492,594,l),
(492,317,o),
(377,50,o),
(257,50,cs),
(181,50,o),
(125,125,o),
(125,249,cs),
(125,472,o),
(289,654,o),
(517,685,c),
(517,711,l)
);
}
);
width = 690;
},
{
anchors = (
{
name = bottom;
pos = (342,0);
},
{
name = ogonek;
pos = (665,5);
},
{
name = top;
pos = (392,742);
}
);
background = {
anchors = (
{
name = ogonek;
pos = (665,5);
},
{
name = top;
pos = (392,742);
}
);
shapes = (
{
closed = 1;
nodes = (
(260,711,o),
(19,489,o),
(19,223,cs),
(19,77,o),
(92,-9,o),
(217,-9,cs),
(325,-9,o),
(401,69,o),
(430,214,c),
(439,214,l),
(439,134,ls),
(439,37,o),
(478,-9,o),
(559,-9,cs),
(625,-9,o),
(668,13,o),
(707,66,c),
(680,92,l),
(662,71,o),
(643,60,o),
(625,60,cs),
(608,60,o),
(597,75,o),
(597,96,cs),
(597,637,l),
(439,592,l),
(439,317,o),
(363,59,o),
(280,59,cs),
(217,59,o),
(181,125,o),
(181,251,cs),
(181,458,o),
(347,644,o),
(558,671,c),
(558,719,l)
);
}
);
};
hints = (
{
origin = (0,2);
target = (0,2);
type = Stem;
},
{
horizontal = 1;
place = (24, 0);
place = (24, 0);
type = Stem;
},
{
horizontal = 1;
origin = (0,5);
target = (0,5);
type = Stem;
},
{
origin = (0,31);
target = (0,5);
type = Stem;
}
);
layerId = "39185045-6A8C-415A-8312-7B8F11386A4C";
name = Regular;
shapes = (
{
closed = 1;
nodes = (
(260,711,o),
(19,489,o),
(19,223,cs),
(19,77,o),
(92,-9,o),
(217,-9,cs),
(325,-9,o),
(401,69,o),
(430,214,c),
(439,214,l),
(439,134,ls),
(439,37,o),
(478,-9,o),
(559,-9,cs),
(625,-9,o),
(668,13,o),
(707,66,c),
(680,92,l),
(662,71,o),
(643,60,o),
(625,60,cs),
(608,60,o),
(597,75,o),
(597,96,cs),
(597,637,l),
(439,592,l),
(439,317,o),
(363,59,o),
(280,59,cs),
(217,59,o),
(181,125,o),
(181,251,cs),
(181,458,o),
(347,644,o),
(558,671,c),
(558,719,l)
);
}
);
width = 683;
}
);
metricLeft = "2-3.6";
unicode = 65;
},
{
color = 6;
glyphname = Aacute;
kernLeft = A;
kernRight = A;
lastChange = "2023-01-27 13:23:24 +0000";
layers = (
{
background = {
anchors = (
{
name = ogonek;
pos = (683,5);
},
{
name = top;
pos = (397,742);
}
);
hints = (
{
place = (40, 0);
place = (40, 0);
type = Stem;
},
{
place = (40, 0);
place = (40, 0);
type = Stem;
},
{
horizontal = 1;
place = (-13, 0);
place = (-13, 0);
type = Stem;
}
);
shapes = (
{
closed = 1;
nodes = (
(257,697,o),
(40,475,o),
(40,223,cs),
(40,74,o),
(122,-11,o),
(237,-11,cs),
(351,-11,o),
(434,96,o),
(487,328,c),
(492,328,l),
(492,115,ls),
(492,36,o),
(537,-4,o),
(591,-4,cs),
(640,-4,o),
(680,33,o),
(692,68,c),
(681,79,l),
(670,59,o),
(643,42,o),
(621,42,cs),
(591,42,o),
(573,69,o),
(573,109,cs),
(573,630,l),
(492,594,l),
(492,317,o),
(377,50,o),
(257,50,cs),
(181,50,o),
(125,125,o),
(125,249,cs),
(125,472,o),
(289,654,o),
(517,685,c),
(517,711,l)
);
},
{
closed = 1;
nodes = (
(324,780,l),
(311,796,l),
(426,935,l),
(485,869,l)
);
}
);
};
layerId = "E777F328-EA17-4AE7-9EBA-8002E537BA4F";
name = Light;
shapes = (
{
ref = A;
},
{
pos = (241,20);
ref = acutecomb.case;
}
);
width = 690;
},
{
background = {
anchors = (
{
name = ogonek;
pos = (665,5);
},
{
name = top;
pos = (392,742);
}
);
hints = (
{
place = (19, 0);
place = (19, 0);
type = Stem;
},
{
horizontal = 1;
place = (24, 0);
place = (24, 0);
type = Stem;
},
{
horizontal = 1;
place = (-9, 0);
place = (-9, 0);
type = Stem;
},
{
place = (181, 36);
place = (181, 36);
type = Stem;
},
{
origin = (0,2);
target = (0,2);
type = Stem;
},
{
horizontal = 1;
place = (24, 0);
place = (24, 0);
type = Stem;
},
{
horizontal = 1;
origin = (0,5);
target = (0,5);
type = Stem;
},
{
origin = (0,31);
target = (0,5);
type = Stem;
}
);
shapes = (
{
closed = 1;
nodes = (
(260,711,o),
(19,489,o),
(19,223,cs),
(19,77,o),
(92,-9,o),
(217,-9,cs),
(325,-9,o),
(401,69,o),
(430,214,c),
(439,214,l),
(439,134,ls),
(439,37,o),
(478,-9,o),
(559,-9,cs),
(625,-9,o),
(668,13,o),
(707,66,c),
(680,92,l),
(662,71,o),
(643,60,o),
(625,60,cs),
(608,60,o),
(597,75,o),
(597,96,cs),
(597,637,l),
(439,592,l),
(439,317,o),
(363,59,o),
(280,59,cs),
(217,59,o),
(181,125,o),
(181,251,cs),
(181,458,o),
(347,644,o),
(558,671,c),
(558,719,l)
);
},
{
closed = 1;
nodes = (
(303,724,l),
(281,764,l),
(434,909,l),
(505,796,l)
);
}
);
};
layerId = "39185045-6A8C-415A-8312-7B8F11386A4C";
name = Regular;
shapes = (
{
ref = A;
},
{
pos = (211,22);
ref = acutecomb.case;
}
);
width = 683;
}
);
unicode = 193;
},
{
color = 6;
glyphname = Abreve;
kernLeft = A;
kernRight = A;
lastChange = "2023-01-27 12:45:59 +0000";
layers = (
{
background = {
anchors = (
{
name = ogonek;
pos = (683,5);
},
{
name = top;
pos = (397,742);
}
);
hints = (
{
place = (40, 0);
place = (40, 0);
type = Stem;
},
{
place = (40, 0);
place = (40, 0);
type = Stem;
},
{
horizontal = 1;
place = (-13, 0);
place = (-13, 0);
type = Stem;
}
);
shapes = (
{
closed = 1;
nodes = (
(257,697,o),
(40,475,o),
(40,223,cs),
(40,74,o),
(122,-11,o),
(237,-11,cs),
(351,-11,o),
(434,96,o),
(487,328,c),
(492,328,l),
(492,115,ls),
(492,36,o),
(537,-4,o),
(591,-4,cs),
(640,-4,o),
(680,33,o),
(692,68,c),
(681,79,l),
(670,59,o),
(643,42,o),
(621,42,cs),
(591,42,o),
(573,69,o),
(573,109,cs),
(573,630,l),
(492,594,l),
(492,317,o),
(377,50,o),
(257,50,cs),
(181,50,o),
(125,125,o),
(125,249,cs),
(125,472,o),
(289,654,o),
(517,685,c),
(517,711,l)
);
},
{
closed = 1;
nodes = (
(345,946,l),
(335,932,o),
(331,913,o),
(331,897,cs),
(331,861,o),
(351,804,o),
(395,804,cs),
(422,804,o),
(441,825,o),
(441,852,cs),
(441,877,o),
(427,903,o),
(410,919,c),
(474,959,l),
(494,938,o),
(502,913,o),
(502,885,cs),
(502,818,o),
(452,775,o),
(385,775,cs),
(331,775,o),
(291,810,o),
(291,865,cs),
(291,897,o),
(308,937,o),
(331,957,c)
);
}
);
};
layerId = "E777F328-EA17-4AE7-9EBA-8002E537BA4F";
name = Light;
shapes = (
{
ref = A;
},
{
pos = (211,22);
ref = brevecomb.case;
}
);
width = 690;
},
{
background = {
anchors = (
{
name = ogonek;
pos = (665,5);
},
{
name = top;
pos = (392,742);
}
);
hints = (
{
place = (19, 0);
place = (19, 0);
type = Stem;
},
{
horizontal = 1;
place = (24, 0);
place = (24, 0);
type = Stem;
},
{
horizontal = 1;
place = (-9, 0);
place = (-9, 0);
type = Stem;
},
{
place = (181, 36);
place = (181, 36);
type = Stem;
},
{
origin = (0,2);
target = (0,2);
type = Stem;
},
{
horizontal = 1;
place = (24, 0);
place = (24, 0);
type = Stem;
},
{
horizontal = 1;
origin = (0,5);
target = (0,5);
type = Stem;
},
{
origin = (0,31);
target = (0,5);
type = Stem;
}
);
shapes = (
{
closed = 1;
nodes = (
(260,711,o),
(19,489,o),
(19,223,cs),
(19,77,o),
(92,-9,o),
(217,-9,cs),
(325,-9,o),
(401,69,o),
(430,214,c),
(439,214,l),
(439,134,ls),
(439,37,o),
(478,-9,o),
(559,-9,cs),
(625,-9,o),
(668,13,o),
(707,66,c),
(680,92,l),
(662,71,o),
(643,60,o),
(625,60,cs),
(608,60,o),
(597,75,o),
(597,96,cs),
(597,637,l),
(439,592,l),
(439,317,o),
(363,59,o),
(280,59,cs),
(217,59,o),
(181,125,o),
(181,251,cs),
(181,458,o),
(347,644,o),
(558,671,c),
(558,719,l)
);
},
{
closed = 1;
nodes = (
(338,902,l),
(333,889,o),
(328,875,o),
(328,849,cs),
(328,816,o),
(343,766,o),
(375,766,cs),
(394,766,o),
(408,784,o),
(408,809,cs),
(408,837,o),
(396,862,o),
(382,874,c),
(459,923,l),
(485,896,o),
(497,867,o),
(497,841,cs),
(497,774,o),
(441,729,o),
(368,729,cs),
(307,729,o),
(261,765,o),
(261,821,cs),
(261,862,o),
(278,894,o),
(313,920,c)
);
}
);
};
layerId = "39185045-6A8C-415A-8312-7B8F11386A4C";
name = Regular;
shapes = (
{
ref = A;
},
{
pos = (190,22);
ref = brevecomb.case;
}
);
width = 683;
}
);
unicode = 258;
},
{
color = 6;
glyphname = Acircumflex;
kernLeft = A;
kernRight = A;
lastChange = "2023-01-27 12:43:53 +0000";
layers = (
{
background = {
anchors = (
{
name = ogonek;
pos = (683,5);
},
{
name = top;
pos = (397,742);
}
);
hints = (
{
place = (40, 0);
place = (40, 0);
type = Stem;
},
{
place = (40, 0);
place = (40, 0);
type = Stem;
},
{
horizontal = 1;
place = (-13, 0);
place = (-13, 0);
type = Stem;
}
);
shapes = (
{
closed = 1;
nodes = (
(257,697,o),
(40,475,o),
(40,223,cs),
(40,74,o),
(122,-11,o),
(237,-11,cs),
(351,-11,o),
(434,96,o),
(487,328,c),
(492,328,l),
(492,115,ls),
(492,36,o),
(537,-4,o),
(591,-4,cs),
(640,-4,o),
(680,33,o),
(692,68,c),
(681,79,l),
(670,59,o),
(643,42,o),
(621,42,cs),
(591,42,o),
(573,69,o),
(573,109,cs),
(573,630,l),
(492,594,l),
(492,317,o),
(377,50,o),
(257,50,cs),
(181,50,o),
(125,125,o),
(125,249,cs),
(125,472,o),
(289,654,o),
(517,685,c),
(517,711,l)
);
},
{
closed = 1;
nodes = (
(265,811,l),
(291,791,l),
(370,880,l),
(480,776,l),
(530,829,l),
(395,957,l)
);
}
);
};
layerId = "E777F328-EA17-4AE7-9EBA-8002E537BA4F";
name = Light;
shapes = (
{
ref = A;
},
{
pos = (195,22);
ref = circumflexcomb.case;
}
);
width = 690;
},
{
background = {
anchors = (
{
name = ogonek;
pos = (665,5);
},
{
name = top;
pos = (392,742);
}
);
hints = (
{
place = (19, 0);
place = (19, 0);
type = Stem;
},
{
horizontal = 1;
place = (24, 0);
place = (24, 0);
type = Stem;
},
{
horizontal = 1;
place = (-9, 0);
place = (-9, 0);
type = Stem;
},
{
place = (181, 36);
place = (181, 36);
type = Stem;
},
{
origin = (0,2);
target = (0,2);
type = Stem;
},
{
horizontal = 1;
place = (24, 0);
place = (24, 0);
type = Stem;
},
{
horizontal = 1;
origin = (0,5);
target = (0,5);
type = Stem;
},
{
origin = (0,31);
target = (0,5);
type = Stem;
}
);
shapes = (
{
closed = 1;
nodes = (
(260,711,o),
(19,489,o),
(19,223,cs),
(19,77,o),
(92,-9,o),
(217,-9,cs),
(325,-9,o),
(401,69,o),
(430,214,c),
(439,214,l),
(439,134,ls),
(439,37,o),
(478,-9,o),
(559,-9,cs),
(625,-9,o),
(668,13,o),
(707,66,c),
(680,92,l),
(662,71,o),
(643,60,o),
(625,60,cs),
(608,60,o),
(597,75,o),
(597,96,cs),
(597,637,l),
(439,592,l),
(439,317,o),
(363,59,o),
(280,59,cs),
(217,59,o),
(181,125,o),
(181,251,cs),
(181,458,o),
(347,644,o),
(558,671,c),
(558,719,l)
);
},
{
closed = 1;
nodes = (
(237,754,l),
(276,724,l),
(338,802,l),
(455,720,l),
(515,801,l),
(362,909,l)
);
}
);
};
layerId = "39185045-6A8C-415A-8312-7B8F11386A4C";
name = Regular;
shapes = (
{
ref = A;
},
{
pos = (168,22);
ref = circumflexcomb.case;
}
);
width = 683;
}
);
unicode = 194;
},
{
color = 6;
glyphname = Adieresis;
kernLeft = A;
kernRight = A;
lastChange = "2023-01-27 11:42:07 +0000";
layers = (
{
background = {
anchors = (
{
name = ogonek;
pos = (683,5);
},
{
name = top;
pos = (397,742);
}
);
hints = (
{
place = (40, 0);
place = (40, 0);
type = Stem;
},
{
place = (40, 0);
place = (40, 0);
type = Stem;
},
{
horizontal = 1;
place = (-13, 0);
place = (-13, 0);
type = Stem;
}
);
shapes = (
{
closed = 1;
nodes = (
(257,697,o),
(40,475,o),
(40,223,cs),
(40,74,o),
(122,-11,o),
(237,-11,cs),
(351,-11,o),
(434,96,o),
(487,328,c),
(492,328,l),
(492,115,ls),
(492,36,o),
(537,-4,o),
(591,-4,cs),
(640,-4,o),
(680,33,o),
(692,68,c),
(681,79,l),
(670,59,o),
(643,42,o),
(621,42,cs),
(591,42,o),
(573,69,o),
(573,109,cs),
(573,630,l),
(492,594,l),
(492,317,o),
(377,50,o),
(257,50,cs),
(181,50,o),
(125,125,o),
(125,249,cs),
(125,472,o),
(289,654,o),
(517,685,c),
(517,711,l)
);
},
{
closed = 1;
nodes = (
(454,932,o),
(428,906,o),
(428,876,cs),
(428,844,o),
(454,820,o),
(484,820,cs),
(516,820,o),
(540,844,o),
(540,876,cs),
(540,906,o),
(516,932,o),
(484,932,cs)
);
},
{
closed = 1;
nodes = (
(279,932,o),
(254,906,o),
(254,876,cs),
(254,844,o),
(279,820,o),
(309,820,cs),
(340,820,o),
(366,844,o),
(366,876,cs),
(366,906,o),
(340,932,o),
(309,932,cs)
);
}
);
};
layerId = "E777F328-EA17-4AE7-9EBA-8002E537BA4F";
name = Light;
shapes = (
{
ref = A;
},
{
pos = (224,22);
ref = dieresiscomb.case;
}
);
width = 690;
},
{
background = {
anchors = (
{
name = ogonek;
pos = (665,5);
},
{
name = top;
pos = (392,742);
}
);
hints = (
{
place = (19, 0);
place = (19, 0);
type = Stem;
},
{
horizontal = 1;
place = (24, 0);
place = (24, 0);
type = Stem;
},
{
horizontal = 1;
place = (-9, 0);
place = (-9, 0);
type = Stem;
},
{
place = (181, 36);
place = (181, 36);
type = Stem;
},
{
origin = (0,2);
target = (0,2);
type = Stem;
},
{
horizontal = 1;
place = (24, 0);
place = (24, 0);
type = Stem;
},
{
horizontal = 1;
origin = (0,5);
target = (0,5);
type = Stem;
},
{
origin = (0,31);
target = (0,5);
type = Stem;
}
);
shapes = (
{
closed = 1;
nodes = (
(260,711,o),
(19,489,o),
(19,223,cs),
(19,77,o),
(92,-9,o),
(217,-9,cs),
(325,-9,o),
(401,69,o),
(430,214,c),
(439,214,l),
(439,134,ls),
(439,37,o),
(478,-9,o),
(559,-9,cs),
(625,-9,o),
(668,13,o),
(707,66,c),
(680,92,l),
(662,71,o),
(643,60,o),
(625,60,cs),
(608,60,o),
(597,75,o),
(597,96,cs),
(597,637,l),
(439,592,l),
(439,317,o),
(363,59,o),
(280,59,cs),
(217,59,o),
(181,125,o),
(181,251,cs),
(181,458,o),
(347,644,o),
(558,671,c),
(558,719,l)
);
},
{
closed = 1;
nodes = (
(426,902,o),
(394,868,o),
(394,830,cs),
(394,791,o),
(426,760,o),
(464,760,cs),
(504,760,o),
(536,791,o),
(536,830,cs),
(536,868,o),
(504,902,o),
(464,902,cs)
);
},
{
closed = 1;
nodes = (
(242,902,o),
(209,868,o),
(209,830,cs),
(209,791,o),
(242,760,o),
(281,760,cs),
(320,760,o),
(351,791,o),
(351,830,cs),
(351,868,o),
(320,902,o),
(281,902,cs)
);
}
);
};
layerId = "39185045-6A8C-415A-8312-7B8F11386A4C";
name = Regular;
shapes = (
{
ref = A;
},
{
pos = (179,22);
ref = dieresiscomb.case;
}
);
width = 683;
}
);
unicode = 196;
},
{
color = 6;
glyphname = Agrave;
kernLeft = A;
kernRight = A;
lastChange = "2023-01-27 11:44:59 +0000";
layers = (
{
background = {
anchors = (
{
name = ogonek;
pos = (683,5);
},
{
name = top;
pos = (397,742);
}
);
hints = (
{
place = (40, 0);
place = (40, 0);
type = Stem;
},
{
place = (40, 0);
place = (40, 0);
type = Stem;
},
{
horizontal = 1;
place = (-13, 0);
place = (-13, 0);
type = Stem;
}
);
shapes = (
{
closed = 1;
nodes = (
(257,697,o),
(40,475,o),
(40,223,cs),
(40,74,o),
(122,-11,o),
(237,-11,cs),
(351,-11,o),
(434,96,o),
(487,328,c),
(492,328,l),
(492,115,ls),
(492,36,o),
(537,-4,o),
(591,-4,cs),
(640,-4,o),
(680,33,o),
(692,68,c),
(681,79,l),
(670,59,o),
(643,42,o),
(621,42,cs),
(591,42,o),
(573,69,o),
(573,109,cs),
(573,630,l),
(492,594,l),
(492,317,o),
(377,50,o),
(257,50,cs),
(181,50,o),
(125,125,o),
(125,249,cs),
(125,472,o),
(289,654,o),
(517,685,c),
(517,711,l)
);
},
{
closed = 1;
nodes = (
(297,869,l),
(355,935,l),
(471,796,l),
(458,778,l)
);
}
);
};
layerId = "E777F328-EA17-4AE7-9EBA-8002E537BA4F";
name = Light;
shapes = (
{
ref = A;
},
{
pos = (227,22);
ref = gravecomb.case;
}
);
width = 690;
},
{
background = {
anchors = (
{
name = ogonek;
pos = (665,5);
},
{
name = top;
pos = (392,742);
}
);
hints = (
{
place = (19, 0);
place = (19, 0);
type = Stem;
},
{
horizontal = 1;
place = (24, 0);
place = (24, 0);
type = Stem;
},
{
horizontal = 1;
place = (-9, 0);
place = (-9, 0);
type = Stem;
},
{
place = (181, 36);
place = (181, 36);
type = Stem;
},
{
origin = (0,2);
target = (0,2);
type = Stem;
},
{
horizontal = 1;
place = (24, 0);
place = (24, 0);
type = Stem;
},
{
horizontal = 1;
origin = (0,5);
target = (0,5);
type = Stem;
},
{
origin = (0,31);
target = (0,5);
type = Stem;
}
);
shapes = (
{
closed = 1;
nodes = (
(260,711,o),
(19,489,o),
(19,223,cs),
(19,77,o),
(92,-9,o),
(217,-9,cs),
(325,-9,o),
(401,69,o),
(430,214,c),
(439,214,l),
(439,134,ls),
(439,37,o),
(478,-9,o),
(559,-9,cs),
(625,-9,o),
(668,13,o),
(707,66,c),
(680,92,l),
(662,71,o),
(643,60,o),
(625,60,cs),
(608,60,o),
(597,75,o),
(597,96,cs),
(597,637,l),
(439,592,l),
(439,317,o),
(363,59,o),
(280,59,cs),
(217,59,o),
(181,125,o),
(181,251,cs),
(181,458,o),
(347,644,o),
(558,671,c),
(558,719,l)
);
},
{
closed = 1;
nodes = (
(266,796,l),
(335,909,l),
(491,764,l),
(469,724,l)
);
}
);
};
layerId = "39185045-6A8C-415A-8312-7B8F11386A4C";
name = Regular;
shapes = (
{
ref = A;
},
{
pos = (186,22);
ref = gravecomb.case;
}
);
width = 683;
}
);
unicode = 192;
},
{
color = 6;
glyphname = Amacron;
kernLeft = A;
kernRight = A;
lastChange = "2023-01-27 13:15:20 +0000";
layers = (
{
background = {
anchors = (
{
name = ogonek;
pos = (683,5);
},
{
name = top;
pos = (397,742);
}
);
hints = (
{
place = (40, 0);
place = (40, 0);
type = Stem;
},
{
place = (40, 0);
place = (40, 0);
type = Stem;
},
{
horizontal = 1;
place = (-13, 0);
place = (-13, 0);
type = Stem;
}
);
shapes = (
{
closed = 1;
nodes = (
(257,697,o),
(40,475,o),
(40,223,cs),
(40,74,o),
(122,-11,o),
(237,-11,cs),
(351,-11,o),
(434,96,o),
(487,328,c),
(492,328,l),
(492,115,ls),
(492,36,o),
(537,-4,o),
(591,-4,cs),
(640,-4,o),
(680,33,o),
(692,68,c),
(681,79,l),
(670,59,o),
(643,42,o),
(621,42,cs),
(591,42,o),
(573,69,o),
(573,109,cs),
(573,630,l),
(492,594,l),
(492,317,o),
(377,50,o),
(257,50,cs),
(181,50,o),
(125,125,o),
(125,249,cs),
(125,472,o),
(289,654,o),
(517,685,c),
(517,711,l)
);
},
{
closed = 1;
nodes = (
(277,842,l),
(313,906,l),
(518,906,l),
(484,842,l)
);
}
);
};
layerId = "E777F328-EA17-4AE7-9EBA-8002E537BA4F";
name = Light;
shapes = (
{
ref = A;
},
{
pos = (277,247);
ref = macroncomb.case;
}
);
width = 690;
},
{
background = {
anchors = (
{
name = ogonek;
pos = (665,5);
},
{
name = top;
pos = (392,742);
}
);
hints = (
{
place = (19, 0);
place = (19, 0);
type = Stem;
},
{
horizontal = 1;
place = (24, 0);
place = (24, 0);
type = Stem;
},
{
horizontal = 1;
place = (-9, 0);
place = (-9, 0);
type = Stem;
},
{
place = (181, 36);
place = (181, 36);
type = Stem;
},
{
origin = (0,2);
target = (0,2);
type = Stem;
},
{
horizontal = 1;
place = (24, 0);
place = (24, 0);
type = Stem;
},
{
horizontal = 1;
origin = (0,5);
target = (0,5);
type = Stem;
},
{
origin = (0,31);
target = (0,5);
type = Stem;
}
);
shapes = (
{
closed = 1;
nodes = (
(260,711,o),
(19,489,o),
(19,223,cs),
(19,77,o),
(92,-9,o),
(217,-9,cs),
(325,-9,o),
(401,69,o),
(430,214,c),
(439,214,l),
(439,134,ls),
(439,37,o),
(478,-9,o),
(559,-9,cs),
(625,-9,o),
(668,13,o),
(707,66,c),
(680,92,l),
(662,71,o),
(643,60,o),
(625,60,cs),
(608,60,o),
(597,75,o),
(597,96,cs),
(597,637,l),
(439,592,l),
(439,317,o),
(363,59,o),
(280,59,cs),
(217,59,o),
(181,125,o),
(181,251,cs),
(181,458,o),
(347,644,o),
(558,671,c),
(558,719,l)
);
},
{
closed = 1;
nodes = (
(240,784,l),
(277,877,l),
(515,877,l),
(478,784,l)
);
}
);
};
layerId = "39185045-6A8C-415A-8312-7B8F11386A4C";
name = Regular;
shapes = (
{
ref = A;
},
{
pos = (235,247);
ref = macroncomb.case;
}
);
width = 683;
}
);
unicode = 256;
},
{
color = 6;
glyphname = Aogonek;
kernLeft = A;
kernRight = A;
lastChange = "2023-01-27 12:50:22 +0000";
layers = (
{
background = {
anchors = (
{
name = ogonek;
pos = (683,5);
},
{
name = top;
pos = (397,742);
}
);
hints = (
{
place = (40, 0);
place = (40, 0);
type = Stem;
},
{
place = (40, 0);
place = (40, 0);
type = Stem;
},
{
horizontal = 1;
place = (-13, 0);
place = (-13, 0);
type = Stem;
}
);
shapes = (
{
closed = 1;
nodes = (
(257,697,o),
(40,475,o),
(40,223,cs),
(40,74,o),
(122,-11,o),
(237,-11,cs),
(351,-11,o),
(434,96,o),
(487,328,c),
(492,328,l),
(492,115,ls),
(492,36,o),
(537,-4,o),
(591,-4,cs),
(640,-4,o),
(680,33,o),
(692,68,c),
(681,79,l),
(670,59,o),
(643,42,o),
(621,42,cs),
(591,42,o),
(573,69,o),
(573,109,cs),
(573,630,l),
(492,594,l),
(492,317,o),
(377,50,o),
(257,50,cs),
(181,50,o),
(125,125,o),
(125,249,cs),
(125,472,o),
(289,654,o),
(517,685,c),
(517,711,l)
);
},
{
closed = 1;
nodes = (
(563,-13,o),
(512,-60,o),
(512,-122,cs),
(512,-174,o),
(556,-197,o),
(591,-197,cs),
(629,-197,o),
(662,-166,o),
(683,-128,c),
(666,-114,l),
(650,-134,o),
(634,-140,o),
(618,-140,cs),
(586,-140,o),
(571,-120,o),
(571,-92,cs),
(571,-60,o),
(591,-23,o),
(620,2,c),
(607,15,l)
);
}
);
};
layerId = "E777F328-EA17-4AE7-9EBA-8002E537BA4F";
name = Light;
shapes = (
{
ref = A;
},
{
pos = (442,1);
ref = ogonekcomb.case;
}
);
width = 690;
},
{
background = {
anchors = (
{
name = ogonek;
pos = (665,5);
},
{
name = top;
pos = (392,742);
}
);
hints = (
{
place = (19, 0);
place = (19, 0);
type = Stem;
},
{
horizontal = 1;
place = (24, 0);
place = (24, 0);
type = Stem;
},
{
horizontal = 1;
place = (-9, 0);
place = (-9, 0);
type = Stem;
},
{
place = (181, 36);
place = (181, 36);
type = Stem;
},
{
origin = (0,2);
target = (0,2);
type = Stem;
},
{
horizontal = 1;
place = (24, 0);
place = (24, 0);
type = Stem;
},
{
horizontal = 1;
origin = (0,5);
target = (0,5);
type = Stem;
},
{
origin = (0,31);
target = (0,5);
type = Stem;
}
);
shapes = (
{
closed = 1;
nodes = (
(260,711,o),
(19,489,o),
(19,223,cs),
(19,77,o),
(92,-9,o),
(217,-9,cs),
(325,-9,o),
(401,69,o),
(430,214,c),
(439,214,l),
(439,134,ls),
(439,37,o),
(478,-9,o),
(559,-9,cs),
(625,-9,o),
(668,13,o),
(707,66,c),
(680,92,l),
(662,71,o),
(643,60,o),
(625,60,cs),
(608,60,o),
(597,75,o),
(597,96,cs),
(597,637,l),
(439,592,l),
(439,317,o),
(363,59,o),
(280,59,cs),
(217,59,o),
(181,125,o),
(181,251,cs),
(181,458,o),
(347,644,o),
(558,671,c),
(558,719,l)
);
},
{
closed = 1;
nodes = (
(513,-14,o),
(462,-60,o),
(462,-120,cs),
(462,-178,o),
(506,-197,o),
(542,-197,cs),
(584,-197,o),
(620,-168,o),
(645,-126,c),
(626,-110,l),
(609,-132,o),
(590,-137,o),
(576,-137,cs),
(548,-137,o),
(531,-122,o),
(531,-87,cs),
(531,-67,o),
(541,-37,o),
(572,1,c),
(559,14,l)
);
}
);
};
layerId = "39185045-6A8C-415A-8312-7B8F11386A4C";
name = Regular;
shapes = (
{
ref = A;
},
{
pos = (340,0);
ref = ogonekcomb.case;
}
);
width = 683;
}
);
unicode = 260;
},
{
color = 6;
glyphname = Aring;
kernLeft = A;
kernRight = A;
lastChange = "2023-01-27 12:48:01 +0000";
layers = (
{
background = {
anchors = (
{
name = ogonek;
pos = (683,5);
},
{
name = top;
pos = (397,742);
}
);
hints = (
{
place = (40, 0);
place = (40, 0);
type = Stem;
},
{
place = (40, 0);
place = (40, 0);
type = Stem;
},
{
horizontal = 1;
place = (-13, 0);
place = (-13, 0);
type = Stem;
}
);
shapes = (
{
closed = 1;
nodes = (
(257,697,o),
(40,475,o),
(40,223,cs),
(40,74,o),
(122,-11,o),
(237,-11,cs),
(351,-11,o),
(434,96,o),
(487,328,c),
(492,328,l),
(492,115,ls),
(492,36,o),
(537,-4,o),
(591,-4,cs),
(640,-4,o),
(680,33,o),
(692,68,c),
(681,79,l),
(670,59,o),
(643,42,o),
(621,42,cs),
(591,42,o),
(573,69,o),
(573,109,cs),
(573,630,l),
(492,594,l),
(492,317,o),
(377,50,o),
(257,50,cs),
(181,50,o),
(125,125,o),
(125,249,cs),
(125,472,o),
(289,654,o),
(517,685,c),
(517,711,l)
);
},
{
closed = 1;
nodes = (
(344,995,o),
(300,952,o),
(300,898,cs),
(300,846,o),
(344,801,o),
(396,801,cs),
(450,801,o),
(494,846,o),
(494,898,cs),
(494,952,o),
(450,995,o),
(396,995,cs)
);
},
{
closed = 1;
nodes = (
(406,963,o),
(443,923,o),
(443,874,cs),
(443,857,o),
(435,835,o),
(414,835,cs),
(386,835,o),
(350,877,o),
(350,924,cs),
(350,944,o),
(360,963,o),
(379,963,cs)
);
}
);
};
layerId = "E777F328-EA17-4AE7-9EBA-8002E537BA4F";
name = Light;
shapes = (
{
ref = A;
},
{
pos = (220,22);
ref = ringcomb.case;
}
);
width = 690;
},
{
background = {
anchors = (
{
name = ogonek;
pos = (665,5);
},
{
name = top;
pos = (392,742);
}
);
hints = (
{
place = (19, 0);
place = (19, 0);
type = Stem;
},
{
horizontal = 1;
place = (24, 0);
place = (24, 0);
type = Stem;
},
{
horizontal = 1;
place = (-9, 0);
place = (-9, 0);
type = Stem;
},
{
place = (181, 36);
place = (181, 36);
type = Stem;
},
{
origin = (0,2);
target = (0,2);
type = Stem;
},
{
horizontal = 1;
place = (24, 0);
place = (24, 0);
type = Stem;
},
{
horizontal = 1;
origin = (0,5);
target = (0,5);
type = Stem;
},
{
origin = (0,31);
target = (0,5);
type = Stem;
}
);
shapes = (
{
closed = 1;
nodes = (
(260,711,o),
(19,489,o),
(19,223,cs),
(19,77,o),
(92,-9,o),
(217,-9,cs),
(325,-9,o),
(401,69,o),
(430,214,c),
(439,214,l),
(439,134,ls),
(439,37,o),
(478,-9,o),
(559,-9,cs),
(625,-9,o),
(668,13,o),
(707,66,c),
(680,92,l),
(662,71,o),
(643,60,o),
(625,60,cs),
(608,60,o),
(597,75,o),
(597,96,cs),
(597,637,l),
(439,592,l),
(439,317,o),
(363,59,o),
(280,59,cs),
(217,59,o),
(181,125,o),
(181,251,cs),
(181,458,o),
(347,644,o),
(558,671,c),
(558,719,l)
);
},
{
closed = 1;
nodes = (
(320,948,o),
(271,904,o),
(271,849,cs),
(271,791,o),
(315,750,o),
(379,750,cs),
(439,750,o),
(489,796,o),
(489,849,cs),
(489,908,o),
(445,948,o),
(379,948,cs)
);
},
{
closed = 1;
nodes = (
(386,909,o),
(409,885,o),
(409,836,cs),
(409,805,o),
(402,789,o),
(388,789,cs),
(370,789,o),
(348,815,o),
(348,864,cs),
(348,894,o),
(357,909,o),
(370,909,cs)
);
}
);
};
layerId = "39185045-6A8C-415A-8312-7B8F11386A4C";
name = Regular;
shapes = (
{
ref = A;
},
{
pos = (200,22);
ref = ringcomb.case;
}
);
width = 683;
}
);
unicode = 197;
},
{
color = 6;
glyphname = Atilde;
kernLeft = A;
kernRight = A;
lastChange = "2023-01-27 12:49:12 +0000";
layers = (
{
background = {
anchors = (
{
name = ogonek;
pos = (683,5);
},
{
name = top;
pos = (397,742);
}
);
hints = (
{
place = (40, 0);
place = (40, 0);
type = Stem;
},
{
place = (40, 0);
place = (40, 0);
type = Stem;
},
{
horizontal = 1;
place = (-13, 0);
place = (-13, 0);
type = Stem;
}
);
shapes = (
{
closed = 1;
nodes = (
(257,697,o),
(40,475,o),
(40,223,cs),
(40,74,o),
(122,-11,o),
(237,-11,cs),
(351,-11,o),
(434,96,o),
(487,328,c),
(492,328,l),
(492,115,ls),
(492,36,o),
(537,-4,o),
(591,-4,cs),
(640,-4,o),
(680,33,o),
(692,68,c),
(681,79,l),
(670,59,o),
(643,42,o),
(621,42,cs),
(591,42,o),
(573,69,o),
(573,109,cs),
(573,630,l),
(492,594,l),
(492,317,o),
(377,50,o),
(257,50,cs),
(181,50,o),
(125,125,o),
(125,249,cs),
(125,472,o),
(289,654,o),
(517,685,c),
(517,711,l)
);
},
{
closed = 1;
nodes = (
(460,937,l),
(464,927,o),
(465,919,o),
(465,911,cs),
(465,892,o),
(459,880,o),
(446,880,cs),
(420,880,o),
(403,937,o),
(356,937,cs),
(311,937,o),
(288,904,o),
(288,865,cs),
(288,852,o),
(291,829,o),
(309,807,c),
(337,815,l),
(332,825,o),
(330,833,o),
(330,840,cs),
(330,862,o),
(338,872,o),
(350,872,cs),
(376,872,o),
(392,815,o),
(441,815,cs),
(485,815,o),
(509,847,o),
(509,887,cs),
(509,899,o),
(506,923,o),
(488,944,c)
);
}
);
};
layerId = "E777F328-EA17-4AE7-9EBA-8002E537BA4F";
name = Light;
shapes = (
{
ref = A;
},
{
pos = (218,22);
ref = tildecomb.case;
}
);
width = 690;
},
{
background = {
anchors = (
{
name = ogonek;
pos = (665,5);
},
{
name = top;
pos = (392,742);
}
);
hints = (
{
place = (19, 0);
place = (19, 0);
type = Stem;
},
{
horizontal = 1;
place = (24, 0);
place = (24, 0);
type = Stem;
},
{
horizontal = 1;
place = (-9, 0);
place = (-9, 0);
type = Stem;
},
{
place = (181, 36);
place = (181, 36);
type = Stem;
},
{
origin = (0,2);
target = (0,2);
type = Stem;
},
{
horizontal = 1;
place = (24, 0);
place = (24, 0);
type = Stem;
},
{
horizontal = 1;
origin = (0,5);
target = (0,5);
type = Stem;
},
{
origin = (0,31);
target = (0,5);
type = Stem;
}
);
shapes = (
{
closed = 1;
nodes = (
(260,711,o),
(19,489,o),
(19,223,cs),
(19,77,o),
(92,-9,o),
(217,-9,cs),
(325,-9,o),
(401,69,o),
(430,214,c),
(439,214,l),
(439,134,ls),
(439,37,o),
(478,-9,o),
(559,-9,cs),
(625,-9,o),
(668,13,o),
(707,66,c),
(680,92,l),
(662,71,o),
(643,60,o),
(625,60,cs),
(608,60,o),
(597,75,o),
(597,96,cs),
(597,637,l),
(439,592,l),
(439,317,o),
(363,59,o),
(280,59,cs),
(217,59,o),
(181,125,o),
(181,251,cs),
(181,458,o),
(347,644,o),
(558,671,c),
(558,719,l)
);
},
{
closed = 1;
nodes = (
(439,891,l),
(444,886,o),
(448,878,o),
(448,869,cs),
(448,858,o),
(441,851,o),
(430,851,cs),
(399,851,o),
(388,902,o),
(329,902,cs),
(280,902,o),
(248,864,o),
(248,820,cs),
(248,796,o),
(256,772,o),
(275,750,c),
(312,768,l),
(307,774,o),
(305,781,o),
(305,791,cs),
(305,801,o),
(310,809,o),
(322,809,cs),
(353,809,o),
(363,758,o),
(422,758,cs),
(472,758,o),
(504,796,o),
(504,839,cs),
(504,863,o),
(496,888,o),
(477,909,c)
);
}
);
};
layerId = "39185045-6A8C-415A-8312-7B8F11386A4C";
name = Regular;
shapes = (
{
ref = A;
},
{
pos = (178,22);
ref = tildecomb.case;
}
);
width = 683;
}
);
unicode = 195;
},
{
color = 6;
glyphname = AE;
kernLeft = A;
kernRight = E;
lastChange = "2023-01-27 11:36:36 +0000";
layers = (
{
anchors = (
{
name = bottom;
pos = (448,0);
},
{
name = top;
pos = (498,742);
}
);
background = {
anchors = (
{
name = top;
pos = (498,742);
}
);
shapes = (
{
closed = 1;
nodes = (
(427,203,l),
(389,101,o),
(332,-11,o),
(222,-11,cs),
(110,-11,o),
(44,97,o),
(44,223,cs),
(44,455,o),
(221,698,o),
(634,692,c),
(634,670,l),
(248,653,o),
(131,437,o),
(131,249,cs),
(131,169,o),
(154,50,o),
(242,50,cs),
(319,50,o),
(368,122,o),
(401,214,c)
);
},
{
closed = 1;
nodes = (
(891,177,l),
(830,76,o),
(717,-11,o),
(585,-11,cs),
(478,-11,o),
(394,59,o),
(394,168,cs),
(394,273,o),
(491,353,o),
(585,394,c),
(517,409,o),
(472,458,o),
(472,522,cs),
(472,658,o),
(628,714,o),
(723,714,cs),
(771,714,o),
(808,694,o),
(842,657,c),
(791,609,l),
(760,635,o),
(722,670,o),
(665,670,cs),
(595,670,o),
(522,625,o),
(522,558,cs),
(522,494,o),
(598,441,o),
(665,441,cs),
(681,441,o),
(697,441,o),
(707,447,c),
(716,421,l),
(626,394,o),
(491,320,o),
(491,203,cs),
(491,125,o),
(540,64,o),
(628,64,cs),
(736,64,o),
(834,132,o),
(871,194,c)
);
}
);
};
layerId = "E777F328-EA17-4AE7-9EBA-8002E537BA4F";
name = Light;
shapes = (
{
closed = 1;
nodes = (
(427,203,l),
(389,101,o),
(332,-11,o),
(222,-11,cs),
(110,-11,o),
(44,97,o),
(44,223,cs),
(44,455,o),
(221,698,o),
(634,692,c),
(634,670,l),
(248,653,o),
(131,437,o),
(131,249,cs),
(131,169,o),
(154,50,o),
(242,50,cs),
(319,50,o),
(368,122,o),
(401,214,c)
);
},
{
closed = 1;
nodes = (
(891,177,l),
(830,76,o),
(717,-11,o),
(585,-11,cs),
(478,-11,o),
(394,59,o),
(394,168,cs),
(394,273,o),
(491,353,o),
(585,394,c),
(517,409,o),
(472,458,o),
(472,522,cs),
(472,658,o),
(628,714,o),
(723,714,cs),
(771,714,o),
(808,694,o),
(842,657,c),
(791,609,l),
(760,635,o),
(722,670,o),
(665,670,cs),
(595,670,o),
(522,625,o),
(522,558,cs),
(522,494,o),
(598,441,o),
(665,441,cs),
(681,441,o),
(697,441,o),
(707,447,c),
(716,421,l),
(626,394,o),
(491,320,o),
(491,203,cs),
(491,125,o),
(540,64,o),
(628,64,cs),
(736,64,o),
(834,132,o),
(871,194,c)
);
}
);
width = 896;
},
{
anchors = (
{
name = bottom;
pos = (454,0);
},
{
name = top;
pos = (504,742);
}
);
background = {
anchors = (
{
name = top;
pos = (504,742);
}
);
shapes = (
{
closed = 1;
nodes = (
(430,214,l),
(406,95,o),
(345,-9,o),
(217,-9,cs),
(97,-9,o),
(19,71,o),
(19,223,cs),
(19,460,o),
(234,711,o),
(572,720,c),
(572,673,l),
(340,644,o),
(181,446,o),
(181,251,cs),
(181,150,o),
(203,59,o),
(280,59,cs),
(330,59,o),
(368,125,o),
(392,213,c)
);
},
{
closed = 1;
nodes = (
(917,196,l),
(857,88,o),
(740,-11,o),
(600,-11,cs),
(458,-11,o),
(385,64,o),
(385,169,cs),
(385,273,o),
(460,349,o),
(535,394,c),
(485,427,o),
(464,467,o),
(464,520,cs),
(464,643,o),
(584,730,o),
(725,730,cs),
(792,730,o),
(857,702,o),
(896,652,c),
(780,590,l),
(756,653,o),
(719,678,o),
(681,678,cs),
(635,678,o),
(591,634,o),
(591,570,cs),
(591,492,o),
(635,451,o),
(698,451,cs),
(719,451,o),
(743,455,o),
(768,464,c),
(777,427,l),
(628,380,o),
(545,322,o),
(545,197,cs),
(545,131,o),
(588,77,o),
(658,77,cs),
(756,77,o),
(839,154,o),
(879,229,c)
);
}
);
};
layerId = "39185045-6A8C-415A-8312-7B8F11386A4C";
name = Regular;
shapes = (
{
closed = 1;
nodes = (
(430,214,l),
(406,95,o),
(345,-9,o),
(217,-9,cs),
(97,-9,o),
(19,71,o),
(19,223,cs),
(19,460,o),
(234,711,o),
(572,720,c),
(572,673,l),
(340,644,o),
(181,446,o),
(181,251,cs),
(181,150,o),
(203,59,o),
(280,59,cs),
(330,59,o),
(368,125,o),
(392,213,c)
);
},
{
closed = 1;
nodes = (
(917,196,l),
(857,88,o),
(740,-11,o),
(600,-11,cs),
(458,-11,o),
(385,64,o),
(385,169,cs),
(385,273,o),
(460,349,o),
(535,394,c),
(485,427,o),
(464,467,o),
(464,520,cs),
(464,643,o),
(584,730,o),
(725,730,cs),
(792,730,o),
(857,702,o),
(896,652,c),
(780,590,l),
(756,653,o),
(719,678,o),
(681,678,cs),
(635,678,o),
(591,634,o),
(591,570,cs),
(591,492,o),
(635,451,o),
(698,451,cs),
(719,451,o),
(743,455,o),
(768,464,c),
(777,427,l),
(628,380,o),
(545,322,o),
(545,197,cs),
(545,131,o),
(588,77,o),
(658,77,cs),
(756,77,o),
(839,154,o),
(879,229,c)
);
}
);
width = 907;
}
);
unicode = 198;
},
{
color = 6;
glyphname = AEacute;
kernLeft = A;
kernRight = E;
lastChange = "2023-01-27 13:23:24 +0000";
layers = (
{
background = {
anchors = (
{
name = top;
pos = (498,742);
}
);
shapes = (
{
closed = 1;
nodes = (
(427,203,l),
(389,101,o),
(332,-11,o),
(222,-11,cs),
(110,-11,o),
(44,97,o),
(44,223,cs),
(44,455,o),
(221,698,o),
(634,692,c),
(634,670,l),
(248,653,o),
(131,437,o),
(131,249,cs),
(131,169,o),
(154,50,o),
(242,50,cs),
(319,50,o),
(368,122,o),
(401,214,c)
);
},
{
closed = 1;
nodes = (
(891,177,l),
(830,76,o),
(717,-11,o),
(585,-11,cs),
(478,-11,o),
(394,59,o),
(394,168,cs),
(394,273,o),
(491,353,o),
(585,394,c),
(517,409,o),
(472,458,o),
(472,522,cs),
(472,658,o),
(628,714,o),
(723,714,cs),
(771,714,o),
(808,694,o),
(842,657,c),
(791,609,l),
(760,635,o),
(722,670,o),
(665,670,cs),
(595,670,o),
(522,625,o),
(522,558,cs),
(522,494,o),
(598,441,o),
(665,441,cs),
(681,441,o),
(697,441,o),
(707,447,c),
(716,421,l),
(626,394,o),
(491,320,o),
(491,203,cs),
(491,125,o),
(540,64,o),
(628,64,cs),
(736,64,o),
(834,132,o),
(871,194,c)
);
},
{
closed = 1;
nodes = (
(425,780,l),
(412,796,l),
(527,935,l),
(586,869,l)
);
}
);
};
layerId = "E777F328-EA17-4AE7-9EBA-8002E537BA4F";
name = Light;
shapes = (
{
ref = AE;
},
{
pos = (342,20);
ref = acutecomb.case;
}
);
width = 896;
},
{
background = {
anchors = (
{
name = top;
pos = (504,742);
}
);
shapes = (
{
closed = 1;
nodes = (
(430,214,l),
(406,95,o),
(345,-9,o),
(217,-9,cs),
(97,-9,o),
(19,71,o),
(19,223,cs),
(19,460,o),
(234,711,o),
(572,720,c),
(572,673,l),
(340,644,o),
(181,446,o),
(181,251,cs),
(181,150,o),
(203,59,o),
(280,59,cs),
(330,59,o),
(368,125,o),
(392,213,c)
);
},
{
closed = 1;
nodes = (
(917,196,l),
(857,88,o),
(740,-11,o),
(600,-11,cs),
(458,-11,o),
(385,64,o),
(385,169,cs),
(385,273,o),
(460,349,o),
(535,394,c),
(485,427,o),
(464,467,o),
(464,520,cs),
(464,643,o),
(584,730,o),
(725,730,cs),
(792,730,o),
(857,702,o),
(896,652,c),
(780,590,l),
(756,653,o),
(719,678,o),
(681,678,cs),
(635,678,o),
(591,634,o),
(591,570,cs),
(591,492,o),
(635,451,o),
(698,451,cs),
(719,451,o),
(743,455,o),
(768,464,c),
(777,427,l),
(628,380,o),
(545,322,o),
(545,197,cs),
(545,131,o),
(588,77,o),
(658,77,cs),
(756,77,o),
(839,154,o),
(879,229,c)
);
},
{
closed = 1;
nodes = (
(415,724,l),
(393,764,l),
(546,909,l),
(617,796,l)
);
}
);
};
layerId = "39185045-6A8C-415A-8312-7B8F11386A4C";
name = Regular;
shapes = (
{
ref = AE;
},
{
pos = (323,22);
ref = acutecomb.case;
}
);
width = 907;
}
);
unicode = 508;
},
{
color = 6;
glyphname = B;
kernLeft = H;
kernRight = B;
lastChange = "2023-01-27 11:36:36 +0000";
layers = (
{
anchors = (
{
name = bottom;
pos = (322,0);
},
{
name = center;
pos = (322,360);
},
{
name = top;
pos = (322,720);
}
);
background = {
shapes = (
{
closed = 1;
nodes = (
(306,381,l),
(391,426,o),
(520,525,o),
(520,625,cs),
(520,689,o),
(467,720,o),
(410,720,cs),
(217,720,o),
(80,574,o),
(80,354,cs),
(80,-5,l),
(160,25,l),
(160,409,ls),
(160,498,o),
(196,670,o),
(332,670,cs),
(392,670,o),
(427,635,o),
(427,585,cs),
(427,477,o),
(293,394,o),
(200,356,c),
(208,329,l),
(249,345,o),
(296,354,o),
(345,354,cs),
(427,354,o),
(513,299,o),
(513,218,cs),
(513,59,o),
(319,-21,o),
(183,-49,c),
(187,-69,l),
(351,-66,o),
(608,25,o),
(608,225,cs),
(608,341,o),
(508,389,o),
(406,389,cs),
(372,389,o),
(340,384,o),
(308,377,c)
);
}
);
};
hints = (
{
horizontal = 1;
place = (611, 0);
place = (611, 0);
type = Stem;
},
{
horizontal = 1;
place = (224, 0);
place = (224, 0);
type = Stem;
},
{
place = (79, 0);
place = (79, 0);
type = Stem;
},
{
origin = (0,32);
target = (0,22);
type = Stem;
}
);
layerId = "E777F328-EA17-4AE7-9EBA-8002E537BA4F";
name = Light;
shapes = (
{
closed = 1;
nodes = (
(306,381,l),
(391,426,o),
(520,525,o),
(520,625,cs),
(520,689,o),
(467,720,o),
(410,720,cs),
(217,720,o),
(80,574,o),
(80,354,cs),
(80,-5,l),
(160,25,l),
(160,409,ls),
(160,498,o),
(196,670,o),
(332,670,cs),
(392,670,o),
(427,635,o),
(427,585,cs),
(427,477,o),
(293,394,o),
(200,356,c),
(208,329,l),
(249,345,o),
(296,354,o),
(345,354,cs),
(427,354,o),
(513,299,o),
(513,218,cs),
(513,59,o),
(319,-21,o),
(183,-49,c),
(187,-69,l),
(351,-66,o),
(608,25,o),
(608,225,cs),
(608,341,o),
(508,389,o),
(406,389,cs),
(372,389,o),
(340,384,o),
(308,377,c)
);
}
);
width = 644;
},
{
anchors = (
{
name = bottom;
pos = (327,0);
},
{
name = center;
pos = (327,360);
},
{
name = top;
pos = (327,720);
}
);
background = {
shapes = (
{
closed = 1;
nodes = (
(340,386,l),
(425,437,o),
(548,532,o),
(548,621,cs),
(548,689,o),
(486,720,o),
(418,720,cs),
(205,720,o),
(59,547,o),
(59,354,cs),
(59,-21,l),
(217,29,l),
(217,409,ls),
(217,498,o),
(239,663,o),
(326,663,cs),
(360,663,o),
(381,630,o),
(381,584,cs),
(381,474,o),
(264,391,o),
(176,347,c),
(186,320,l),
(236,339,o),
(275,349,o),
(319,349,cs),
(389,349,o),
(464,299,o),
(464,218,cs),
(464,59,o),
(273,-9,o),
(141,-36,c),
(154,-83,l),
(324,-76,o),
(634,25,o),
(634,226,cs),
(634,343,o),
(527,391,o),
(420,391,cs),
(398,391,o),
(368,386,o),
(343,381,c)
);
}
);
};
hints = (
{
origin = (0,10);
target = (0,10);
type = Stem;
},
{
origin = (0,21);
target = (0,11);
type = Stem;
},
{
horizontal = 1;
origin = (0,35);
target = (0,35);
type = Stem;
}
);
layerId = "39185045-6A8C-415A-8312-7B8F11386A4C";
name = Regular;
shapes = (
{
closed = 1;
nodes = (
(340,386,l),
(425,437,o),
(548,532,o),
(548,621,cs),
(548,689,o),
(486,720,o),
(418,720,cs),
(205,720,o),
(59,547,o),
(59,354,cs),
(59,-21,l),
(217,29,l),
(217,409,ls),
(217,498,o),
(239,663,o),
(326,663,cs),
(360,663,o),
(381,630,o),
(381,584,cs),
(381,474,o),
(264,391,o),
(176,347,c),
(186,320,l),
(236,339,o),
(275,349,o),
(319,349,cs),
(389,349,o),
(464,299,o),
(464,218,cs),
(464,59,o),
(273,-9,o),
(141,-36,c),
(154,-83,l),
(324,-76,o),
(634,25,o),
(634,226,cs),
(634,343,o),
(527,391,o),
(420,391,cs),
(398,391,o),
(368,386,o),
(343,381,c)
);
}
);
width = 653;
}
);
unicode = 66;
},
{
color = 6;
glyphname = C;
kernLeft = O;
kernRight = C;
lastChange = "2023-01-27 11:29:29 +0000";
layers = (
{
anchors = (
{
name = bottom;
pos = (308,0);
},
{
name = top;
pos = (381,742);
}
);
background = {
anchors = (
{
name = bottom;
pos = (308,0);
},
{
name = top;
pos = (381,742);
}
);
shapes = (
{
closed = 1;
nodes = (
(226,730,o),
(42,542,o),
(42,291,cs),
(42,126,o),
(135,-11,o),
(300,-11,cs),
(427,-11,o),
(501,62,o),
(547,120,c),
(528,140,l),
(478,89,o),
(413,62,o),
(347,62,cs),
(213,62,o),
(125,177,o),
(125,361,cs),
(125,527,o),
(238,671,o),
(366,671,cs),
(451,671,o),
(506,617,o),
(506,535,cs),
(506,472,o),
(467,411,o),
(410,385,c),
(419,370,l),
(498,394,o),
(580,506,o),
(580,600,cs),
(580,678,o),
(525,730,o),
(441,730,cs)
);
}
);
};
hints = (
{
place = (43, 0);
place = (43, 0);
type = Stem;
},
{
place = (125, 0);
place = (125, 0);
type = Stem;
},
{
horizontal = 1;
place = (291, 0);
place = (291, 0);
type = Stem;
},
{
horizontal = 1;
place = (-4, 0);
place = (-4, 0);
type = Stem;
}
);
layerId = "E777F328-EA17-4AE7-9EBA-8002E537BA4F";
name = Light;
shapes = (
{
closed = 1;
nodes = (
(226,730,o),
(42,542,o),
(42,291,cs),
(42,126,o),
(135,-11,o),
(300,-11,cs),
(427,-11,o),
(501,62,o),
(547,120,c),
(528,140,l),
(478,89,o),
(413,62,o),
(347,62,cs),
(213,62,o),
(125,177,o),
(125,361,cs),
(125,527,o),
(238,671,o),
(366,671,cs),
(451,671,o),
(506,617,o),
(506,535,cs),
(506,472,o),
(467,411,o),
(410,385,c),
(419,370,l),
(498,394,o),
(580,506,o),
(580,600,cs),
(580,678,o),
(525,730,o),
(441,730,cs)
);
}
);
width = 613;
},
{
anchors = (
{
name = bottom;
pos = (310,0);
},
{
name = top;
pos = (360,742);
}
);
background = {
anchors = (
{
name = bottom;
pos = (310,0);
},
{
name = top;
pos = (360,742);
}
);
shapes = (
{
closed = 1;
nodes = (
(214,730,o),
(28,533,o),
(28,285,cs),
(28,106,o),
(138,-9,o),
(309,-9,cs),
(402,-9,o),
(515,51,o),
(581,140,c),
(548,169,l),
(492,113,o),
(436,81,o),
(384,81,cs),
(271,81,o),
(191,198,o),
(191,355,cs),
(191,522,o),
(269,666,o),
(364,666,cs),
(419,666,o),
(457,619,o),
(457,547,cs),
(457,483,o),
(418,421,o),
(361,395,c),
(379,361,l),
(513,398,o),
(608,498,o),
(608,599,cs),
(608,678,o),
(545,730,o),
(451,730,cs)
);
}
);
};
hints = (
{
origin = (0,2);
target = (0,2);
type = Stem;
},
{
origin = (0,15);
target = (0,15);
type = Stem;
},
{
horizontal = 1;
origin = (0,5);
target = (0,5);
type = Stem;
},
{
horizontal = 1;
origin = (0,2);
target = (0,2);
type = Stem;
}
);
layerId = "39185045-6A8C-415A-8312-7B8F11386A4C";
name = Regular;
shapes = (
{
closed = 1;
nodes = (
(214,730,o),
(28,533,o),
(28,285,cs),
(28,106,o),
(138,-9,o),
(309,-9,cs),
(402,-9,o),
(515,51,o),
(581,140,c),
(548,169,l),
(492,113,o),
(436,81,o),
(384,81,cs),
(271,81,o),
(191,198,o),
(191,355,cs),
(191,522,o),
(269,666,o),
(364,666,cs),
(419,666,o),
(457,619,o),
(457,547,cs),
(457,483,o),
(418,421,o),
(361,395,c),
(379,361,l),
(513,398,o),
(608,498,o),
(608,599,cs),
(608,678,o),
(545,730,o),
(451,730,cs)
);
}
);
width = 620;
}
);
unicode = 67;
},
{
color = 6;
glyphname = Cacute;
kernLeft = O;
kernRight = C;
lastChange = "2023-01-27 13:23:24 +0000";
layers = (
{
background = {
anchors = (
{
name = bottom;
pos = (308,0);
},
{
name = top;
pos = (381,742);
}
);
hints = (
{
place = (43, 0);
place = (43, 0);
type = Stem;
},
{
place = (125, 0);
place = (125, 0);
type = Stem;
},
{
horizontal = 1;
place = (291, 0);
place = (291, 0);
type = Stem;
},
{
horizontal = 1;
place = (-4, 0);
place = (-4, 0);
type = Stem;
}
);
shapes = (
{
closed = 1;
nodes = (
(226,730,o),
(42,542,o),
(42,291,cs),
(42,126,o),
(135,-11,o),
(300,-11,cs),
(427,-11,o),
(501,62,o),
(547,120,c),
(528,140,l),
(478,89,o),
(413,62,o),
(347,62,cs),
(213,62,o),
(125,177,o),
(125,361,cs),
(125,527,o),
(238,671,o),
(366,671,cs),
(451,671,o),
(506,617,o),
(506,535,cs),
(506,472,o),
(467,411,o),
(410,385,c),
(419,370,l),
(498,394,o),
(580,506,o),
(580,600,cs),
(580,678,o),
(525,730,o),
(441,730,cs)
);
},
{
closed = 1;
nodes = (
(308,780,l),
(295,796,l),
(410,935,l),
(469,869,l)
);
}
);
};
layerId = "E777F328-EA17-4AE7-9EBA-8002E537BA4F";
name = Light;
shapes = (
{
ref = C;
},
{
pos = (225,20);
ref = acutecomb.case;
}
);
width = 613;
},
{
background = {
anchors = (
{
name = bottom;
pos = (310,0);
},
{
name = top;
pos = (360,742);
}
);
hints = (
{
place = (28, 0);
place = (28, 0);
type = Stem;
},
{
place = (191, 0);
place = (191, 0);
type = Stem;
},
{
horizontal = 1;
place = (-9, 0);
place = (-9, 0);
type = Stem;
},
{
horizontal = 1;
place = (285, 0);
place = (285, 0);
type = Stem;
},
{
origin = (0,2);
target = (0,2);
type = Stem;
},
{
origin = (0,15);
target = (0,15);
type = Stem;
},
{
horizontal = 1;
origin = (0,5);
target = (0,5);
type = Stem;
},
{
horizontal = 1;
origin = (0,2);
target = (0,2);
type = Stem;
}
);
shapes = (
{
closed = 1;
nodes = (
(214,730,o),
(28,533,o),
(28,285,cs),
(28,106,o),
(138,-9,o),
(309,-9,cs),
(402,-9,o),
(515,51,o),
(581,140,c),
(548,169,l),
(492,113,o),
(436,81,o),
(384,81,cs),
(271,81,o),
(191,198,o),
(191,355,cs),
(191,522,o),
(269,666,o),
(364,666,cs),
(419,666,o),
(457,619,o),
(457,547,cs),
(457,483,o),
(418,421,o),
(361,395,c),
(379,361,l),
(513,398,o),
(608,498,o),
(608,599,cs),
(608,678,o),
(545,730,o),
(451,730,cs)
);
},
{
closed = 1;
nodes = (
(271,724,l),
(249,764,l),
(402,909,l),
(473,796,l)
);
}
);
};
layerId = "39185045-6A8C-415A-8312-7B8F11386A4C";
name = Regular;
shapes = (
{
ref = C;
},
{
pos = (179,22);
ref = acutecomb.case;
}
);
width = 620;
}
);
unicode = 262;
},
{
color = 6;
glyphname = Ccaron;
kernLeft = O;
kernRight = C;
lastChange = "2023-01-27 12:44:40 +0000";
layers = (
{
background = {
anchors = (
{
name = bottom;
pos = (308,0);
},
{
name = top;
pos = (381,742);
}
);
hints = (
{
place = (43, 0);
place = (43, 0);
type = Stem;
},
{
place = (125, 0);
place = (125, 0);
type = Stem;
},
{
horizontal = 1;
place = (291, 0);
place = (291, 0);
type = Stem;
},
{
horizontal = 1;
place = (-4, 0);
place = (-4, 0);
type = Stem;
}
);
shapes = (
{
closed = 1;
nodes = (
(226,730,o),
(42,542,o),
(42,291,cs),
(42,126,o),
(135,-11,o),
(300,-11,cs),
(427,-11,o),
(501,62,o),
(547,120,c),
(528,140,l),
(478,89,o),
(413,62,o),
(347,62,cs),
(213,62,o),
(125,177,o),
(125,361,cs),
(125,527,o),
(238,671,o),
(366,671,cs),
(451,671,o),
(506,617,o),
(506,535,cs),
(506,472,o),
(467,411,o),
(410,385,c),
(419,370,l),
(498,394,o),
(580,506,o),
(580,600,cs),
(580,678,o),
(525,730,o),
(441,730,cs)
);
},
{
closed = 1;
nodes = (
(249,911,l),
(384,784,l),
(514,929,l),
(489,950,l),
(409,861,l),
(300,964,l)
);
}
);
};
layerId = "E777F328-EA17-4AE7-9EBA-8002E537BA4F";
name = Light;
shapes = (
{
ref = C;
},
{
pos = (179,22);
ref = caroncomb.case;
}
);
width = 613;
},
{
background = {
anchors = (
{
name = bottom;
pos = (310,0);
},
{
name = top;
pos = (360,742);
}
);
hints = (
{
place = (28, 0);
place = (28, 0);
type = Stem;
},
{
place = (191, 0);
place = (191, 0);
type = Stem;
},
{
horizontal = 1;
place = (-9, 0);
place = (-9, 0);
type = Stem;
},
{
horizontal = 1;
place = (285, 0);
place = (285, 0);
type = Stem;
},
{
origin = (0,2);
target = (0,2);
type = Stem;
},
{
origin = (0,15);
target = (0,15);
type = Stem;
},
{
horizontal = 1;
origin = (0,5);
target = (0,5);
type = Stem;
},
{
horizontal = 1;
origin = (0,2);
target = (0,2);
type = Stem;
}
);
shapes = (
{
closed = 1;
nodes = (
(214,730,o),
(28,533,o),
(28,285,cs),
(28,106,o),
(138,-9,o),
(309,-9,cs),
(402,-9,o),
(515,51,o),
(581,140,c),
(548,169,l),
(492,113,o),
(436,81,o),
(384,81,cs),
(271,81,o),
(191,198,o),
(191,355,cs),
(191,522,o),
(269,666,o),
(364,666,cs),
(419,666,o),
(457,619,o),
(457,547,cs),
(457,483,o),
(418,421,o),
(361,395,c),
(379,361,l),
(513,398,o),
(608,498,o),
(608,599,cs),
(608,678,o),
(545,730,o),
(451,730,cs)
);
},
{
closed = 1;
nodes = (
(205,847,l),
(359,739,l),
(484,894,l),
(445,924,l),
(382,846,l),
(267,929,l)
);
}
);
};
layerId = "39185045-6A8C-415A-8312-7B8F11386A4C";
name = Regular;
shapes = (
{
ref = C;
},
{
pos = (135,22);
ref = caroncomb.case;
}
);
width = 620;
}
);
unicode = 268;
},
{
color = 6;
glyphname = Ccedilla;
kernLeft = O;
kernRight = C;
lastChange = "2023-01-27 11:36:49 +0000";
layers = (
{
background = {
anchors = (
{
name = bottom;
pos = (308,0);
},
{
name = top;
pos = (381,742);
}
);
hints = (
{
place = (43, 0);
place = (43, 0);
type = Stem;
},
{
place = (125, 0);
place = (125, 0);
type = Stem;
},
{
horizontal = 1;
place = (291, 0);
place = (291, 0);
type = Stem;
},
{
horizontal = 1;
place = (-4, 0);
place = (-4, 0);
type = Stem;
}
);
shapes = (
{
closed = 1;
nodes = (
(226,730,o),
(42,542,o),
(42,291,cs),
(42,126,o),
(135,-11,o),
(300,-11,cs),
(427,-11,o),
(501,62,o),
(547,120,c),
(528,140,l),
(478,89,o),
(413,62,o),
(347,62,cs),
(213,62,o),
(125,177,o),
(125,361,cs),
(125,527,o),
(238,671,o),
(366,671,cs),
(451,671,o),
(506,617,o),
(506,535,cs),
(506,472,o),
(467,411,o),
(410,385,c),
(419,370,l),
(498,394,o),
(580,506,o),
(580,600,cs),
(580,678,o),
(525,730,o),
(441,730,cs)
);
},
{
closed = 1;
nodes = (
(272,9,l),
(228,-66,l),
(245,-80,l),
(254,-74,o),
(265,-69,o),
(276,-69,cs),
(299,-69,o),
(320,-88,o),
(320,-115,cs),
(320,-141,o),
(302,-160,o),
(281,-160,cs),
(267,-160,o),
(254,-153,o),
(245,-140,c),
(228,-150,l),
(245,-181,o),
(274,-197,o),
(303,-197,cs),
(345,-197,o),
(388,-166,o),
(388,-115,cs),
(388,-64,o),
(353,-36,o),
(314,-36,cs),
(296,-36,o),
(277,-41,o),
(259,-51,c),
(294,9,l)
);
}
);
};
layerId = "E777F328-EA17-4AE7-9EBA-8002E537BA4F";
name = Light;
shapes = (
{
ref = C;
},
{
pos = (228,0);
ref = cedillacomb;
}
);
width = 613;
},
{
background = {
anchors = (
{
name = bottom;
pos = (310,0);
},
{
name = top;
pos = (360,742);
}
);
hints = (
{
place = (28, 0);
place = (28, 0);
type = Stem;
},
{
place = (191, 0);
place = (191, 0);
type = Stem;
},
{
horizontal = 1;
place = (-9, 0);
place = (-9, 0);
type = Stem;
},
{
horizontal = 1;
place = (285, 0);
place = (285, 0);
type = Stem;
},
{
origin = (0,2);
target = (0,2);
type = Stem;
},
{
origin = (0,15);
target = (0,15);
type = Stem;
},
{
horizontal = 1;
origin = (0,5);
target = (0,5);
type = Stem;
},
{
horizontal = 1;
origin = (0,2);
target = (0,2);
type = Stem;
}
);
shapes = (
{
closed = 1;
nodes = (
(214,730,o),
(28,533,o),
(28,285,cs),
(28,106,o),
(138,-9,o),
(309,-9,cs),
(402,-9,o),
(515,51,o),
(581,140,c),
(548,169,l),
(492,113,o),
(436,81,o),
(384,81,cs),
(271,81,o),
(191,198,o),
(191,355,cs),
(191,522,o),
(269,666,o),
(364,666,cs),
(419,666,o),
(457,619,o),
(457,547,cs),
(457,483,o),
(418,421,o),
(361,395,c),
(379,361,l),
(513,398,o),
(608,498,o),
(608,599,cs),
(608,678,o),
(545,730,o),
(451,730,cs)
);
},
{
closed = 1;
nodes = (
(284,11,l),
(239,-66,l),
(259,-81,l),
(269,-76,o),
(279,-74,o),
(287,-74,cs),
(314,-74,o),
(328,-95,o),
(328,-119,cs),
(328,-140,o),
(316,-161,o),
(288,-161,cs),
(269,-161,o),
(255,-151,o),
(239,-131,c),
(214,-151,l),
(231,-181,o),
(271,-203,o),
(310,-203,cs),
(360,-203,o),
(408,-171,o),
(408,-119,cs),
(408,-66,o),
(369,-37,o),
(322,-37,cs),
(312,-37,o),
(303,-39,o),
(294,-41,c),
(324,11,l)
);
}
);
};
layerId = "39185045-6A8C-415A-8312-7B8F11386A4C";
name = Regular;
shapes = (
{
ref = C;
},
{
pos = (247,0);
ref = cedillacomb;
}
);
width = 620;
}
);
unicode = 199;
},
{
color = 6;
glyphname = Ccircumflex;
kernLeft = O;
kernRight = C;
lastChange = "2023-01-27 12:43:53 +0000";
layers = (
{
background = {
anchors = (
{
name = bottom;
pos = (308,0);
},
{
name = top;
pos = (381,742);
}
);
hints = (
{
place = (43, 0);
place = (43, 0);
type = Stem;
},
{
place = (125, 0);
place = (125, 0);
type = Stem;
},
{
horizontal = 1;
place = (291, 0);
place = (291, 0);
type = Stem;
},
{
horizontal = 1;
place = (-4, 0);
place = (-4, 0);
type = Stem;
}
);
shapes = (
{
closed = 1;
nodes = (
(226,730,o),
(42,542,o),
(42,291,cs),
(42,126,o),
(135,-11,o),
(300,-11,cs),
(427,-11,o),
(501,62,o),
(547,120,c),
(528,140,l),
(478,89,o),
(413,62,o),
(347,62,cs),
(213,62,o),
(125,177,o),
(125,361,cs),
(125,527,o),
(238,671,o),
(366,671,cs),
(451,671,o),
(506,617,o),
(506,535,cs),
(506,472,o),
(467,411,o),
(410,385,c),
(419,370,l),
(498,394,o),
(580,506,o),
(580,600,cs),
(580,678,o),
(525,730,o),
(441,730,cs)
);
},
{
closed = 1;
nodes = (
(249,811,l),
(275,791,l),
(354,880,l),
(464,776,l),
(514,829,l),
(379,957,l)
);
}
);
};
layerId = "E777F328-EA17-4AE7-9EBA-8002E537BA4F";
name = Light;
shapes = (
{
ref = C;
},
{
pos = (179,22);
ref = circumflexcomb.case;
}
);
width = 613;
},
{
background = {
anchors = (
{
name = bottom;
pos = (310,0);
},
{
name = top;
pos = (360,742);
}
);
hints = (
{
place = (28, 0);
place = (28, 0);
type = Stem;
},
{
place = (191, 0);
place = (191, 0);
type = Stem;
},
{
horizontal = 1;
place = (-9, 0);
place = (-9, 0);
type = Stem;
},
{
horizontal = 1;
place = (285, 0);
place = (285, 0);
type = Stem;
},
{
origin = (0,2);
target = (0,2);
type = Stem;
},
{
origin = (0,15);
target = (0,15);
type = Stem;
},
{
horizontal = 1;
origin = (0,5);
target = (0,5);
type = Stem;
},
{
horizontal = 1;
origin = (0,2);
target = (0,2);
type = Stem;
}
);
shapes = (
{
closed = 1;
nodes = (
(214,730,o),
(28,533,o),
(28,285,cs),
(28,106,o),
(138,-9,o),
(309,-9,cs),
(402,-9,o),
(515,51,o),
(581,140,c),
(548,169,l),
(492,113,o),
(436,81,o),
(384,81,cs),
(271,81,o),
(191,198,o),
(191,355,cs),
(191,522,o),
(269,666,o),
(364,666,cs),
(419,666,o),
(457,619,o),
(457,547,cs),
(457,483,o),
(418,421,o),
(361,395,c),
(379,361,l),
(513,398,o),
(608,498,o),
(608,599,cs),
(608,678,o),
(545,730,o),
(451,730,cs)
);
},
{
closed = 1;
nodes = (
(205,754,l),
(244,724,l),
(306,802,l),
(423,720,l),
(483,801,l),
(330,909,l)
);
}
);
};
layerId = "39185045-6A8C-415A-8312-7B8F11386A4C";
name = Regular;
shapes = (
{
ref = C;
},
{
pos = (136,22);
ref = circumflexcomb.case;
}
);
width = 620;
}
);
unicode = 264;
},
{
color = 6;
glyphname = Cdotaccent;
kernLeft = O;
kernRight = C;
lastChange = "2023-01-27 11:42:51 +0000";
layers = (
{
background = {
anchors = (
{
name = bottom;
pos = (308,0);
},
{
name = top;
pos = (381,742);
}
);
hints = (
{
place = (43, 0);
place = (43, 0);
type = Stem;
},
{
place = (125, 0);
place = (125, 0);
type = Stem;
},
{
horizontal = 1;
place = (291, 0);
place = (291, 0);
type = Stem;
},
{
horizontal = 1;
place = (-4, 0);
place = (-4, 0);
type = Stem;
}
);
shapes = (
{
closed = 1;
nodes = (
(226,730,o),
(42,542,o),
(42,291,cs),
(42,126,o),
(135,-11,o),
(300,-11,cs),
(427,-11,o),
(501,62,o),
(547,120,c),
(528,140,l),
(478,89,o),
(413,62,o),
(347,62,cs),
(213,62,o),
(125,177,o),
(125,361,cs),
(125,527,o),
(238,671,o),
(366,671,cs),
(451,671,o),
(506,617,o),
(506,535,cs),
(506,472,o),
(467,411,o),
(410,385,c),
(419,370,l),
(498,394,o),
(580,506,o),
(580,600,cs),
(580,678,o),
(525,730,o),
(441,730,cs)
);
},
{
closed = 1;
nodes = (
(349,934,o),
(324,908,o),
(324,876,cs),
(324,846,o),
(349,820,o),
(381,820,cs),
(410,820,o),
(437,846,o),
(437,876,cs),
(437,908,o),
(410,934,o),
(381,934,cs)
);
}
);
};
layerId = "E777F328-EA17-4AE7-9EBA-8002E537BA4F";
name = Light;
shapes = (
{
ref = C;
},
{
pos = (254,19);
ref = dotaccentcomb.case;
}
);
width = 613;
},
{
background = {
anchors = (
{
name = bottom;
pos = (310,0);
},
{
name = top;
pos = (360,742);
}
);
hints = (
{
place = (28, 0);
place = (28, 0);
type = Stem;
},
{
place = (191, 0);
place = (191, 0);
type = Stem;
},
{
horizontal = 1;
place = (-9, 0);
place = (-9, 0);
type = Stem;
},
{
horizontal = 1;
place = (285, 0);
place = (285, 0);
type = Stem;
},
{
origin = (0,2);
target = (0,2);
type = Stem;
},
{
origin = (0,15);
target = (0,15);
type = Stem;
},
{
horizontal = 1;
origin = (0,5);
target = (0,5);
type = Stem;
},
{
horizontal = 1;
origin = (0,2);
target = (0,2);
type = Stem;
}
);
shapes = (
{
closed = 1;
nodes = (
(214,730,o),
(28,533,o),
(28,285,cs),
(28,106,o),
(138,-9,o),
(309,-9,cs),
(402,-9,o),
(515,51,o),
(581,140,c),
(548,169,l),
(492,113,o),
(436,81,o),
(384,81,cs),
(271,81,o),
(191,198,o),
(191,355,cs),
(191,522,o),
(269,666,o),
(364,666,cs),
(419,666,o),
(457,619,o),
(457,547,cs),
(457,483,o),
(418,421,o),
(361,395,c),
(379,361,l),
(513,398,o),
(608,498,o),
(608,599,cs),
(608,678,o),
(545,730,o),
(451,730,cs)
);
},
{
closed = 1;
nodes = (
(310,906,o),
(276,871,o),
(276,830,cs),
(276,789,o),
(310,755,o),
(351,755,cs),
(391,755,o),
(425,789,o),
(425,830,cs),
(425,871,o),
(391,906,o),
(351,906,cs)
);
}
);
};
layerId = "39185045-6A8C-415A-8312-7B8F11386A4C";
name = Regular;
shapes = (
{
ref = C;
},
{
pos = (200,22);
ref = dotaccentcomb.case;
}
);
width = 620;
}
);
unicode = 266;
},
{
color = 6;
glyphname = D;
kernLeft = H;
kernRight = O;
lastChange = "2023-01-27 11:36:36 +0000";
layers = (
{
anchors = (
{
name = bottom;
pos = (337,0);
},
{
name = center;
pos = (335,370);
},
{
name = top;
pos = (335,742);
}
);
background = {
anchors = (
{
name = center;
pos = (335,370);
},
{
name = top;
pos = (335,742);
}
);
shapes = (
{
closed = 1;
nodes = (
(283,707,o),
(120,643,o),
(33,556,c),
(50,538,l),
(131,605,o),
(239,652,o),
(353,652,cs),
(489,652,o),
(532,536,o),
(532,446,cs),
(532,248,o),
(384,89,o),
(177,37,c),
(177,570,l),
(97,538,l),
(97,-13,l),
(358,2,o),
(630,203,o),
(630,463,cs),
(630,609,o),
(549,707,o),
(391,707,cs)
);
}
);
};
layerId = "E777F328-EA17-4AE7-9EBA-8002E537BA4F";
name = Light;
shapes = (
{
closed = 1;
nodes = (
(283,707,o),
(120,643,o),
(33,556,c),
(50,538,l),
(131,605,o),
(239,652,o),
(353,652,cs),
(489,652,o),
(532,536,o),
(532,446,cs),
(532,248,o),
(384,89,o),
(177,37,c),
(177,570,l),
(97,538,l),
(97,-13,l),
(358,2,o),
(630,203,o),
(630,463,cs),
(630,609,o),
(549,707,o),
(391,707,cs)
);
}
);
width = 673;
},
{
anchors = (
{
name = bottom;
pos = (342,0);
},
{
name = center;
pos = (341,370);
},
{
name = top;
pos = (341,742);
}
);
background = {
anchors = (
{
name = center;
pos = (341,370);
},
{
name = top;
pos = (341,742);
}
);
shapes = (
{
closed = 1;
nodes = (
(221,742,o),
(92,663,o),
(17,591,c),
(49,554,l),
(120,617,o),
(225,671,o),
(308,671,cs),
(414,671,o),
(500,606,o),
(500,446,cs),
(500,260,o),
(391,115,o),
(236,60,c),
(236,600,l),
(80,554,l),
(80,-13,l),
(329,2,o),
(657,169,o),
(657,462,cs),
(657,630,o),
(566,742,o),
(377,742,cs)
);
}
);
};
layerId = "39185045-6A8C-415A-8312-7B8F11386A4C";
name = Regular;
shapes = (
{
closed = 1;
nodes = (
(221,742,o),
(92,663,o),
(17,591,c),
(49,554,l),
(120,617,o),
(225,671,o),
(308,671,cs),
(414,671,o),
(500,606,o),
(500,446,cs),
(500,260,o),
(391,115,o),
(236,60,c),
(236,600,l),
(80,554,l),
(80,-13,l),
(329,2,o),
(657,169,o),
(657,462,cs),
(657,630,o),
(566,742,o),
(377,742,cs)
);
}
);
width = 683;
}
);
unicode = 68;
},
{
color = 6;
glyphname = Eth;
kernLeft = H;
kernRight = O;
lastChange = "2023-01-27 11:29:31 +0000";
layers = (
{
background = {
anchors = (
{
name = center;
pos = (335,370);
},
{
name = top;
pos = (335,742);
}
);
shapes = (
{
closed = 1;
nodes = (
(13,374,l),
(-8,324,l),
(330,324,l),
(351,374,l)
);
},
{
closed = 1;
nodes = (
(283,707,o),
(120,643,o),
(33,556,c),
(50,538,l),
(131,605,o),
(239,652,o),
(353,652,cs),
(489,652,o),
(532,536,o),
(532,446,cs),
(532,248,o),
(384,89,o),
(177,37,c),
(177,570,l),
(97,538,l),
(97,-13,l),
(358,2,o),
(630,203,o),
(630,463,cs),
(630,609,o),
(549,707,o),
(391,707,cs)
);
}
);
};
layerId = "E777F328-EA17-4AE7-9EBA-8002E537BA4F";
name = Light;
shapes = (
{
closed = 1;
nodes = (
(13,374,l),
(-8,324,l),
(330,324,l),
(351,374,l)
);
},
{
ref = D;
}
);
width = 673;
},
{
background = {
anchors = (
{
name = center;
pos = (341,370);
},
{
name = top;
pos = (341,742);
}
);
shapes = (
{
closed = 1;
nodes = (
(3,375,l),
(-21,322,l),
(340,322,l),
(363,375,l)
);
},
{
closed = 1;
nodes = (
(221,742,o),
(92,663,o),
(17,591,c),
(49,554,l),
(120,617,o),
(225,671,o),
(308,671,cs),
(414,671,o),
(500,606,o),
(500,446,cs),
(500,260,o),
(391,115,o),
(236,60,c),
(236,600,l),
(80,554,l),
(80,-13,l),
(329,2,o),
(657,169,o),
(657,462,cs),
(657,630,o),
(566,742,o),
(377,742,cs)
);
}
);
};
layerId = "39185045-6A8C-415A-8312-7B8F11386A4C";
name = Regular;
shapes = (
{
closed = 1;
nodes = (
(3,375,l),
(-21,322,l),
(340,322,l),
(363,375,l)
);
},
{
ref = D;
}
);
width = 683;
}
);
unicode = 208;
},
{
color = 6;
glyphname = Dcaron;
kernLeft = H;
kernRight = O;
lastChange = "2023-01-27 12:44:40 +0000";
layers = (
{
background = {
anchors = (
{
name = center;
pos = (335,370);
},
{
name = top;
pos = (335,742);
}
);
shapes = (
{
closed = 1;
nodes = (
(283,707,o),
(120,643,o),
(33,556,c),
(50,538,l),
(131,605,o),
(239,652,o),
(353,652,cs),
(489,652,o),
(532,536,o),
(532,446,cs),
(532,248,o),
(384,89,o),
(177,37,c),
(177,570,l),
(97,538,l),
(97,-13,l),
(358,2,o),
(630,203,o),
(630,463,cs),
(630,609,o),
(549,707,o),
(391,707,cs)
);
},
{
closed = 1;
nodes = (
(203,911,l),
(338,784,l),
(468,929,l),
(443,950,l),
(363,861,l),
(254,964,l)
);
}
);
};
layerId = "E777F328-EA17-4AE7-9EBA-8002E537BA4F";
name = Light;
shapes = (
{
ref = D;
},
{
pos = (133,22);
ref = caroncomb.case;
}
);
width = 673;
},
{
background = {
anchors = (
{
name = center;
pos = (341,370);
},
{
name = top;
pos = (341,742);
}
);
shapes = (
{
closed = 1;
nodes = (
(221,742,o),
(92,663,o),
(17,591,c),
(49,554,l),
(120,617,o),
(225,671,o),
(308,671,cs),
(414,671,o),
(500,606,o),
(500,446,cs),
(500,260,o),
(391,115,o),
(236,60,c),
(236,600,l),
(80,554,l),
(80,-13,l),
(329,2,o),
(657,169,o),
(657,462,cs),
(657,630,o),
(566,742,o),
(377,742,cs)
);
},
{
closed = 1;
nodes = (
(186,847,l),
(340,739,l),
(465,894,l),
(426,924,l),
(363,846,l),
(248,929,l)
);
}
);
};
layerId = "39185045-6A8C-415A-8312-7B8F11386A4C";
name = Regular;
shapes = (
{
ref = D;
},
{
pos = (116,22);
ref = caroncomb.case;
}
);
width = 683;
}
);
unicode = 270;
},
{
color = 6;
glyphname = Dcroat;
kernLeft = D;
kernRight = D;
lastChange = "2023-01-27 11:36:49 +0000";
layers = (
{
background = {
anchors = (
{
name = center;
pos = (335,370);
},
{
name = top;
pos = (335,742);
}
);
shapes = (
{
closed = 1;
nodes = (
(13,374,l),
(-8,324,l),
(330,324,l),
(351,374,l)
);
},
{
closed = 1;
nodes = (
(283,707,o),
(120,643,o),
(33,556,c),
(50,538,l),
(131,605,o),
(239,652,o),
(353,652,cs),
(489,652,o),
(532,536,o),
(532,446,cs),
(532,248,o),
(384,89,o),
(177,37,c),
(177,570,l),
(97,538,l),
(97,-13,l),
(358,2,o),
(630,203,o),
(630,463,cs),
(630,609,o),
(549,707,o),
(391,707,cs)
);
}
);
};
layerId = "E777F328-EA17-4AE7-9EBA-8002E537BA4F";
name = Light;
shapes = (
{
ref = Eth;
}
);
width = 673;
},
{
background = {
anchors = (
{
name = center;
pos = (341,370);
},
{
name = top;
pos = (341,742);
}
);
shapes = (
{
closed = 1;
nodes = (
(3,375,l),
(-21,322,l),
(340,322,l),
(363,375,l)
);
},
{
closed = 1;
nodes = (
(221,742,o),
(92,663,o),
(17,591,c),
(49,554,l),
(120,617,o),
(225,671,o),
(308,671,cs),
(414,671,o),
(500,606,o),
(500,446,cs),
(500,260,o),
(391,115,o),
(236,60,c),
(236,600,l),
(80,554,l),
(80,-13,l),
(329,2,o),
(657,169,o),
(657,462,cs),
(657,630,o),
(566,742,o),
(377,742,cs)
);
}
);
};
layerId = "39185045-6A8C-415A-8312-7B8F11386A4C";
name = Regular;
shapes = (
{
ref = Eth;
}
);
width = 683;
}
);
unicode = 272;
},
{
color = 6;
glyphname = E;
kernLeft = H;
kernRight = E;
lastChange = "2023-01-27 11:36:36 +0000";
layers = (
{
anchors = (
{
name = bottom;
pos = (271,0);
},
{
name = ogonek;
pos = (341,5);
},
{
name = top;
pos = (324,742);
},
{
name = topleft;
pos = (20,720);
}
);
background = {
anchors = (
{
name = bottom;
pos = (271,0);
},
{
name = ogonek;
pos = (341,5);
},
{
name = top;
pos = (324,742);
}
);
shapes = (
{
closed = 1;
nodes = (
(268,714,o),
(113,658,o),
(113,522,cs),
(113,458,o),
(157,409,o),
(226,394,c),
(132,353,o),
(34,273,o),
(34,168,cs),
(34,59,o),
(119,-11,o),
(226,-11,cs),
(358,-11,o),
(471,76,o),
(532,177,c),
(513,194,l),
(475,132,o),
(375,64,o),
(268,64,cs),
(181,64,o),
(131,125,o),
(131,203,cs),
(131,320,o),
(267,394,o),
(356,421,c),
(348,447,l),
(338,441,o),
(322,441,o),
(306,441,cs),
(238,441,o),
(163,494,o),
(163,558,cs),
(163,625,o),
(236,670,o),
(306,670,cs),
(363,670,o),
(401,635,o),
(431,609,c),
(482,657,l),
(449,694,o),
(411,714,o),
(364,714,cs)
);
}
);
};
layerId = "E777F328-EA17-4AE7-9EBA-8002E537BA4F";
name = Light;
shapes = (
{
closed = 1;
nodes = (
(268,714,o),
(113,658,o),
(113,522,cs),
(113,458,o),
(157,409,o),
(226,394,c),
(132,353,o),
(34,273,o),
(34,168,cs),
(34,59,o),
(119,-11,o),
(226,-11,cs),
(358,-11,o),
(471,76,o),
(532,177,c),
(513,194,l),
(475,132,o),
(375,64,o),
(268,64,cs),
(181,64,o),
(131,125,o),
(131,203,cs),
(131,320,o),
(267,394,o),
(356,421,c),
(348,447,l),
(338,441,o),
(322,441,o),
(306,441,cs),
(238,441,o),
(163,494,o),
(163,558,cs),
(163,625,o),
(236,670,o),
(306,670,cs),
(363,670,o),
(401,635,o),
(431,609,c),
(482,657,l),
(449,694,o),
(411,714,o),
(364,714,cs)
);
}
);
width = 541;
},
{
anchors = (
{
name = bottom;
pos = (266,0);
},
{
name = ogonek;
pos = (379,5);
},
{
name = top;
pos = (315,742);
},
{
name = topleft;
pos = (20,720);
}
);
background = {
anchors = (
{
name = bottom;
pos = (266,0);
},
{
name = ogonek;
pos = (379,5);
},
{
name = top;
pos = (315,742);
}
);
shapes = (
{
closed = 1;
nodes = (
(208,730,o),
(86,643,o),
(86,520,cs),
(86,463,o),
(125,402,o),
(181,383,c),
(96,341,o),
(9,267,o),
(9,169,cs),
(9,64,o),
(83,-11,o),
(225,-11,cs),
(364,-11,o),
(481,88,o),
(542,196,c),
(501,229,l),
(463,154,o),
(379,77,o),
(281,77,cs),
(218,77,o),
(181,132,o),
(181,203,cs),
(181,325,o),
(293,394,o),
(401,427,c),
(391,464,l),
(366,455,o),
(343,451,o),
(322,451,cs),
(258,451,o),
(214,492,o),
(214,570,cs),
(214,634,o),
(260,678,o),
(306,678,cs),
(343,678,o),
(379,653,o),
(405,590,c),
(520,652,l),
(481,702,o),
(414,730,o),
(348,730,cs)
);
}
);
};
layerId = "39185045-6A8C-415A-8312-7B8F11386A4C";
name = Regular;
shapes = (
{
closed = 1;
nodes = (
(208,730,o),
(86,643,o),
(86,520,cs),
(86,463,o),
(125,402,o),
(181,383,c),
(96,341,o),
(9,267,o),
(9,169,cs),
(9,64,o),
(83,-11,o),
(225,-11,cs),
(364,-11,o),
(481,88,o),
(542,196,c),
(501,229,l),
(463,154,o),
(379,77,o),
(281,77,cs),
(218,77,o),
(181,132,o),
(181,203,cs),
(181,325,o),
(293,394,o),
(401,427,c),
(391,464,l),
(366,455,o),
(343,451,o),
(322,451,cs),
(258,451,o),
(214,492,o),
(214,570,cs),
(214,634,o),
(260,678,o),
(306,678,cs),
(343,678,o),
(379,653,o),
(405,590,c),
(520,652,l),
(481,702,o),
(414,730,o),
(348,730,cs)
);
}
);
width = 532;
}
);
unicode = 69;
},
{
color = 6;
glyphname = Eacute;
kernLeft = H;
kernRight = E;
lastChange = "2023-01-27 13:23:24 +0000";
layers = (
{
background = {
anchors = (
{
name = bottom;
pos = (271,0);
},
{
name = ogonek;
pos = (341,5);
},
{
name = top;
pos = (324,742);
}
);
shapes = (
{
closed = 1;
nodes = (
(268,714,o),
(113,658,o),
(113,522,cs),
(113,458,o),
(157,409,o),
(226,394,c),
(132,353,o),
(34,273,o),
(34,168,cs),
(34,59,o),
(119,-11,o),
(226,-11,cs),
(358,-11,o),
(471,76,o),
(532,177,c),
(513,194,l),
(475,132,o),
(375,64,o),
(268,64,cs),
(181,64,o),
(131,125,o),
(131,203,cs),
(131,320,o),
(267,394,o),
(356,421,c),
(348,447,l),
(338,441,o),
(322,441,o),
(306,441,cs),
(238,441,o),
(163,494,o),
(163,558,cs),
(163,625,o),
(236,670,o),
(306,670,cs),
(363,670,o),
(401,635,o),
(431,609,c),
(482,657,l),
(449,694,o),
(411,714,o),
(364,714,cs)
);
},
{
closed = 1;
nodes = (
(251,780,l),
(238,796,l),
(353,935,l),
(412,869,l)
);
}
);
};
layerId = "E777F328-EA17-4AE7-9EBA-8002E537BA4F";
name = Light;
shapes = (
{
ref = E;
},
{
pos = (168,20);
ref = acutecomb.case;
}
);
width = 541;
},
{
background = {
anchors = (
{
name = bottom;
pos = (266,0);
},
{
name = ogonek;
pos = (379,5);
},
{
name = top;
pos = (315,742);
}
);
shapes = (
{
closed = 1;
nodes = (
(208,730,o),
(86,643,o),
(86,520,cs),
(86,463,o),
(125,402,o),
(181,383,c),
(96,341,o),
(9,267,o),
(9,169,cs),
(9,64,o),
(83,-11,o),
(225,-11,cs),
(364,-11,o),
(481,88,o),
(542,196,c),
(501,229,l),
(463,154,o),
(379,77,o),
(281,77,cs),
(218,77,o),
(181,132,o),
(181,203,cs),
(181,325,o),
(293,394,o),
(401,427,c),
(391,464,l),
(366,455,o),
(343,451,o),
(322,451,cs),
(258,451,o),
(214,492,o),
(214,570,cs),
(214,634,o),
(260,678,o),
(306,678,cs),
(343,678,o),
(379,653,o),
(405,590,c),
(520,652,l),
(481,702,o),
(414,730,o),
(348,730,cs)
);
},
{
closed = 1;
nodes = (
(226,724,l),
(204,764,l),
(357,909,l),
(428,796,l)
);
}
);
};
layerId = "39185045-6A8C-415A-8312-7B8F11386A4C";
name = Regular;
shapes = (
{
ref = E;
},
{
pos = (134,22);
ref = acutecomb.case;
}
);
width = 532;
}
);
unicode = 201;
},
{
color = 6;
glyphname = Ebreve;
kernLeft = H;
kernRight = E;
lastChange = "2023-01-27 12:45:59 +0000";
layers = (
{
background = {
anchors = (
{
name = bottom;
pos = (271,0);
},
{
name = ogonek;
pos = (341,5);
},
{
name = top;
pos = (324,742);
}
);
shapes = (
{
closed = 1;
nodes = (
(268,714,o),
(113,658,o),
(113,522,cs),
(113,458,o),
(157,409,o),
(226,394,c),
(132,353,o),
(34,273,o),
(34,168,cs),
(34,59,o),
(119,-11,o),
(226,-11,cs),
(358,-11,o),
(471,76,o),
(532,177,c),
(513,194,l),
(475,132,o),
(375,64,o),
(268,64,cs),
(181,64,o),
(131,125,o),
(131,203,cs),
(131,320,o),
(267,394,o),
(356,421,c),
(348,447,l),
(338,441,o),
(322,441,o),
(306,441,cs),
(238,441,o),
(163,494,o),
(163,558,cs),
(163,625,o),
(236,670,o),
(306,670,cs),
(363,670,o),
(401,635,o),
(431,609,c),
(482,657,l),
(449,694,o),
(411,714,o),
(364,714,cs)
);
},
{
closed = 1;
nodes = (
(272,946,l),
(262,932,o),
(258,913,o),
(258,897,cs),
(258,861,o),
(278,804,o),
(322,804,cs),
(349,804,o),
(368,825,o),
(368,852,cs),
(368,877,o),
(354,903,o),
(337,919,c),
(401,959,l),
(421,938,o),
(429,913,o),
(429,885,cs),
(429,818,o),
(379,775,o),
(312,775,cs),
(258,775,o),
(218,810,o),
(218,865,cs),
(218,897,o),
(235,937,o),
(258,957,c)
);
}
);
};
layerId = "E777F328-EA17-4AE7-9EBA-8002E537BA4F";
name = Light;
shapes = (
{
ref = E;
},
{
pos = (138,22);
ref = brevecomb.case;
}
);
width = 541;
},
{
background = {
anchors = (
{
name = bottom;
pos = (266,0);
},
{
name = ogonek;
pos = (379,5);
},
{
name = top;
pos = (315,742);
}
);
shapes = (
{
closed = 1;
nodes = (
(208,730,o),
(86,643,o),
(86,520,cs),
(86,463,o),
(125,402,o),
(181,383,c),
(96,341,o),
(9,267,o),
(9,169,cs),
(9,64,o),
(83,-11,o),
(225,-11,cs),
(364,-11,o),
(481,88,o),
(542,196,c),
(501,229,l),
(463,154,o),
(379,77,o),
(281,77,cs),
(218,77,o),
(181,132,o),
(181,203,cs),
(181,325,o),
(293,394,o),
(401,427,c),
(391,464,l),
(366,455,o),
(343,451,o),
(322,451,cs),
(258,451,o),
(214,492,o),
(214,570,cs),
(214,634,o),
(260,678,o),
(306,678,cs),
(343,678,o),
(379,653,o),
(405,590,c),
(520,652,l),
(481,702,o),
(414,730,o),
(348,730,cs)
);
},
{
closed = 1;
nodes = (
(261,902,l),
(256,889,o),
(251,875,o),
(251,849,cs),
(251,816,o),
(266,766,o),
(298,766,cs),
(317,766,o),
(331,784,o),
(331,809,cs),
(331,837,o),
(319,862,o),
(305,874,c),
(382,923,l),
(408,896,o),
(420,867,o),
(420,841,cs),
(420,774,o),
(364,729,o),
(291,729,cs),
(230,729,o),
(184,765,o),
(184,821,cs),
(184,862,o),
(201,894,o),
(236,920,c)
);
}
);
};
layerId = "39185045-6A8C-415A-8312-7B8F11386A4C";
name = Regular;
shapes = (
{
ref = E;
},
{
pos = (113,22);
ref = brevecomb.case;
}
);
width = 532;
}
);
unicode = 276;
},
{
color = 6;
glyphname = Ecaron;
kernLeft = H;
kernRight = E;
lastChange = "2023-01-27 12:44:40 +0000";
layers = (
{
background = {
anchors = (
{
name = bottom;
pos = (271,0);
},
{
name = ogonek;
pos = (341,5);
},
{
name = top;
pos = (324,742);
}
);
shapes = (
{
closed = 1;
nodes = (
(268,714,o),
(113,658,o),
(113,522,cs),
(113,458,o),
(157,409,o),
(226,394,c),
(132,353,o),
(34,273,o),
(34,168,cs),
(34,59,o),
(119,-11,o),
(226,-11,cs),
(358,-11,o),
(471,76,o),
(532,177,c),
(513,194,l),
(475,132,o),
(375,64,o),
(268,64,cs),
(181,64,o),
(131,125,o),
(131,203,cs),
(131,320,o),
(267,394,o),
(356,421,c),
(348,447,l),
(338,441,o),
(322,441,o),
(306,441,cs),
(238,441,o),
(163,494,o),
(163,558,cs),
(163,625,o),
(236,670,o),
(306,670,cs),
(363,670,o),
(401,635,o),
(431,609,c),
(482,657,l),
(449,694,o),
(411,714,o),
(364,714,cs)
);
},
{
closed = 1;
nodes = (
(192,911,l),
(327,784,l),
(457,929,l),
(432,950,l),
(352,861,l),
(243,964,l)
);
}
);
};
layerId = "E777F328-EA17-4AE7-9EBA-8002E537BA4F";
name = Light;
shapes = (
{
ref = E;
},
{
pos = (122,22);
ref = caroncomb.case;
}
);
width = 541;
},
{
background = {
anchors = (
{
name = bottom;
pos = (266,0);
},
{
name = ogonek;
pos = (379,5);
},
{
name = top;
pos = (315,742);
}
);
shapes = (
{
closed = 1;
nodes = (
(208,730,o),
(86,643,o),
(86,520,cs),
(86,463,o),
(125,402,o),
(181,383,c),
(96,341,o),
(9,267,o),
(9,169,cs),
(9,64,o),
(83,-11,o),
(225,-11,cs),
(364,-11,o),
(481,88,o),
(542,196,c),
(501,229,l),
(463,154,o),
(379,77,o),
(281,77,cs),
(218,77,o),
(181,132,o),
(181,203,cs),
(181,325,o),
(293,394,o),
(401,427,c),
(391,464,l),
(366,455,o),
(343,451,o),
(322,451,cs),
(258,451,o),
(214,492,o),
(214,570,cs),
(214,634,o),
(260,678,o),
(306,678,cs),
(343,678,o),
(379,653,o),
(405,590,c),
(520,652,l),
(481,702,o),
(414,730,o),
(348,730,cs)
);
},
{
closed = 1;
nodes = (
(160,847,l),
(314,739,l),
(439,894,l),
(400,924,l),
(337,846,l),
(222,929,l)
);
}
);
};
layerId = "39185045-6A8C-415A-8312-7B8F11386A4C";
name = Regular;
shapes = (
{
ref = E;
},
{
pos = (90,22);
ref = caroncomb.case;
}
);
width = 532;
}
);
unicode = 282;
},
{
color = 6;
glyphname = Ecircumflex;
kernLeft = H;
kernRight = E;
lastChange = "2023-01-27 12:43:53 +0000";
layers = (
{
background = {
anchors = (
{
name = bottom;
pos = (271,0);
},
{
name = ogonek;
pos = (341,5);
},
{
name = top;
pos = (324,742);
}
);
shapes = (
{
closed = 1;
nodes = (
(268,714,o),
(113,658,o),
(113,522,cs),
(113,458,o),
(157,409,o),
(226,394,c),
(132,353,o),
(34,273,o),
(34,168,cs),
(34,59,o),
(119,-11,o),
(226,-11,cs),
(358,-11,o),
(471,76,o),
(532,177,c),
(513,194,l),
(475,132,o),
(375,64,o),
(268,64,cs),
(181,64,o),
(131,125,o),
(131,203,cs),
(131,320,o),
(267,394,o),
(356,421,c),
(348,447,l),
(338,441,o),
(322,441,o),
(306,441,cs),
(238,441,o),
(163,494,o),
(163,558,cs),
(163,625,o),
(236,670,o),
(306,670,cs),
(363,670,o),
(401,635,o),
(431,609,c),
(482,657,l),
(449,694,o),
(411,714,o),
(364,714,cs)
);
},
{
closed = 1;
nodes = (
(192,811,l),
(218,791,l),
(297,880,l),
(407,776,l),
(457,829,l),
(322,957,l)
);
}
);
};
layerId = "E777F328-EA17-4AE7-9EBA-8002E537BA4F";
name = Light;
shapes = (
{
ref = E;
},
{
pos = (122,22);
ref = circumflexcomb.case;
}
);
width = 541;
},
{
background = {
anchors = (
{
name = bottom;
pos = (266,0);
},
{
name = ogonek;
pos = (379,5);
},
{
name = top;
pos = (315,742);
}
);
shapes = (
{
closed = 1;
nodes = (
(208,730,o),
(86,643,o),
(86,520,cs),
(86,463,o),
(125,402,o),
(181,383,c),
(96,341,o),
(9,267,o),
(9,169,cs),
(9,64,o),
(83,-11,o),
(225,-11,cs),
(364,-11,o),
(481,88,o),
(542,196,c),
(501,229,l),
(463,154,o),
(379,77,o),
(281,77,cs),
(218,77,o),
(181,132,o),
(181,203,cs),
(181,325,o),
(293,394,o),
(401,427,c),
(391,464,l),
(366,455,o),
(343,451,o),
(322,451,cs),
(258,451,o),
(214,492,o),
(214,570,cs),
(214,634,o),
(260,678,o),
(306,678,cs),
(343,678,o),
(379,653,o),
(405,590,c),
(520,652,l),
(481,702,o),
(414,730,o),
(348,730,cs)
);
},
{
closed = 1;
nodes = (
(160,754,l),
(199,724,l),
(261,802,l),
(378,720,l),
(438,801,l),
(285,909,l)
);
}
);
};
layerId = "39185045-6A8C-415A-8312-7B8F11386A4C";
name = Regular;
shapes = (
{
ref = E;
},
{
pos = (91,22);
ref = circumflexcomb.case;
}
);
width = 532;
}
);
unicode = 202;
},
{
color = 6;
glyphname = Edieresis;
kernLeft = H;
kernRight = E;
lastChange = "2023-01-27 11:42:07 +0000";
layers = (
{
background = {
anchors = (
{
name = bottom;
pos = (271,0);
},
{
name = ogonek;
pos = (341,5);
},
{
name = top;
pos = (324,742);
}
);
shapes = (
{
closed = 1;
nodes = (
(268,714,o),
(113,658,o),
(113,522,cs),
(113,458,o),
(157,409,o),
(226,394,c),
(132,353,o),
(34,273,o),
(34,168,cs),
(34,59,o),
(119,-11,o),
(226,-11,cs),
(358,-11,o),
(471,76,o),
(532,177,c),
(513,194,l),
(475,132,o),
(375,64,o),
(268,64,cs),
(181,64,o),
(131,125,o),
(131,203,cs),
(131,320,o),
(267,394,o),
(356,421,c),
(348,447,l),
(338,441,o),
(322,441,o),
(306,441,cs),
(238,441,o),
(163,494,o),
(163,558,cs),
(163,625,o),
(236,670,o),
(306,670,cs),
(363,670,o),
(401,635,o),
(431,609,c),
(482,657,l),
(449,694,o),
(411,714,o),
(364,714,cs)
);
},
{
closed = 1;
nodes = (
(381,932,o),
(355,906,o),
(355,876,cs),
(355,844,o),
(381,820,o),
(411,820,cs),
(443,820,o),
(467,844,o),
(467,876,cs),
(467,906,o),
(443,932,o),
(411,932,cs)
);
},
{
closed = 1;
nodes = (
(206,932,o),
(181,906,o),
(181,876,cs),
(181,844,o),
(206,820,o),
(236,820,cs),
(267,820,o),
(293,844,o),
(293,876,cs),
(293,906,o),
(267,932,o),
(236,932,cs)
);
}
);
};
layerId = "E777F328-EA17-4AE7-9EBA-8002E537BA4F";
name = Light;
shapes = (
{
ref = E;
},
{
pos = (151,22);
ref = dieresiscomb.case;
}
);
width = 541;
},
{
background = {
anchors = (
{
name = bottom;
pos = (266,0);
},
{
name = ogonek;
pos = (379,5);
},
{
name = top;
pos = (315,742);
}
);
shapes = (
{
closed = 1;
nodes = (
(208,730,o),
(86,643,o),
(86,520,cs),
(86,463,o),
(125,402,o),
(181,383,c),
(96,341,o),
(9,267,o),
(9,169,cs),
(9,64,o),
(83,-11,o),
(225,-11,cs),
(364,-11,o),
(481,88,o),
(542,196,c),
(501,229,l),
(463,154,o),
(379,77,o),
(281,77,cs),
(218,77,o),
(181,132,o),
(181,203,cs),
(181,325,o),
(293,394,o),
(401,427,c),
(391,464,l),
(366,455,o),
(343,451,o),
(322,451,cs),
(258,451,o),
(214,492,o),
(214,570,cs),
(214,634,o),
(260,678,o),
(306,678,cs),
(343,678,o),
(379,653,o),
(405,590,c),
(520,652,l),
(481,702,o),
(414,730,o),
(348,730,cs)
);
},
{
closed = 1;
nodes = (
(349,902,o),
(317,868,o),
(317,830,cs),
(317,791,o),
(349,760,o),
(387,760,cs),
(427,760,o),
(459,791,o),
(459,830,cs),
(459,868,o),
(427,902,o),
(387,902,cs)
);
},
{
closed = 1;
nodes = (
(165,902,o),
(132,868,o),
(132,830,cs),
(132,791,o),
(165,760,o),
(204,760,cs),
(243,760,o),
(274,791,o),
(274,830,cs),
(274,868,o),
(243,902,o),
(204,902,cs)
);
}
);
};
layerId = "39185045-6A8C-415A-8312-7B8F11386A4C";
name = Regular;
shapes = (
{
ref = E;
},
{
pos = (102,22);
ref = dieresiscomb.case;
}
);
width = 532;
}
);
unicode = 203;
},
{
color = 6;
glyphname = Edotaccent;
kernLeft = H;
kernRight = E;
lastChange = "2023-01-27 11:42:51 +0000";
layers = (
{
background = {
anchors = (
{
name = bottom;
pos = (271,0);
},
{
name = ogonek;
pos = (341,5);
},
{
name = top;
pos = (324,742);
}
);
shapes = (
{
closed = 1;
nodes = (
(268,714,o),
(113,658,o),
(113,522,cs),
(113,458,o),
(157,409,o),
(226,394,c),
(132,353,o),
(34,273,o),
(34,168,cs),
(34,59,o),
(119,-11,o),
(226,-11,cs),
(358,-11,o),
(471,76,o),
(532,177,c),
(513,194,l),
(475,132,o),
(375,64,o),
(268,64,cs),
(181,64,o),
(131,125,o),
(131,203,cs),
(131,320,o),
(267,394,o),
(356,421,c),
(348,447,l),
(338,441,o),
(322,441,o),
(306,441,cs),
(238,441,o),
(163,494,o),
(163,558,cs),
(163,625,o),
(236,670,o),
(306,670,cs),
(363,670,o),
(401,635,o),
(431,609,c),
(482,657,l),
(449,694,o),
(411,714,o),
(364,714,cs)
);
},
{
closed = 1;
nodes = (
(292,934,o),
(267,908,o),
(267,876,cs),
(267,846,o),
(292,820,o),
(324,820,cs),
(353,820,o),
(380,846,o),
(380,876,cs),
(380,908,o),
(353,934,o),
(324,934,cs)
);
}
);
};
layerId = "E777F328-EA17-4AE7-9EBA-8002E537BA4F";
name = Light;
shapes = (
{
ref = E;
},
{
pos = (197,19);
ref = dotaccentcomb.case;
}
);
width = 541;
},
{
background = {
anchors = (
{
name = bottom;
pos = (266,0);
},
{
name = ogonek;
pos = (379,5);
},
{
name = top;
pos = (315,742);
}
);
shapes = (
{
closed = 1;
nodes = (
(208,730,o),
(86,643,o),
(86,520,cs),
(86,463,o),
(125,402,o),
(181,383,c),
(96,341,o),
(9,267,o),
(9,169,cs),
(9,64,o),
(83,-11,o),
(225,-11,cs),
(364,-11,o),
(481,88,o),
(542,196,c),
(501,229,l),
(463,154,o),
(379,77,o),
(281,77,cs),
(218,77,o),
(181,132,o),
(181,203,cs),
(181,325,o),
(293,394,o),
(401,427,c),
(391,464,l),
(366,455,o),
(343,451,o),
(322,451,cs),
(258,451,o),
(214,492,o),
(214,570,cs),
(214,634,o),
(260,678,o),
(306,678,cs),
(343,678,o),
(379,653,o),
(405,590,c),
(520,652,l),
(481,702,o),
(414,730,o),
(348,730,cs)
);
},
{
closed = 1;
nodes = (
(265,906,o),
(231,871,o),
(231,830,cs),
(231,789,o),
(265,755,o),
(306,755,cs),
(346,755,o),
(380,789,o),
(380,830,cs),
(380,871,o),
(346,906,o),
(306,906,cs)
);
}
);
};
layerId = "39185045-6A8C-415A-8312-7B8F11386A4C";
name = Regular;
shapes = (
{
ref = E;
},
{
pos = (155,22);
ref = dotaccentcomb.case;
}
);
width = 532;
}
);
unicode = 278;
},
{
color = 6;
glyphname = Egrave;
kernLeft = H;
kernRight = E;
lastChange = "2023-01-27 11:44:59 +0000";
layers = (
{
background = {
anchors = (
{
name = bottom;
pos = (271,0);
},
{
name = ogonek;
pos = (341,5);
},
{
name = top;
pos = (324,742);
}
);
shapes = (
{
closed = 1;
nodes = (
(268,714,o),
(113,658,o),
(113,522,cs),
(113,458,o),
(157,409,o),
(226,394,c),
(132,353,o),
(34,273,o),
(34,168,cs),
(34,59,o),
(119,-11,o),
(226,-11,cs),
(358,-11,o),
(471,76,o),
(532,177,c),
(513,194,l),
(475,132,o),
(375,64,o),
(268,64,cs),
(181,64,o),
(131,125,o),
(131,203,cs),
(131,320,o),
(267,394,o),
(356,421,c),
(348,447,l),
(338,441,o),
(322,441,o),
(306,441,cs),
(238,441,o),
(163,494,o),
(163,558,cs),
(163,625,o),
(236,670,o),
(306,670,cs),
(363,670,o),
(401,635,o),
(431,609,c),
(482,657,l),
(449,694,o),
(411,714,o),
(364,714,cs)
);
},
{
closed = 1;
nodes = (
(224,869,l),
(282,935,l),
(398,796,l),
(385,778,l)
);
}
);
};
layerId = "E777F328-EA17-4AE7-9EBA-8002E537BA4F";
name = Light;
shapes = (
{
ref = E;
},
{
pos = (154,22);
ref = gravecomb.case;
}
);
width = 541;
},
{
background = {
anchors = (
{
name = bottom;
pos = (266,0);
},
{
name = ogonek;
pos = (379,5);
},
{
name = top;
pos = (315,742);
}
);
shapes = (
{
closed = 1;
nodes = (
(208,730,o),
(86,643,o),
(86,520,cs),
(86,463,o),
(125,402,o),
(181,383,c),
(96,341,o),
(9,267,o),
(9,169,cs),
(9,64,o),
(83,-11,o),
(225,-11,cs),
(364,-11,o),
(481,88,o),
(542,196,c),
(501,229,l),
(463,154,o),
(379,77,o),
(281,77,cs),
(218,77,o),
(181,132,o),
(181,203,cs),
(181,325,o),
(293,394,o),
(401,427,c),
(391,464,l),
(366,455,o),
(343,451,o),
(322,451,cs),
(258,451,o),
(214,492,o),
(214,570,cs),
(214,634,o),
(260,678,o),
(306,678,cs),
(343,678,o),
(379,653,o),
(405,590,c),
(520,652,l),
(481,702,o),
(414,730,o),
(348,730,cs)
);
},
{
closed = 1;
nodes = (
(189,796,l),
(258,909,l),
(414,764,l),
(392,724,l)
);
}
);
};
layerId = "39185045-6A8C-415A-8312-7B8F11386A4C";
name = Regular;
shapes = (
{
ref = E;
},
{
pos = (109,22);
ref = gravecomb.case;
}
);
width = 532;
}
);
unicode = 200;
},
{
color = 6;
glyphname = Emacron;
kernLeft = H;
kernRight = E;
lastChange = "2023-01-27 13:15:20 +0000";
layers = (
{
background = {
anchors = (
{
name = bottom;
pos = (271,0);
},
{
name = ogonek;
pos = (341,5);
},
{
name = top;
pos = (324,742);
}
);
shapes = (
{
closed = 1;
nodes = (
(268,714,o),
(113,658,o),
(113,522,cs),
(113,458,o),
(157,409,o),
(226,394,c),
(132,353,o),
(34,273,o),
(34,168,cs),
(34,59,o),
(119,-11,o),
(226,-11,cs),
(358,-11,o),
(471,76,o),
(532,177,c),
(513,194,l),
(475,132,o),
(375,64,o),
(268,64,cs),
(181,64,o),
(131,125,o),
(131,203,cs),
(131,320,o),
(267,394,o),
(356,421,c),
(348,447,l),
(338,441,o),
(322,441,o),
(306,441,cs),
(238,441,o),
(163,494,o),
(163,558,cs),
(163,625,o),
(236,670,o),
(306,670,cs),
(363,670,o),
(401,635,o),
(431,609,c),
(482,657,l),
(449,694,o),
(411,714,o),
(364,714,cs)
);
},
{
closed = 1;
nodes = (
(204,842,l),
(240,906,l),
(445,906,l),
(411,842,l)
);
}
);
};
layerId = "E777F328-EA17-4AE7-9EBA-8002E537BA4F";
name = Light;
shapes = (
{
ref = E;
},
{
pos = (204,247);
ref = macroncomb.case;
}
);
width = 541;
},
{
background = {
anchors = (
{
name = bottom;
pos = (266,0);
},
{
name = ogonek;
pos = (379,5);
},
{
name = top;
pos = (315,742);
}
);
shapes = (
{
closed = 1;
nodes = (
(208,730,o),
(86,643,o),
(86,520,cs),
(86,463,o),
(125,402,o),
(181,383,c),
(96,341,o),
(9,267,o),
(9,169,cs),
(9,64,o),
(83,-11,o),
(225,-11,cs),
(364,-11,o),
(481,88,o),
(542,196,c),
(501,229,l),
(463,154,o),
(379,77,o),
(281,77,cs),
(218,77,o),
(181,132,o),
(181,203,cs),
(181,325,o),
(293,394,o),
(401,427,c),
(391,464,l),
(366,455,o),
(343,451,o),
(322,451,cs),
(258,451,o),
(214,492,o),
(214,570,cs),
(214,634,o),
(260,678,o),
(306,678,cs),
(343,678,o),
(379,653,o),
(405,590,c),
(520,652,l),
(481,702,o),
(414,730,o),
(348,730,cs)
);
},
{
closed = 1;
nodes = (
(163,784,l),
(200,877,l),
(438,877,l),
(401,784,l)
);
}
);
};
layerId = "39185045-6A8C-415A-8312-7B8F11386A4C";
name = Regular;
shapes = (
{
ref = E;
},
{
pos = (158,247);
ref = macroncomb.case;
}
);
width = 532;
}
);
unicode = 274;
},
{
color = 6;
glyphname = Eogonek;
kernLeft = H;
kernRight = E;
lastChange = "2023-01-27 12:50:22 +0000";
layers = (
{
background = {
anchors = (
{
name = bottom;
pos = (271,0);
},
{
name = ogonek;
pos = (341,5);
},
{
name = top;
pos = (324,742);
}
);
shapes = (
{
closed = 1;
nodes = (
(268,714,o),
(113,658,o),
(113,522,cs),
(113,458,o),
(157,409,o),
(226,394,c),
(132,353,o),
(34,273,o),
(34,168,cs),
(34,59,o),
(119,-11,o),
(226,-11,cs),
(358,-11,o),
(471,76,o),
(532,177,c),
(513,194,l),
(475,132,o),
(375,64,o),
(268,64,cs),
(181,64,o),
(131,125,o),
(131,203,cs),
(131,320,o),
(267,394,o),
(356,421,c),
(348,447,l),
(338,441,o),
(322,441,o),
(306,441,cs),
(238,441,o),
(163,494,o),
(163,558,cs),
(163,625,o),
(236,670,o),
(306,670,cs),
(363,670,o),
(401,635,o),
(431,609,c),
(482,657,l),
(449,694,o),
(411,714,o),
(364,714,cs)
);
},
{
closed = 1;
nodes = (
(221,-13,o),
(170,-60,o),
(170,-122,cs),
(170,-174,o),
(214,-197,o),
(249,-197,cs),
(287,-197,o),
(320,-166,o),
(341,-128,c),
(324,-114,l),
(308,-134,o),
(292,-140,o),
(276,-140,cs),
(244,-140,o),
(229,-120,o),
(229,-92,cs),
(229,-60,o),
(249,-23,o),
(278,2,c),
(265,15,l)
);
}
);
};
layerId = "E777F328-EA17-4AE7-9EBA-8002E537BA4F";
name = Light;
shapes = (
{
ref = E;
},
{
pos = (100,1);
ref = ogonekcomb.case;
}
);
width = 541;
},
{
background = {
anchors = (
{
name = bottom;
pos = (266,0);
},
{
name = ogonek;
pos = (379,5);
},
{
name = top;
pos = (315,742);
}
);
shapes = (
{
closed = 1;
nodes = (
(208,730,o),
(86,643,o),
(86,520,cs),
(86,463,o),
(125,402,o),
(181,383,c),
(96,341,o),
(9,267,o),
(9,169,cs),
(9,64,o),
(83,-11,o),
(225,-11,cs),
(364,-11,o),
(481,88,o),
(542,196,c),
(501,229,l),
(463,154,o),
(379,77,o),
(281,77,cs),
(218,77,o),
(181,132,o),
(181,203,cs),
(181,325,o),
(293,394,o),
(401,427,c),
(391,464,l),
(366,455,o),
(343,451,o),
(322,451,cs),
(258,451,o),
(214,492,o),
(214,570,cs),
(214,634,o),
(260,678,o),
(306,678,cs),
(343,678,o),
(379,653,o),
(405,590,c),
(520,652,l),
(481,702,o),
(414,730,o),
(348,730,cs)
);
},
{
closed = 1;
nodes = (
(227,-14,o),
(176,-60,o),
(176,-120,cs),
(176,-178,o),
(220,-197,o),
(256,-197,cs),
(298,-197,o),
(334,-168,o),
(359,-126,c),
(340,-110,l),
(323,-132,o),
(304,-137,o),
(290,-137,cs),
(262,-137,o),
(245,-122,o),
(245,-87,cs),
(245,-67,o),
(255,-37,o),
(286,1,c),
(273,14,l)
);
}
);
};
layerId = "39185045-6A8C-415A-8312-7B8F11386A4C";
name = Regular;
shapes = (
{
ref = E;
},
{
pos = (54,0);
ref = ogonekcomb.case;
}
);
width = 532;
}
);
unicode = 280;
},
{
color = 6;
glyphname = F;
kernLeft = H;
kernRight = F;
lastChange = "2023-01-27 11:36:36 +0000";
layers = (
{
anchors = (
{
name = bottom;
pos = (295,0);
},
{
name = top;
pos = (295,720);
}
);
background = {
shapes = (
{
closed = 1;
nodes = (
(559,696,o),
(421,697,o),
(358,697,cs),
(214,697,ls),
(141,697,o),
(62,655,o),
(-7,572,c),
(9,559,l),
(41,595,o),
(74,614,o),
(131,614,c),
(269,613,l),
(231,577,o),
(186,520,o),
(186,455,cs),
(186,25,ls),
(186,-5,o),
(177,-48,o),
(156,-71,c),
(176,-91,l),
(234,-42,o),
(266,2,o),
(266,115,c),
(266,513,ls),
(266,554,o),
(278,580,o),
(306,613,c),
(426,613,ls),
(483,613,o),
(570,665,o),
(613,728,c),
(605,737,l)
);
},
{
closed = 1;
nodes = (
(469,391,o),
(436,366,o),
(351,366,cs),
(122,366,l),
(80,311,l),
(332,311,ls),
(409,311,o),
(468,336,o),
(509,397,c),
(496,410,l)
);
}
);
};
layerId = "E777F328-EA17-4AE7-9EBA-8002E537BA4F";
name = Light;
shapes = (
{
closed = 1;
nodes = (
(559,696,o),
(421,697,o),
(358,697,cs),
(214,697,ls),
(141,697,o),
(62,655,o),
(-7,572,c),
(9,559,l),
(41,595,o),
(74,614,o),
(131,614,c),
(269,613,l),
(231,577,o),
(186,520,o),
(186,455,cs),
(186,25,ls),
(186,-5,o),
(177,-48,o),
(156,-71,c),
(176,-91,l),
(234,-42,o),
(266,2,o),
(266,115,c),
(266,513,ls),
(266,554,o),
(278,580,o),
(306,613,c),
(426,613,ls),
(483,613,o),
(570,665,o),
(613,728,c),
(605,737,l)
);
},
{
closed = 1;
nodes = (
(469,391,o),
(436,366,o),
(351,366,cs),
(122,366,l),
(80,311,l),
(332,311,ls),
(409,311,o),
(468,336,o),
(509,397,c),
(496,410,l)
);
}
);
width = 590;
},
{
anchors = (
{
name = bottom;
pos = (295,0);
},
{
name = top;
pos = (295,720);
}
);
background = {
shapes = (
{
closed = 1;
nodes = (
(570,720,o),
(518,711,o),
(486,711,cs),
(179,711,ls),
(71,711,o),
(18,630,o),
(-21,570,c),
(4,544,l),
(39,586,o),
(79,608,o),
(115,608,cs),
(251,608,l),
(205,569,o),
(150,513,o),
(150,455,cs),
(150,29,ls),
(150,-5,o),
(149,-46,o),
(128,-69,c),
(151,-96,l),
(253,-41,o),
(306,31,o),
(306,117,cs),
(306,513,ls),
(306,553,o),
(319,579,o),
(341,608,c),
(397,608,ls),
(519,608,o),
(588,665,o),
(625,725,c),
(605,749,l)
);
},
{
closed = 1;
nodes = (
(460,384,o),
(406,375,o),
(360,375,cs),
(125,375,l),
(69,303,l),
(329,303,ls),
(410,303,o),
(477,328,o),
(518,391,c),
(498,414,l)
);
}
);
};
layerId = "39185045-6A8C-415A-8312-7B8F11386A4C";
name = Regular;
shapes = (
{
closed = 1;
nodes = (
(570,720,o),
(518,711,o),
(486,711,cs),
(179,711,ls),
(71,711,o),
(18,630,o),
(-21,570,c),
(4,544,l),
(39,586,o),
(79,608,o),
(115,608,cs),
(251,608,l),
(205,569,o),
(150,513,o),
(150,455,cs),
(150,29,ls),
(150,-5,o),
(149,-46,o),
(128,-69,c),
(151,-96,l),
(253,-41,o),
(306,31,o),
(306,117,cs),
(306,513,ls),
(306,553,o),
(319,579,o),
(341,608,c),
(397,608,ls),
(519,608,o),
(588,665,o),
(625,725,c),
(605,749,l)
);
},
{
closed = 1;
nodes = (
(460,384,o),
(406,375,o),
(360,375,cs),
(125,375,l),
(69,303,l),
(329,303,ls),
(410,303,o),
(477,328,o),
(518,391,c),
(498,414,l)
);
}
);
width = 590;
}
);
unicode = 70;
},
{
color = 6;
glyphname = G;
kernLeft = O;
kernRight = G;
lastChange = "2023-01-27 11:29:29 +0000";
layers = (
{
anchors = (
{
name = bottom;
pos = (320,0);
},
{
name = top;
pos = (370,742);
}
);
background = {
anchors = (
{
name = bottom;
pos = (320,0);
},
{
name = top;
pos = (370,742);
}
);
shapes = (
{
closed = 1;
nodes = (
(213,725,o),
(44,525,o),
(44,257,cs),
(44,94,o),
(131,-8,o),
(271,-8,cs),
(370,-8,o),
(472,74,o),
(500,208,c),
(506,208,l),
(506,-106,l),
(581,-71,l),
(581,330,l),
(498,299,l),
(494,183,o),
(401,69,o),
(304,69,cs),
(186,69,o),
(135,171,o),
(135,328,cs),
(135,525,o),
(239,671,o),
(385,671,cs),
(439,671,o),
(474,643,o),
(474,599,cs),
(474,544,o),
(418,485,o),
(347,467,c),
(355,451,l),
(460,460,o),
(569,551,o),
(569,632,cs),
(569,689,o),
(513,725,o),
(436,725,cs)
);
}
);
};
layerId = "E777F328-EA17-4AE7-9EBA-8002E537BA4F";
name = Light;
shapes = (
{
closed = 1;
nodes = (
(213,725,o),
(44,525,o),
(44,257,cs),
(44,94,o),
(131,-8,o),
(271,-8,cs),
(370,-8,o),
(472,74,o),
(500,208,c),
(506,208,l),
(506,-106,l),
(581,-71,l),
(581,330,l),
(498,299,l),
(494,183,o),
(401,69,o),
(304,69,cs),
(186,69,o),
(135,171,o),
(135,328,cs),
(135,525,o),
(239,671,o),
(385,671,cs),
(439,671,o),
(474,643,o),
(474,599,cs),
(474,544,o),
(418,485,o),
(347,467,c),
(355,451,l),
(460,460,o),
(569,551,o),
(569,632,cs),
(569,689,o),
(513,725,o),
(436,725,cs)
);
}
);
width = 658;
},
{
anchors = (
{
name = bottom;
pos = (335,0);
},
{
name = top;
pos = (384,742);
}
);
background = {
anchors = (
{
name = bottom;
pos = (335,0);
},
{
name = top;
pos = (384,742);
}
);
shapes = (
{
closed = 1;
nodes = (
(212,730,o),
(28,517,o),
(28,257,cs),
(28,103,o),
(117,-9,o),
(241,-9,cs),
(343,-9,o),
(419,48,o),
(457,154,c),
(463,154,l),
(463,-112,l),
(619,-68,l),
(619,343,l),
(463,299,l),
(463,192,o),
(392,88,o),
(317,88,cs),
(246,88,o),
(198,183,o),
(198,329,cs),
(198,525,o),
(271,670,o),
(370,670,cs),
(406,670,o),
(430,641,o),
(430,600,cs),
(430,545,o),
(375,489,o),
(306,471,c),
(324,437,l),
(457,441,o),
(588,540,o),
(588,634,cs),
(588,690,o),
(526,730,o),
(437,730,cs)
);
}
);
};
layerId = "39185045-6A8C-415A-8312-7B8F11386A4C";
name = Regular;
shapes = (
{
closed = 1;
nodes = (
(212,730,o),
(28,517,o),
(28,257,cs),
(28,103,o),
(117,-9,o),
(241,-9,cs),
(343,-9,o),
(419,48,o),
(457,154,c),
(463,154,l),
(463,-112,l),
(619,-68,l),
(619,343,l),
(463,299,l),
(463,192,o),
(392,88,o),
(317,88,cs),
(246,88,o),
(198,183,o),
(198,329,cs),
(198,525,o),
(271,670,o),
(370,670,cs),
(406,670,o),
(430,641,o),
(430,600,cs),
(430,545,o),
(375,489,o),
(306,471,c),
(324,437,l),
(457,441,o),
(588,540,o),
(588,634,cs),
(588,690,o),
(526,730,o),
(437,730,cs)
);
}
);
width = 668;
}
);
unicode = 71;
},
{
color = 6;
glyphname = Gbreve;
kernLeft = O;
kernRight = G;
lastChange = "2023-01-27 12:45:59 +0000";
layers = (
{
background = {
anchors = (
{
name = bottom;
pos = (320,0);
},
{
name = top;
pos = (370,742);
}
);
shapes = (
{
closed = 1;
nodes = (
(213,725,o),
(44,525,o),
(44,257,cs),
(44,94,o),
(131,-8,o),
(271,-8,cs),
(370,-8,o),
(472,74,o),
(500,208,c),
(506,208,l),
(506,-106,l),
(581,-71,l),
(581,330,l),
(498,299,l),
(494,183,o),
(401,69,o),
(304,69,cs),
(186,69,o),
(135,171,o),
(135,328,cs),
(135,525,o),
(239,671,o),
(385,671,cs),
(439,671,o),
(474,643,o),
(474,599,cs),
(474,544,o),
(418,485,o),
(347,467,c),
(355,451,l),
(460,460,o),
(569,551,o),
(569,632,cs),
(569,689,o),
(513,725,o),
(436,725,cs)
);
},
{
closed = 1;
nodes = (
(318,946,l),
(308,932,o),
(304,913,o),
(304,897,cs),
(304,861,o),
(324,804,o),
(368,804,cs),
(395,804,o),
(414,825,o),
(414,852,cs),
(414,877,o),
(400,903,o),
(383,919,c),
(447,959,l),
(467,938,o),
(475,913,o),
(475,885,cs),
(475,818,o),
(425,775,o),
(358,775,cs),
(304,775,o),
(264,810,o),
(264,865,cs),
(264,897,o),
(281,937,o),
(304,957,c)
);
}
);
};
layerId = "E777F328-EA17-4AE7-9EBA-8002E537BA4F";
name = Light;
shapes = (
{
ref = G;
},
{
pos = (184,22);
ref = brevecomb.case;
}
);
width = 658;
},
{
background = {
anchors = (
{
name = bottom;
pos = (335,0);
},
{
name = top;
pos = (384,742);
}
);
shapes = (
{
closed = 1;
nodes = (
(212,730,o),
(28,517,o),
(28,257,cs),
(28,103,o),
(117,-9,o),
(241,-9,cs),
(343,-9,o),
(419,48,o),
(457,154,c),
(463,154,l),
(463,-112,l),
(619,-68,l),
(619,343,l),
(463,299,l),
(463,192,o),
(392,88,o),
(317,88,cs),
(246,88,o),
(198,183,o),
(198,329,cs),
(198,525,o),
(271,670,o),
(370,670,cs),
(406,670,o),
(430,641,o),
(430,600,cs),
(430,545,o),
(375,489,o),
(306,471,c),
(324,437,l),
(457,441,o),
(588,540,o),
(588,634,cs),
(588,690,o),
(526,730,o),
(437,730,cs)
);
},
{
closed = 1;
nodes = (
(330,902,l),
(325,889,o),
(320,875,o),
(320,849,cs),
(320,816,o),
(335,766,o),
(367,766,cs),
(386,766,o),
(400,784,o),
(400,809,cs),
(400,837,o),
(388,862,o),
(374,874,c),
(451,923,l),
(477,896,o),
(489,867,o),
(489,841,cs),
(489,774,o),
(433,729,o),
(360,729,cs),
(299,729,o),
(253,765,o),
(253,821,cs),
(253,862,o),
(270,894,o),
(305,920,c)
);
}
);
};
layerId = "39185045-6A8C-415A-8312-7B8F11386A4C";
name = Regular;
shapes = (
{
ref = G;
},
{
pos = (182,22);
ref = brevecomb.case;
}
);
width = 668;
}
);
unicode = 286;
},
{
color = 6;
glyphname = Gcircumflex;
kernLeft = O;
kernRight = G;
lastChange = "2023-01-27 12:43:53 +0000";
layers = (
{
background = {
anchors = (
{
name = bottom;
pos = (320,0);
},
{
name = top;
pos = (370,742);
}
);
shapes = (
{
closed = 1;
nodes = (
(213,725,o),
(44,525,o),
(44,257,cs),
(44,94,o),
(131,-8,o),
(271,-8,cs),
(370,-8,o),
(472,74,o),
(500,208,c),
(506,208,l),
(506,-106,l),
(581,-71,l),
(581,330,l),
(498,299,l),
(494,183,o),
(401,69,o),
(304,69,cs),
(186,69,o),
(135,171,o),
(135,328,cs),
(135,525,o),
(239,671,o),
(385,671,cs),
(439,671,o),
(474,643,o),
(474,599,cs),
(474,544,o),
(418,485,o),
(347,467,c),
(355,451,l),
(460,460,o),
(569,551,o),
(569,632,cs),
(569,689,o),
(513,725,o),
(436,725,cs)
);
},
{
closed = 1;
nodes = (
(238,811,l),
(264,791,l),
(343,880,l),
(453,776,l),
(503,829,l),
(368,957,l)
);
}
);
};
layerId = "E777F328-EA17-4AE7-9EBA-8002E537BA4F";
name = Light;
shapes = (
{
ref = G;
},
{
pos = (168,22);
ref = circumflexcomb.case;
}
);
width = 658;
},
{
background = {
anchors = (
{
name = bottom;
pos = (335,0);
},
{
name = top;
pos = (384,742);
}
);
shapes = (
{
closed = 1;
nodes = (
(212,730,o),
(28,517,o),
(28,257,cs),
(28,103,o),
(117,-9,o),
(241,-9,cs),
(343,-9,o),
(419,48,o),
(457,154,c),
(463,154,l),
(463,-112,l),
(619,-68,l),
(619,343,l),
(463,299,l),
(463,192,o),
(392,88,o),
(317,88,cs),
(246,88,o),
(198,183,o),
(198,329,cs),
(198,525,o),
(271,670,o),
(370,670,cs),
(406,670,o),
(430,641,o),
(430,600,cs),
(430,545,o),
(375,489,o),
(306,471,c),
(324,437,l),
(457,441,o),
(588,540,o),
(588,634,cs),
(588,690,o),
(526,730,o),
(437,730,cs)
);
},
{
closed = 1;
nodes = (
(229,754,l),
(268,724,l),
(330,802,l),
(447,720,l),
(507,801,l),
(354,909,l)
);
}
);
};
layerId = "39185045-6A8C-415A-8312-7B8F11386A4C";
name = Regular;
shapes = (
{
ref = G;
},
{
pos = (160,22);
ref = circumflexcomb.case;
}
);
width = 668;
}
);
unicode = 284;
},
{
color = 6;
glyphname = Gcommaaccent;
kernLeft = O;
kernRight = G;
lastChange = "2023-01-27 11:36:49 +0000";
layers = (
{
background = {
anchors = (
{
name = bottom;
pos = (320,0);
},
{
name = top;
pos = (370,742);
}
);
shapes = (
{
closed = 1;
nodes = (
(213,725,o),
(44,525,o),
(44,257,cs),
(44,94,o),
(131,-8,o),
(271,-8,cs),
(370,-8,o),
(472,74,o),
(500,208,c),
(506,208,l),
(506,-106,l),
(581,-71,l),
(581,330,l),
(498,299,l),
(494,183,o),
(401,69,o),
(304,69,cs),
(186,69,o),
(135,171,o),
(135,328,cs),
(135,525,o),
(239,671,o),
(385,671,cs),
(439,671,o),
(474,643,o),
(474,599,cs),
(474,544,o),
(418,485,o),
(347,467,c),
(355,451,l),
(460,460,o),
(569,551,o),
(569,632,cs),
(569,689,o),
(513,725,o),
(436,725,cs)
);
},
{
closed = 1;
nodes = (
(372,-141,o),
(338,-179,o),
(299,-203,c),
(283,-189,l),
(294,-177,o),
(304,-161,o),
(308,-146,c),
(285,-140,o),
(269,-119,o),
(269,-95,cs),
(269,-66,o),
(293,-42,o),
(320,-42,cs),
(348,-42,o),
(372,-66,o),
(372,-95,cs)
);
}
);
};
layerId = "E777F328-EA17-4AE7-9EBA-8002E537BA4F";
name = Light;
shapes = (
{
ref = G;
},
{
pos = (243,0);
ref = commaaccentcomb;
}
);
width = 658;
},
{
background = {
anchors = (
{
name = bottom;
pos = (335,0);
},
{
name = top;
pos = (384,742);
}
);
shapes = (
{
closed = 1;
nodes = (
(212,730,o),
(28,517,o),
(28,257,cs),
(28,103,o),
(117,-9,o),
(241,-9,cs),
(343,-9,o),
(419,48,o),
(457,154,c),
(463,154,l),
(463,-112,l),
(619,-68,l),
(619,343,l),
(463,299,l),
(463,192,o),
(392,88,o),
(317,88,cs),
(246,88,o),
(198,183,o),
(198,329,cs),
(198,525,o),
(271,670,o),
(370,670,cs),
(406,670,o),
(430,641,o),
(430,600,cs),
(430,545,o),
(375,489,o),
(306,471,c),
(324,437,l),
(457,441,o),
(588,540,o),
(588,634,cs),
(588,690,o),
(526,730,o),
(437,730,cs)
);
},
{
closed = 1;
nodes = (
(409,-185,o),
(362,-237,o),
(305,-269,c),
(282,-251,l),
(298,-236,o),
(314,-211,o),
(318,-191,c),
(284,-181,o),
(261,-151,o),
(261,-117,cs),
(261,-76,o),
(293,-42,o),
(335,-42,cs),
(376,-42,o),
(409,-76,o),
(409,-117,cs)
);
}
);
};
layerId = "39185045-6A8C-415A-8312-7B8F11386A4C";
name = Regular;
shapes = (
{
ref = G;
},
{
pos = (259,0);
ref = commaaccentcomb;
}
);
width = 668;
}
);
unicode = 290;
},
{
color = 6;
glyphname = Gdotaccent;
kernLeft = O;
kernRight = G;
lastChange = "2023-01-27 11:42:51 +0000";
layers = (
{
background = {
anchors = (
{
name = bottom;
pos = (320,0);
},
{
name = top;
pos = (370,742);
}
);
shapes = (
{
closed = 1;
nodes = (
(213,725,o),
(44,525,o),
(44,257,cs),
(44,94,o),
(131,-8,o),
(271,-8,cs),
(370,-8,o),
(472,74,o),
(500,208,c),
(506,208,l),
(506,-106,l),
(581,-71,l),
(581,330,l),
(498,299,l),
(494,183,o),
(401,69,o),
(304,69,cs),
(186,69,o),
(135,171,o),
(135,328,cs),
(135,525,o),
(239,671,o),
(385,671,cs),
(439,671,o),
(474,643,o),
(474,599,cs),
(474,544,o),
(418,485,o),
(347,467,c),
(355,451,l),
(460,460,o),
(569,551,o),
(569,632,cs),
(569,689,o),
(513,725,o),
(436,725,cs)
);
},
{
closed = 1;
nodes = (
(338,934,o),
(313,908,o),
(313,876,cs),
(313,846,o),
(338,820,o),
(370,820,cs),
(399,820,o),
(426,846,o),
(426,876,cs),
(426,908,o),
(399,934,o),
(370,934,cs)
);
}
);
};
layerId = "E777F328-EA17-4AE7-9EBA-8002E537BA4F";
name = Light;
shapes = (
{
ref = G;
},
{
pos = (243,19);
ref = dotaccentcomb.case;
}
);
width = 658;
},
{
background = {
anchors = (
{
name = bottom;
pos = (335,0);
},
{
name = top;
pos = (384,742);
}
);
shapes = (
{
closed = 1;
nodes = (
(212,730,o),
(28,517,o),
(28,257,cs),
(28,103,o),
(117,-9,o),
(241,-9,cs),
(343,-9,o),
(419,48,o),
(457,154,c),
(463,154,l),
(463,-112,l),
(619,-68,l),
(619,343,l),
(463,299,l),
(463,192,o),
(392,88,o),
(317,88,cs),
(246,88,o),
(198,183,o),
(198,329,cs),
(198,525,o),
(271,670,o),
(370,670,cs),
(406,670,o),
(430,641,o),
(430,600,cs),
(430,545,o),
(375,489,o),
(306,471,c),
(324,437,l),
(457,441,o),
(588,540,o),
(588,634,cs),
(588,690,o),
(526,730,o),
(437,730,cs)
);
},
{
closed = 1;
nodes = (
(334,906,o),
(300,871,o),
(300,830,cs),
(300,789,o),
(334,755,o),
(375,755,cs),
(415,755,o),
(449,789,o),
(449,830,cs),
(449,871,o),
(415,906,o),
(375,906,cs)
);
}
);
};
layerId = "39185045-6A8C-415A-8312-7B8F11386A4C";
name = Regular;
shapes = (
{
ref = G;
},
{
pos = (224,22);
ref = dotaccentcomb.case;
}
);
width = 668;
}
);
unicode = 288;
},
{
color = 6;
glyphname = H;
kernLeft = H;
kernRight = H;
lastChange = "2023-01-27 11:36:36 +0000";
layers = (
{
anchors = (
{
name = bottom;
pos = (329,0);
},
{
name = center;
pos = (332,370);
},
{
name = top;
pos = (351,742);
},
{
name = topleft;
pos = (20,720);
}
);
background = {
anchors = (
{
name = center;
pos = (332,370);
},
{
name = top;
pos = (351,742);
}
);
shapes = (
{
closed = 1;
nodes = (
(563,19,l),
(482,-13,l),
(482,280,l),
(185,280,l),
(185,19,l),
(104,-13,l),
(104,280,l),
(23,280,l),
(50,335,l),
(104,335,l),
(104,694,l),
(185,728,l),
(185,335,l),
(482,335,l),
(482,694,l),
(563,728,l)
);
}
);
};
layerId = "E777F328-EA17-4AE7-9EBA-8002E537BA4F";
name = Light;
shapes = (
{
closed = 1;
nodes = (
(563,19,l),
(482,-13,l),
(482,280,l),
(185,280,l),
(185,19,l),
(104,-13,l),
(104,280,l),
(23,280,l),
(50,335,l),
(104,335,l),
(104,694,l),
(185,728,l),
(185,335,l),
(482,335,l),
(482,694,l),
(563,728,l)
);
}
);
width = 657;
},
{
anchors = (
{
name = bottom;
pos = (331,0);
},
{
name = center;
pos = (332,370);
},
{
name = top;
pos = (351,742);
},
{
name = topleft;
pos = (20,720);
}
);
background = {
anchors = (
{
name = center;
pos = (332,370);
},
{
name = top;
pos = (351,742);
}
);
shapes = (
{
closed = 1;
nodes = (
(594,25,l),
(437,-21,l),
(437,264,l),
(236,264,l),
(236,25,l),
(80,-21,l),
(80,264,l),
(0,264,l),
(39,340,l),
(80,340,l),
(80,692,l),
(236,737,l),
(236,340,l),
(437,340,l),
(437,692,l),
(594,737,l)
);
}
);
};
layerId = "39185045-6A8C-415A-8312-7B8F11386A4C";
name = Regular;
shapes = (
{
closed = 1;
nodes = (
(594,25,l),
(437,-21,l),
(437,264,l),
(236,264,l),
(236,25,l),
(80,-21,l),
(80,264,l),
(0,264,l),
(39,340,l),
(80,340,l),
(80,692,l),
(236,737,l),
(236,340,l),
(437,340,l),
(437,692,l),
(594,737,l)
);
}
);
width = 662;
}
);
unicode = 72;
},
{
color = 6;
glyphname = Hbar;
kernLeft = H;
kernRight = H;
lastChange = "2023-01-27 11:29:31 +0000";
layers = (
{
background = {
anchors = (
{
name = center;
pos = (332,370);
},
{
name = top;
pos = (351,742);
}
);
shapes = (
{
closed = 1;
nodes = (
(29,416,l),
(54,471,l),
(615,471,l),
(591,416,l)
);
},
{
closed = 1;
nodes = (
(563,19,l),
(482,-13,l),
(482,280,l),
(185,280,l),
(185,19,l),
(104,-13,l),
(104,280,l),
(23,280,l),
(50,335,l),
(104,335,l),
(104,694,l),
(185,728,l),
(185,335,l),
(482,335,l),
(482,694,l),
(563,728,l)
);
}
);
};
layerId = "E777F328-EA17-4AE7-9EBA-8002E537BA4F";
name = Light;
shapes = (
{
closed = 1;
nodes = (
(29,416,l),
(54,471,l),
(615,471,l),
(591,416,l)
);
},
{
ref = H;
}
);
width = 657;
},
{
background = {
anchors = (
{
name = center;
pos = (332,370);
},
{
name = top;
pos = (351,742);
}
);
shapes = (
{
closed = 1;
nodes = (
(0,414,l),
(26,471,l),
(662,471,l),
(635,414,l)
);
},
{
closed = 1;
nodes = (
(594,25,l),
(437,-21,l),
(437,264,l),
(236,264,l),
(236,25,l),
(80,-21,l),
(80,264,l),
(0,264,l),
(39,340,l),
(80,340,l),
(80,692,l),
(236,737,l),
(236,340,l),
(437,340,l),
(437,692,l),
(594,737,l)
);
}
);
};
layerId = "39185045-6A8C-415A-8312-7B8F11386A4C";
name = Regular;
shapes = (
{
closed = 1;
nodes = (
(0,414,l),
(26,471,l),
(662,471,l),
(635,414,l)
);
},
{
ref = H;
}
);
width = 662;
}
);
unicode = 294;
},
{
color = 6;
glyphname = Hcircumflex;
kernLeft = H;
kernRight = H;
lastChange = "2023-01-27 12:43:53 +0000";
layers = (
{
background = {
anchors = (
{
name = center;
pos = (332,370);
},
{
name = top;
pos = (351,742);
}
);
shapes = (
{
closed = 1;
nodes = (
(563,19,l),
(482,-13,l),
(482,280,l),
(185,280,l),
(185,19,l),
(104,-13,l),
(104,280,l),
(23,280,l),
(50,335,l),
(104,335,l),
(104,694,l),
(185,728,l),
(185,335,l),
(482,335,l),
(482,694,l),
(563,728,l)
);
},
{
closed = 1;
nodes = (
(219,811,l),
(245,791,l),
(324,880,l),
(434,776,l),
(484,829,l),
(349,957,l)
);
}
);
};
layerId = "E777F328-EA17-4AE7-9EBA-8002E537BA4F";
name = Light;
shapes = (
{
ref = H;
},
{
pos = (149,22);
ref = circumflexcomb.case;
}
);
width = 657;
},
{
background = {
anchors = (
{
name = center;
pos = (332,370);
},
{
name = top;
pos = (351,742);
}
);
shapes = (
{
closed = 1;
nodes = (
(594,25,l),
(437,-21,l),
(437,264,l),
(236,264,l),
(236,25,l),
(80,-21,l),
(80,264,l),
(0,264,l),
(39,340,l),
(80,340,l),
(80,692,l),
(236,737,l),
(236,340,l),
(437,340,l),
(437,692,l),
(594,737,l)
);
},
{
closed = 1;
nodes = (
(196,754,l),
(235,724,l),
(297,802,l),
(414,720,l),
(474,801,l),
(321,909,l)
);
}
);
};
layerId = "39185045-6A8C-415A-8312-7B8F11386A4C";
name = Regular;
shapes = (
{
ref = H;
},
{
pos = (127,22);
ref = circumflexcomb.case;
}
);
width = 662;
}
);
unicode = 292;
},
{
color = 6;
glyphname = I;
kernLeft = H;
kernRight = H;
lastChange = "2023-01-27 13:22:13 +0000";
layers = (
{
anchors = (
{
name = bottom;
pos = (145,0);
},
{
name = ogonek;
pos = (233,19);
},
{
name = top;
pos = (138,742);
},
{
name = topleft;
pos = (20,720);
}
);
background = {
anchors = (
{
name = ogonek;
pos = (246,32);
},
{
name = top;
pos = (138,742);
}
);
shapes = (
{
closed = 1;
nodes = (
(95,696,l),
(95,-13,l),
(176,18,l),
(176,728,l)
);
}
);
};
guides = (
{
pos = (-99,394);
}
);
layerId = "E777F328-EA17-4AE7-9EBA-8002E537BA4F";
name = Light;
shapes = (
{
closed = 1;
nodes = (
(95,696,l),
(95,-13,l),
(176,18,l),
(176,728,l)
);
}
);
width = 289;
},
{
anchors = (
{
name = bottom;
pos = (147,0);
},
{
name = ogonek;
pos = (260,19);
},
{
name = top;
pos = (157,742);
},
{
name = topleft;
pos = (20,720);
}
);
background = {
anchors = (
{
name = ogonek;
pos = (260,19);
},
{
name = top;
pos = (147,742);
}
);
shapes = (
{
closed = 1;
nodes = (
(69,692,l),
(69,-21,l),
(226,25,l),
(226,737,l)
);
}
);
};
layerId = "39185045-6A8C-415A-8312-7B8F11386A4C";
name = Regular;
shapes = (
{
closed = 1;
nodes = (
(69,692,l),
(69,-21,l),
(226,25,l),
(226,737,l)
);
}
);
width = 294;
}
);
unicode = 73;
},
{
color = 6;
glyphname = IJ;
kernLeft = H;
kernRight = J;
lastChange = "2023-01-27 11:36:49 +0000";
layers = (
{
background = {
anchors = (
{
name = ogonek;
pos = (246,32);
},
{
name = top;
pos = (510,742);
}
);
shapes = (
{
closed = 1;
nodes = (
(95,696,l),
(95,-13,l),
(176,18,l),
(176,728,l)
);
},
{
closed = 1;
nodes = (
(515,697,ls),
(442,697,o),
(363,655,o),
(293,572,c),
(310,559,l),
(343,595,o),
(373,614,o),
(430,614,cs),
(548,613,l),
(492,573,o),
(450,506,o),
(450,443,cs),
(450,31,ls),
(450,-19,o),
(430,-91,o),
(343,-91,cs),
(271,-91,o),
(227,-48,o),
(203,-17,c),
(124,-79,l),
(172,-110,o),
(234,-131,o),
(282,-131,cs),
(469,-131,o),
(530,-9,o),
(530,115,c),
(530,500,l),
(530,545,o),
(546,579,o),
(583,621,c),
(654,697,l)
);
}
);
};
layerId = "E777F328-EA17-4AE7-9EBA-8002E537BA4F";
name = Light;
shapes = (
{
ref = I;
},
{
pos = (284,0);
ref = J;
}
);
width = 707;
},
{
background = {
anchors = (
{
name = ogonek;
pos = (260,19);
},
{
name = top;
pos = (511,742);
}
);
shapes = (
{
closed = 1;
nodes = (
(69,692,l),
(69,-21,l),
(226,25,l),
(226,737,l)
);
},
{
closed = 1;
nodes = (
(510,711,l),
(380,711,o),
(317,634,o),
(271,572,c),
(296,543,l),
(333,585,o),
(375,608,o),
(420,608,c),
(523,608,l),
(457,564,o),
(399,513,o),
(399,436,c),
(399,-7,l),
(399,-77,o),
(370,-104,o),
(326,-104,cs),
(282,-104,o),
(243,-51,o),
(225,-7,c),
(115,-104,l),
(161,-141,o),
(212,-161,o),
(296,-161,cs),
(425,-161,o),
(556,-50,o),
(556,89,c),
(556,500,l),
(556,558,o),
(578,592,o),
(636,668,c),
(673,711,l)
);
}
);
};
layerId = "39185045-6A8C-415A-8312-7B8F11386A4C";
name = Regular;
shapes = (
{
ref = I;
},
{
pos = (289,0);
ref = J;
}
);
width = 634;
}
);
unicode = 306;
},
{
color = 6;
glyphname = Iacute;
kernLeft = H;
kernRight = H;
lastChange = "2023-01-27 13:23:24 +0000";
layers = (
{
background = {
anchors = (
{
name = ogonek;
pos = (246,32);
},
{
name = top;
pos = (138,742);
}
);
shapes = (
{
closed = 1;
nodes = (
(95,696,l),
(95,-13,l),
(176,18,l),
(176,728,l)
);
},
{
closed = 1;
nodes = (
(65,780,l),
(52,796,l),
(167,935,l),
(226,869,l)
);
}
);
};
layerId = "E777F328-EA17-4AE7-9EBA-8002E537BA4F";
name = Light;
shapes = (
{
ref = I;
},
{
pos = (-18,20);
ref = acutecomb.case;
}
);
width = 289;
},
{
background = {
anchors = (
{
name = ogonek;
pos = (260,19);
},
{
name = top;
pos = (147,742);
}
);
shapes = (
{
closed = 1;
nodes = (
(69,692,l),
(69,-21,l),
(226,25,l),
(226,737,l)
);
},
{
closed = 1;
nodes = (
(58,724,l),
(36,764,l),
(189,909,l),
(260,796,l)
);
}
);
};
layerId = "39185045-6A8C-415A-8312-7B8F11386A4C";
name = Regular;
shapes = (
{
ref = I;
},
{
pos = (-24,22);
ref = acutecomb.case;
}
);
width = 294;
}
);
unicode = 205;
},
{
color = 6;
glyphname = Ibreve;
kernLeft = H;
kernRight = H;
lastChange = "2023-01-27 13:22:13 +0000";
layers = (
{
background = {
anchors = (
{
name = ogonek;
pos = (246,32);
},
{
name = top;
pos = (138,742);
}
);
shapes = (
{
closed = 1;
nodes = (
(95,696,l),
(95,-13,l),
(176,18,l),
(176,728,l)
);
},
{
closed = 1;
nodes = (
(86,946,l),
(76,932,o),
(72,913,o),
(72,897,cs),
(72,861,o),
(92,804,o),
(136,804,cs),
(163,804,o),
(182,825,o),
(182,852,cs),
(182,877,o),
(168,903,o),
(151,919,c),
(215,959,l),
(235,938,o),
(243,913,o),
(243,885,cs),
(243,818,o),
(193,775,o),
(126,775,cs),
(72,775,o),
(32,810,o),
(32,865,cs),
(32,897,o),
(49,937,o),
(72,957,c)
);
}
);
};
layerId = "E777F328-EA17-4AE7-9EBA-8002E537BA4F";
name = Light;
shapes = (
{
ref = I;
},
{
pos = (-48,22);
ref = brevecomb.case;
}
);
width = 289;
},
{
background = {
anchors = (
{
name = ogonek;
pos = (260,19);
},
{
name = top;
pos = (147,742);
}
);
shapes = (
{
closed = 1;
nodes = (
(69,692,l),
(69,-21,l),
(226,25,l),
(226,737,l)
);
},
{
closed = 1;
nodes = (
(93,902,l),
(88,889,o),
(83,875,o),
(83,849,cs),
(83,816,o),
(98,766,o),
(130,766,cs),
(149,766,o),
(163,784,o),
(163,809,cs),
(163,837,o),
(151,862,o),
(137,874,c),
(214,923,l),
(240,896,o),
(252,867,o),
(252,841,cs),
(252,774,o),
(196,729,o),
(123,729,cs),
(62,729,o),
(16,765,o),
(16,821,cs),
(16,862,o),
(33,894,o),
(68,920,c)
);
}
);
};
layerId = "39185045-6A8C-415A-8312-7B8F11386A4C";
name = Regular;
shapes = (
{
ref = I;
},
{
pos = (-45,22);
ref = brevecomb.case;
}
);
width = 294;
}
);
unicode = 300;
},
{
color = 6;
glyphname = Icircumflex;
kernLeft = H;
kernRight = H;
lastChange = "2023-01-27 13:22:13 +0000";
layers = (
{
background = {
anchors = (
{
name = ogonek;
pos = (246,32);
},
{
name = top;
pos = (138,742);
}
);
shapes = (
{
closed = 1;
nodes = (
(95,696,l),
(95,-13,l),
(176,18,l),
(176,728,l)
);
},
{
closed = 1;
nodes = (
(6,811,l),
(32,791,l),
(111,880,l),
(221,776,l),
(271,829,l),
(136,957,l)
);
}
);
};
layerId = "E777F328-EA17-4AE7-9EBA-8002E537BA4F";
name = Light;
shapes = (
{
ref = I;
},
{
pos = (-64,22);
ref = circumflexcomb.case;
}
);
width = 289;
},
{
background = {
anchors = (
{
name = ogonek;
pos = (260,19);
},
{
name = top;
pos = (147,742);
}
);
shapes = (
{
closed = 1;
nodes = (
(69,692,l),
(69,-21,l),
(226,25,l),
(226,737,l)
);
},
{
closed = 1;
nodes = (
(-8,754,l),
(31,724,l),
(93,802,l),
(210,720,l),
(270,801,l),
(117,909,l)
);
}
);
};
layerId = "39185045-6A8C-415A-8312-7B8F11386A4C";
name = Regular;
shapes = (
{
ref = I;
},
{
pos = (-67,22);
ref = circumflexcomb.case;
}
);
width = 294;
}
);
unicode = 206;
},
{
color = 6;
glyphname = Idieresis;
kernLeft = H;
kernRight = H;
lastChange = "2023-01-27 13:22:13 +0000";
layers = (
{
background = {
anchors = (
{
name = ogonek;
pos = (246,32);
},
{
name = top;
pos = (138,742);
}
);
shapes = (
{
closed = 1;
nodes = (
(95,696,l),
(95,-13,l),
(176,18,l),
(176,728,l)
);
},
{
closed = 1;
nodes = (
(195,932,o),
(169,906,o),
(169,876,cs),
(169,844,o),
(195,820,o),
(225,820,cs),
(257,820,o),
(281,844,o),
(281,876,cs),
(281,906,o),
(257,932,o),
(225,932,cs)
);
},
{
closed = 1;
nodes = (
(20,932,o),
(-5,906,o),
(-5,876,cs),
(-5,844,o),
(20,820,o),
(50,820,cs),
(81,820,o),
(107,844,o),
(107,876,cs),
(107,906,o),
(81,932,o),
(50,932,cs)
);
}
);
};
layerId = "E777F328-EA17-4AE7-9EBA-8002E537BA4F";
name = Light;
shapes = (
{
ref = I;
},
{
pos = (-35,22);
ref = dieresiscomb.case;
}
);
width = 289;
},
{
background = {
anchors = (
{
name = ogonek;
pos = (260,19);
},
{
name = top;
pos = (147,742);
}
);
shapes = (
{
closed = 1;
nodes = (
(69,692,l),
(69,-21,l),
(226,25,l),
(226,737,l)
);
},
{
closed = 1;
nodes = (
(181,902,o),
(149,868,o),
(149,830,cs),
(149,791,o),
(181,760,o),
(219,760,cs),
(259,760,o),
(291,791,o),
(291,830,cs),
(291,868,o),
(259,902,o),
(219,902,cs)
);
},
{
closed = 1;
nodes = (
(-3,902,o),
(-36,868,o),
(-36,830,cs),
(-36,791,o),
(-3,760,o),
(36,760,cs),
(75,760,o),
(106,791,o),
(106,830,cs),
(106,868,o),
(75,902,o),
(36,902,cs)
);
}
);
};
layerId = "39185045-6A8C-415A-8312-7B8F11386A4C";
name = Regular;
shapes = (
{
ref = I;
},
{
pos = (-56,22);
ref = dieresiscomb.case;
}
);
width = 294;
}
);
unicode = 207;
},
{
color = 6;
glyphname = Idotaccent;
kernLeft = H;
kernRight = H;
lastChange = "2023-01-27 13:22:13 +0000";
layers = (
{
background = {
anchors = (
{
name = ogonek;
pos = (246,32);
},
{
name = top;
pos = (138,742);
}
);
shapes = (
{
closed = 1;
nodes = (
(95,696,l),
(95,-13,l),
(176,18,l),
(176,728,l)
);
},
{
closed = 1;
nodes = (
(106,934,o),
(81,908,o),
(81,876,cs),
(81,846,o),
(106,820,o),
(138,820,cs),
(167,820,o),
(194,846,o),
(194,876,cs),
(194,908,o),
(167,934,o),
(138,934,cs)
);
}
);
};
layerId = "E777F328-EA17-4AE7-9EBA-8002E537BA4F";
name = Light;
shapes = (
{
ref = I;
},
{
pos = (11,19);
ref = dotaccentcomb.case;
}
);
width = 289;
},
{
background = {
anchors = (
{
name = ogonek;
pos = (260,19);
},
{
name = top;
pos = (147,742);
}
);
shapes = (
{
closed = 1;
nodes = (
(69,692,l),
(69,-21,l),
(226,25,l),
(226,737,l)
);
},
{
closed = 1;
nodes = (
(97,906,o),
(63,871,o),
(63,830,cs),
(63,789,o),
(97,755,o),
(138,755,cs),
(178,755,o),
(212,789,o),
(212,830,cs),
(212,871,o),
(178,906,o),
(138,906,cs)
);
}
);
};
layerId = "39185045-6A8C-415A-8312-7B8F11386A4C";
name = Regular;
shapes = (
{
ref = I;
},
{
pos = (-3,22);
ref = dotaccentcomb.case;
}
);
width = 294;
}
);
unicode = 304;
},
{
color = 6;
glyphname = Igrave;
kernLeft = H;
kernRight = H;
lastChange = "2023-01-27 13:22:13 +0000";
layers = (
{
background = {
anchors = (
{
name = ogonek;
pos = (246,32);
},
{
name = top;
pos = (138,742);
}
);
shapes = (
{
closed = 1;
nodes = (
(95,696,l),
(95,-13,l),
(176,18,l),
(176,728,l)
);
},
{
closed = 1;
nodes = (
(38,869,l),
(96,935,l),
(212,796,l),
(199,778,l)
);
}
);
};
layerId = "E777F328-EA17-4AE7-9EBA-8002E537BA4F";
name = Light;
shapes = (
{
ref = I;
},
{
pos = (-32,22);
ref = gravecomb.case;
}
);
width = 289;
},
{
background = {
anchors = (
{
name = ogonek;
pos = (260,19);
},
{
name = top;
pos = (147,742);
}
);
shapes = (
{
closed = 1;
nodes = (
(69,692,l),
(69,-21,l),
(226,25,l),
(226,737,l)
);
},
{
closed = 1;
nodes = (
(21,796,l),
(90,909,l),
(246,764,l),
(224,724,l)
);
}
);
};
layerId = "39185045-6A8C-415A-8312-7B8F11386A4C";
name = Regular;
shapes = (
{
ref = I;
},
{
pos = (-49,22);
ref = gravecomb.case;
}
);
width = 294;
}
);
unicode = 204;
},
{
color = 6;
glyphname = Imacron;
kernLeft = H;
kernRight = H;
lastChange = "2023-01-27 13:22:13 +0000";
layers = (
{
background = {
anchors = (
{
name = ogonek;
pos = (246,32);
},
{
name = top;
pos = (138,742);
}
);
shapes = (
{
closed = 1;
nodes = (
(95,696,l),
(95,-13,l),
(176,18,l),
(176,728,l)
);
},
{
closed = 1;
nodes = (
(18,842,l),
(54,906,l),
(259,906,l),
(225,842,l)
);
}
);
};
layerId = "E777F328-EA17-4AE7-9EBA-8002E537BA4F";
name = Light;
shapes = (
{
ref = I;
},
{
pos = (18,247);
ref = macroncomb.case;
}
);
width = 289;
},
{
background = {
anchors = (
{
name = ogonek;
pos = (260,19);
},
{
name = top;
pos = (147,742);
}
);
shapes = (
{
closed = 1;
nodes = (
(69,692,l),
(69,-21,l),
(226,25,l),
(226,737,l)
);
},
{
closed = 1;
nodes = (
(-5,784,l),
(32,877,l),
(270,877,l),
(233,784,l)
);
}
);
};
layerId = "39185045-6A8C-415A-8312-7B8F11386A4C";
name = Regular;
shapes = (
{
ref = I;
},
{
pos = (0,247);
ref = macroncomb.case;
}
);
width = 294;
}
);
unicode = 298;
},
{
color = 6;
glyphname = Iogonek;
kernLeft = H;
kernRight = H;
lastChange = "2023-01-27 12:50:37 +0000";
layers = (
{
background = {
anchors = (
{
name = ogonek;
pos = (246,32);
},
{
name = top;
pos = (138,742);
}
);
shapes = (
{
closed = 1;
nodes = (
(95,696,l),
(95,-13,l),
(176,18,l),
(176,728,l)
);
},
{
closed = 1;
nodes = (
(113,2,o),
(62,-45,o),
(62,-107,cs),
(62,-159,o),
(106,-182,o),
(141,-182,cs),
(179,-182,o),
(212,-151,o),
(233,-113,c),
(216,-99,l),
(200,-119,o),
(184,-125,o),
(168,-125,cs),
(136,-125,o),
(121,-105,o),
(121,-77,cs),
(121,-45,o),
(141,-8,o),
(170,17,c),
(157,30,l)
);
}
);
};
layerId = "E777F328-EA17-4AE7-9EBA-8002E537BA4F";
name = Light;
shapes = (
{
ref = I;
},
{
pos = (-8,15);
ref = ogonekcomb.case;
}
);
width = 289;
},
{
background = {
anchors = (
{
name = ogonek;
pos = (260,19);
},
{
name = top;
pos = (147,742);
}
);
shapes = (
{
closed = 1;
nodes = (
(69,692,l),
(69,-21,l),
(226,25,l),
(226,737,l)
);
},
{
closed = 1;
nodes = (
(108,0,o),
(57,-46,o),
(57,-106,cs),
(57,-164,o),
(101,-183,o),
(137,-183,cs),
(179,-183,o),
(215,-154,o),
(240,-112,c),
(221,-96,l),
(204,-118,o),
(185,-123,o),
(171,-123,cs),
(143,-123,o),
(126,-108,o),
(126,-73,cs),
(126,-53,o),
(136,-23,o),
(167,15,c),
(154,28,l)
);
}
);
};
layerId = "39185045-6A8C-415A-8312-7B8F11386A4C";
name = Regular;
shapes = (
{
ref = I;
},
{
pos = (-65,14);
ref = ogonekcomb.case;
}
);
width = 294;
}
);
unicode = 302;
},
{
color = 6;
glyphname = Itilde;
kernLeft = H;
kernRight = H;
lastChange = "2023-01-27 13:22:13 +0000";
layers = (
{
background = {
anchors = (
{
name = ogonek;
pos = (246,32);
},
{
name = top;
pos = (138,742);
}
);
shapes = (
{
closed = 1;
nodes = (
(95,696,l),
(95,-13,l),
(176,18,l),
(176,728,l)
);
},
{
closed = 1;
nodes = (
(201,937,l),
(205,927,o),
(206,919,o),
(206,911,cs),
(206,892,o),
(200,880,o),
(187,880,cs),
(161,880,o),
(144,937,o),
(97,937,cs),
(52,937,o),
(29,904,o),
(29,865,cs),
(29,852,o),
(32,829,o),
(50,807,c),
(78,815,l),
(73,825,o),
(71,833,o),
(71,840,cs),
(71,862,o),
(79,872,o),
(91,872,cs),
(117,872,o),
(133,815,o),
(182,815,cs),
(226,815,o),
(250,847,o),
(250,887,cs),
(250,899,o),
(247,923,o),
(229,944,c)
);
}
);
};
layerId = "E777F328-EA17-4AE7-9EBA-8002E537BA4F";
name = Light;
shapes = (
{
ref = I;
},
{
pos = (-41,22);
ref = tildecomb.case;
}
);
width = 289;
},
{
background = {
anchors = (
{
name = ogonek;
pos = (260,19);
},
{
name = top;
pos = (147,742);
}
);
shapes = (
{
closed = 1;
nodes = (
(69,692,l),
(69,-21,l),
(226,25,l),
(226,737,l)
);
},
{
closed = 1;
nodes = (
(194,891,l),
(199,886,o),
(203,878,o),
(203,869,cs),
(203,858,o),
(196,851,o),
(185,851,cs),
(154,851,o),
(143,902,o),
(84,902,cs),
(35,902,o),
(3,864,o),
(3,820,cs),
(3,796,o),
(11,772,o),
(30,750,c),
(67,768,l),
(62,774,o),
(60,781,o),
(60,791,cs),
(60,801,o),
(65,809,o),
(77,809,cs),
(108,809,o),
(118,758,o),
(177,758,cs),
(227,758,o),
(259,796,o),
(259,839,cs),
(259,863,o),
(251,888,o),
(232,909,c)
);
}
);
};
layerId = "39185045-6A8C-415A-8312-7B8F11386A4C";
name = Regular;
shapes = (
{
ref = I;
},
{
pos = (-57,22);
ref = tildecomb.case;
}
);
width = 294;
}
);
unicode = 296;
},
{
color = 6;
glyphname = J;
kernLeft = J;
kernRight = J;
lastChange = "2023-01-27 11:36:36 +0000";
layers = (
{
anchors = (
{
name = bottom;
pos = (212,0);
},
{
name = top;
pos = (226,742);
}
);
background = {
anchors = (
{
name = top;
pos = (226,742);
}
);
shapes = (
{
closed = 1;
nodes = (
(231,697,ls),
(158,697,o),
(79,655,o),
(9,572,c),
(26,559,l),
(59,595,o),
(89,614,o),
(146,614,cs),
(264,613,l),
(208,573,o),
(166,506,o),
(166,443,cs),
(166,31,ls),
(166,-19,o),
(146,-91,o),
(59,-91,cs),
(-13,-91,o),
(-57,-48,o),
(-81,-17,c),
(-160,-79,l),
(-112,-110,o),
(-50,-131,o),
(-2,-131,cs),
(185,-131,o),
(246,-9,o),
(246,115,c),
(246,500,l),
(246,545,o),
(262,579,o),
(299,621,c),
(370,697,l)
);
}
);
};
layerId = "E777F328-EA17-4AE7-9EBA-8002E537BA4F";
name = Light;
shapes = (
{
closed = 1;
nodes = (
(231,697,ls),
(158,697,o),
(79,655,o),
(9,572,c),
(26,559,l),
(59,595,o),
(89,614,o),
(146,614,cs),
(264,613,l),
(208,573,o),
(166,506,o),
(166,443,cs),
(166,31,ls),
(166,-19,o),
(146,-91,o),
(59,-91,cs),
(-13,-91,o),
(-57,-48,o),
(-81,-17,c),
(-160,-79,l),
(-112,-110,o),
(-50,-131,o),
(-2,-131,cs),
(185,-131,o),
(246,-9,o),
(246,115,c),
(246,500,l),
(246,545,o),
(262,579,o),
(299,621,c),
(370,697,l)
);
}
);
width = 423;
},
{
anchors = (
{
name = bottom;
pos = (173,0);
},
{
name = top;
pos = (222,742);
}
);
background = {
anchors = (
{
name = top;
pos = (222,742);
}
);
shapes = (
{
closed = 1;
nodes = (
(221,711,l),
(91,711,o),
(28,634,o),
(-18,572,c),
(7,543,l),
(44,585,o),
(86,608,o),
(131,608,c),
(234,608,l),
(168,564,o),
(110,513,o),
(110,436,c),
(110,-7,l),
(110,-77,o),
(81,-104,o),
(37,-104,cs),
(-7,-104,o),
(-46,-51,o),
(-64,-7,c),
(-174,-104,l),
(-128,-141,o),
(-77,-161,o),
(7,-161,cs),
(136,-161,o),
(267,-50,o),
(267,89,c),
(267,500,l),
(267,558,o),
(289,592,o),
(347,668,c),
(384,711,l)
);
}
);
};
layerId = "39185045-6A8C-415A-8312-7B8F11386A4C";
name = Regular;
shapes = (
{
closed = 1;
nodes = (
(221,711,l),
(91,711,o),
(28,634,o),
(-18,572,c),
(7,543,l),
(44,585,o),
(86,608,o),
(131,608,c),
(234,608,l),
(168,564,o),
(110,513,o),
(110,436,c),
(110,-7,l),
(110,-77,o),
(81,-104,o),
(37,-104,cs),
(-7,-104,o),
(-46,-51,o),
(-64,-7,c),
(-174,-104,l),
(-128,-141,o),
(-77,-161,o),
(7,-161,cs),
(136,-161,o),
(267,-50,o),
(267,89,c),
(267,500,l),
(267,558,o),
(289,592,o),
(347,668,c),
(384,711,l)
);
}
);
width = 345;
}
);
unicode = 74;
},
{
color = 6;
glyphname = Jcircumflex;
kernLeft = J;
kernRight = J;
lastChange = "2023-01-27 12:43:53 +0000";
layers = (
{
background = {
anchors = (
{
name = top;
pos = (226,742);
}
);
shapes = (
{
closed = 1;
nodes = (
(231,697,ls),
(158,697,o),
(79,655,o),
(9,572,c),
(26,559,l),
(59,595,o),
(89,614,o),
(146,614,cs),
(264,613,l),
(208,573,o),
(166,506,o),
(166,443,cs),
(166,31,ls),
(166,-19,o),
(146,-91,o),
(59,-91,cs),
(-13,-91,o),
(-57,-48,o),
(-81,-17,c),
(-160,-79,l),
(-112,-110,o),
(-50,-131,o),
(-2,-131,cs),
(185,-131,o),
(246,-9,o),
(246,115,c),
(246,500,l),
(246,545,o),
(262,579,o),
(299,621,c),
(370,697,l)
);
},
{
closed = 1;
nodes = (
(94,811,l),
(120,791,l),
(199,880,l),
(309,776,l),
(359,829,l),
(224,957,l)
);
}
);
};
layerId = "E777F328-EA17-4AE7-9EBA-8002E537BA4F";
name = Light;
shapes = (
{
ref = J;
},
{
pos = (24,22);
ref = circumflexcomb.case;
}
);
width = 423;
},
{
background = {
anchors = (
{
name = top;
pos = (222,742);
}
);
shapes = (
{
closed = 1;
nodes = (
(221,711,l),
(91,711,o),
(28,634,o),
(-18,572,c),
(7,543,l),
(44,585,o),
(86,608,o),
(131,608,c),
(234,608,l),
(168,564,o),
(110,513,o),
(110,436,c),
(110,-7,l),
(110,-77,o),
(81,-104,o),
(37,-104,cs),
(-7,-104,o),
(-46,-51,o),
(-64,-7,c),
(-174,-104,l),
(-128,-141,o),
(-77,-161,o),
(7,-161,cs),
(136,-161,o),
(267,-50,o),
(267,89,c),
(267,500,l),
(267,558,o),
(289,592,o),
(347,668,c),
(384,711,l)
);
},
{
closed = 1;
nodes = (
(67,754,l),
(106,724,l),
(168,802,l),
(285,720,l),
(345,801,l),
(192,909,l)
);
}
);
};
layerId = "39185045-6A8C-415A-8312-7B8F11386A4C";
name = Regular;
shapes = (
{
ref = J;
},
{
pos = (-2,22);
ref = circumflexcomb.case;
}
);
width = 345;
}
);
unicode = 308;
},
{
color = 6;
glyphname = K;
kernLeft = H;
kernRight = K;
lastChange = "2023-01-27 11:29:29 +0000";
layers = (
{
anchors = (
{
name = bottom;
pos = (309,0);
},
{
name = top;
pos = (309,742);
}
);
background = {
anchors = (
{
name = bottom;
pos = (309,0);
},
{
name = top;
pos = (309,742);
}
);
shapes = (
{
closed = 1;
nodes = (
(113,223,l),
(164,220,l),
(584,707,l),
(530,712,l)
);
},
{
closed = 1;
nodes = (
(94,694,l),
(94,-13,l),
(174,19,l),
(174,728,l)
);
},
{
closed = 1;
nodes = (
(217,315,l),
(313,141,ls),
(372,36,o),
(392,-8,o),
(471,-8,cs),
(527,-8,o),
(580,41,o),
(617,121,c),
(602,131,l),
(577,85,o),
(535,50,o),
(500,49,cs),
(463,47,o),
(447,64,o),
(419,115,cs),
(269,380,l)
);
}
);
};
layerId = "E777F328-EA17-4AE7-9EBA-8002E537BA4F";
name = Light;
shapes = (
{
closed = 1;
nodes = (
(113,223,l),
(164,220,l),
(584,707,l),
(530,712,l)
);
},
{
closed = 1;
nodes = (
(94,694,l),
(94,-13,l),
(174,19,l),
(174,728,l)
);
},
{
closed = 1;
nodes = (
(217,315,l),
(313,141,ls),
(372,36,o),
(392,-8,o),
(471,-8,cs),
(527,-8,o),
(580,41,o),
(617,121,c),
(602,131,l),
(577,85,o),
(535,50,o),
(500,49,cs),
(463,47,o),
(447,64,o),
(419,115,cs),
(269,380,l)
);
}
);
width = 624;
},
{
anchors = (
{
name = bottom;
pos = (311,0);
},
{
name = top;
pos = (311,742);
}
);
background = {
anchors = (
{
name = bottom;
pos = (311,0);
},
{
name = top;
pos = (311,742);
}
);
shapes = (
{
closed = 1;
nodes = (
(125,239,l),
(218,231,l),
(603,706,l),
(506,712,l)
);
},
{
closed = 1;
nodes = (
(69,692,l),
(69,-21,l),
(226,25,l),
(226,737,l)
);
},
{
closed = 1;
nodes = (
(169,273,l),
(317,75,l),
(364,11,o),
(397,-9,o),
(449,-9,cs),
(517,-9,o),
(590,37,o),
(640,113,c),
(611,138,l),
(584,108,o),
(551,88,o),
(522,88,cs),
(501,88,o),
(483,99,o),
(468,119,c),
(292,349,l)
);
}
);
};
layerId = "39185045-6A8C-415A-8312-7B8F11386A4C";
name = Regular;
shapes = (
{
closed = 1;
nodes = (
(125,239,l),
(218,231,l),
(603,706,l),
(506,712,l)
);
},
{
closed = 1;
nodes = (
(69,692,l),
(69,-21,l),
(226,25,l),
(226,737,l)
);
},
{
closed = 1;
nodes = (
(169,273,l),
(317,75,l),
(364,11,o),
(397,-9,o),
(449,-9,cs),
(517,-9,o),
(590,37,o),
(640,113,c),
(611,138,l),
(584,108,o),
(551,88,o),
(522,88,cs),
(501,88,o),
(483,99,o),
(468,119,c),
(292,349,l)
);
}
);
width = 624;
}
);
unicode = 75;
},
{
color = 6;
glyphname = Kcommaaccent;
kernLeft = H;
kernRight = K;
lastChange = "2023-01-27 11:36:49 +0000";
layers = (
{
background = {
anchors = (
{
name = bottom;
pos = (309,0);
},
{
name = top;
pos = (309,742);
}
);
shapes = (
{
closed = 1;
nodes = (
(113,223,l),
(164,220,l),
(584,707,l),
(530,712,l)
);
},
{
closed = 1;
nodes = (
(94,694,l),
(94,-13,l),
(174,19,l),
(174,728,l)
);
},
{
closed = 1;
nodes = (
(217,315,l),
(313,141,ls),
(372,36,o),
(392,-8,o),
(471,-8,cs),
(527,-8,o),
(580,41,o),
(617,121,c),
(602,131,l),
(577,85,o),
(535,50,o),
(500,49,cs),
(463,47,o),
(447,64,o),
(419,115,cs),
(269,380,l)
);
},
{
closed = 1;
nodes = (
(361,-141,o),
(327,-179,o),
(288,-203,c),
(272,-189,l),
(283,-177,o),
(293,-161,o),
(297,-146,c),
(274,-140,o),
(258,-119,o),
(258,-95,cs),
(258,-66,o),
(282,-42,o),
(309,-42,cs),
(337,-42,o),
(361,-66,o),
(361,-95,cs)
);
}
);
};
layerId = "E777F328-EA17-4AE7-9EBA-8002E537BA4F";
name = Light;
shapes = (
{
ref = K;
},
{
pos = (232,0);
ref = commaaccentcomb;
}
);
width = 624;
},
{
background = {
anchors = (
{
name = bottom;
pos = (311,0);
},
{
name = top;
pos = (311,742);
}
);
shapes = (
{
closed = 1;
nodes = (
(125,239,l),
(218,231,l),
(603,706,l),
(506,712,l)
);
},
{
closed = 1;
nodes = (
(69,692,l),
(69,-21,l),
(226,25,l),
(226,737,l)
);
},
{
closed = 1;
nodes = (
(169,273,l),
(317,75,l),
(364,11,o),
(397,-9,o),
(449,-9,cs),
(517,-9,o),
(590,37,o),
(640,113,c),
(611,138,l),
(584,108,o),
(551,88,o),
(522,88,cs),
(501,88,o),
(483,99,o),
(468,119,c),
(292,349,l)
);
},
{
closed = 1;
nodes = (
(385,-185,o),
(338,-237,o),
(281,-269,c),
(258,-251,l),
(274,-236,o),
(290,-211,o),
(294,-191,c),
(260,-181,o),
(237,-151,o),
(237,-117,cs),
(237,-76,o),
(269,-42,o),
(311,-42,cs),
(352,-42,o),
(385,-76,o),
(385,-117,cs)
);
}
);
};
layerId = "39185045-6A8C-415A-8312-7B8F11386A4C";
name = Regular;
shapes = (
{
ref = K;
},
{
pos = (235,0);
ref = commaaccentcomb;
}
);
width = 624;
}
);
unicode = 310;
},
{
color = 6;
glyphname = L;
kernLeft = H;
kernRight = L;
lastChange = "2023-01-27 12:54:38 +0000";
layers = (
{
anchors = (
{
name = bottom;
pos = (293,0);
},
{
name = center;
pos = (280,360);
},
{
name = top;
pos = (328,742);
},
{
name = topright;
pos = (538,917);
}
);
background = {
anchors = (
{
name = bottom;
pos = (293,0);
},
{
name = top;
pos = (328,742);
},
{
name = topright;
pos = (548,742);
}
);
shapes = (
{
closed = 1;
nodes = (
(211,730,o),
(86,586,o),
(86,401,cs),
(86,115,ls),
(86,66,o),
(66,31,o),
(34,8,c),
(54,-8,l),
(89,18,o),
(140,31,o),
(174,31,cs),
(284,31,o),
(374,0,o),
(464,-11,c),
(535,136,l),
(520,145,l),
(494,113,o),
(451,83,o),
(405,83,cs),
(330,83,o),
(300,97,o),
(229,97,cs),
(187,97,o),
(160,80,o),
(131,57,c),
(126,59,l),
(150,89,o),
(167,117,o),
(167,163,cs),
(167,477,ls),
(167,572,o),
(212,675,o),
(338,675,c),
(384,675,o),
(416,652,o),
(416,608,cs),
(416,553,o),
(356,489,o),
(285,471,c),
(293,455,l),
(398,464,o),
(508,554,o),
(508,635,cs),
(508,692,o),
(462,730,o),
(392,730,cs)
);
}
);
};
layerId = "E777F328-EA17-4AE7-9EBA-8002E537BA4F";
name = Light;
shapes = (
{
closed = 1;
nodes = (
(211,730,o),
(86,586,o),
(86,401,cs),
(86,115,ls),
(86,66,o),
(66,31,o),
(34,8,c),
(54,-8,l),
(89,18,o),
(140,31,o),
(174,31,cs),
(284,31,o),
(374,0,o),
(464,-11,c),
(535,136,l),
(520,145,l),
(494,113,o),
(451,83,o),
(405,83,cs),
(330,83,o),
(300,97,o),
(229,97,cs),
(187,97,o),
(160,80,o),
(131,57,c),
(126,59,l),
(150,89,o),
(167,117,o),
(167,163,cs),
(167,477,ls),
(167,572,o),
(212,675,o),
(338,675,c),
(384,675,o),
(416,652,o),
(416,608,cs),
(416,553,o),
(356,489,o),
(285,471,c),
(293,455,l),
(398,464,o),
(508,554,o),
(508,635,cs),
(508,692,o),
(462,730,o),
(392,730,cs)
);
}
);
width = 559;
},
{
anchors = (
{
name = bottom;
pos = (299,0);
},
{
name = center;
pos = (285,360);
},
{
name = top;
pos = (335,742);
},
{
name = topright;
pos = (548,918);
}
);
background = {
anchors = (
{
name = bottom;
pos = (299,0);
},
{
name = top;
pos = (335,742);
},
{
name = topright;
pos = (559,742);
}
);
shapes = (
{
closed = 1;
nodes = (
(200,730,o),
(71,586,o),
(71,401,cs),
(71,141,ls),
(71,79,o),
(60,54,o),
(32,26,c),
(69,-9,l),
(106,15,o),
(140,28,o),
(192,28,cs),
(302,28,o),
(356,-2,o),
(486,-9,c),
(574,186,l),
(544,209,l),
(515,167,o),
(485,138,o),
(431,138,cs),
(386,138,o),
(351,153,o),
(296,153,cs),
(260,153,o),
(227,145,o),
(203,134,c),
(197,140,l),
(218,163,o),
(229,183,o),
(229,221,cs),
(229,515,ls),
(229,582,o),
(268,668,o),
(341,668,cs),
(383,668,o),
(401,639,o),
(401,599,cs),
(401,537,o),
(372,502,o),
(302,460,c),
(315,425,l),
(451,463,o),
(549,527,o),
(549,623,cs),
(549,702,o),
(477,730,o),
(405,730,cs)
);
}
);
};
layerId = "39185045-6A8C-415A-8312-7B8F11386A4C";
name = Regular;
shapes = (
{
closed = 1;
nodes = (
(200,730,o),
(71,586,o),
(71,401,cs),
(71,141,ls),
(71,79,o),
(60,54,o),
(32,26,c),
(69,-9,l),
(106,15,o),
(140,28,o),
(192,28,cs),
(302,28,o),
(356,-2,o),
(486,-9,c),
(574,186,l),
(544,209,l),
(515,167,o),
(485,138,o),
(431,138,cs),
(386,138,o),
(351,153,o),
(296,153,cs),
(260,153,o),
(227,145,o),
(203,134,c),
(197,140,l),
(218,163,o),
(229,183,o),
(229,221,cs),
(229,515,ls),
(229,582,o),
(268,668,o),
(341,668,cs),
(383,668,o),
(401,639,o),
(401,599,cs),
(401,537,o),
(372,502,o),
(302,460,c),
(315,425,l),
(451,463,o),
(549,527,o),
(549,623,cs),
(549,702,o),
(477,730,o),
(405,730,cs)
);
}
);
width = 569;
}
);
unicode = 76;
},
{
color = 6;
glyphname = Lacute;
kernLeft = H;
kernRight = L;
lastChange = "2023-01-27 13:23:24 +0000";
layers = (
{
background = {
anchors = (
{
name = bottom;
pos = (293,0);
},
{
name = top;
pos = (328,742);
},
{
name = topright;
pos = (548,742);
}
);
shapes = (
{
closed = 1;
nodes = (
(211,730,o),
(86,586,o),
(86,401,cs),
(86,115,ls),
(86,66,o),
(66,31,o),
(34,8,c),
(54,-8,l),
(89,18,o),
(140,31,o),
(174,31,cs),
(284,31,o),
(374,0,o),
(464,-11,c),
(535,136,l),
(520,145,l),
(494,113,o),
(451,83,o),
(405,83,cs),
(330,83,o),
(300,97,o),
(229,97,cs),
(187,97,o),
(160,80,o),
(131,57,c),
(126,59,l),
(150,89,o),
(167,117,o),
(167,163,cs),
(167,477,ls),
(167,572,o),
(212,675,o),
(338,675,c),
(384,675,o),
(416,652,o),
(416,608,cs),
(416,553,o),
(356,489,o),
(285,471,c),
(293,455,l),
(398,464,o),
(508,554,o),
(508,635,cs),
(508,692,o),
(462,730,o),
(392,730,cs)
);
},
{
closed = 1;
nodes = (
(255,780,l),
(242,796,l),
(357,935,l),
(416,869,l)
);
}
);
};
layerId = "E777F328-EA17-4AE7-9EBA-8002E537BA4F";
name = Light;
shapes = (
{
ref = L;
},
{
pos = (172,20);
ref = acutecomb.case;
}
);
width = 559;
},
{
background = {
anchors = (
{
name = bottom;
pos = (299,0);
},
{
name = top;
pos = (335,742);
},
{
name = topright;
pos = (559,742);
}
);
shapes = (
{
closed = 1;
nodes = (
(200,730,o),
(71,586,o),
(71,401,cs),
(71,141,ls),
(71,79,o),
(60,54,o),
(32,26,c),
(69,-9,l),
(106,15,o),
(140,28,o),
(192,28,cs),
(302,28,o),
(356,-2,o),
(486,-9,c),
(574,186,l),
(544,209,l),
(515,167,o),
(485,138,o),
(431,138,cs),
(386,138,o),
(351,153,o),
(296,153,cs),
(260,153,o),
(227,145,o),
(203,134,c),
(197,140,l),
(218,163,o),
(229,183,o),
(229,221,cs),
(229,515,ls),
(229,582,o),
(268,668,o),
(341,668,cs),
(383,668,o),
(401,639,o),
(401,599,cs),
(401,537,o),
(372,502,o),
(302,460,c),
(315,425,l),
(451,463,o),
(549,527,o),
(549,623,cs),
(549,702,o),
(477,730,o),
(405,730,cs)
);
},
{
closed = 1;
nodes = (
(246,724,l),
(224,764,l),
(377,909,l),
(448,796,l)
);
}
);
};
layerId = "39185045-6A8C-415A-8312-7B8F11386A4C";
name = Regular;
shapes = (
{
ref = L;
},
{
pos = (154,22);
ref = acutecomb.case;
}
);
width = 569;
}
);
unicode = 313;
},
{
color = 6;
glyphname = Lcaron;
kernLeft = H;
kernRight = Lcaron;
lastChange = "2023-01-27 13:02:20 +0000";
layers = (
{
background = {
anchors = (
{
name = bottom;
pos = (293,0);
},
{
name = top;
pos = (328,742);
},
{
name = topright;
pos = (548,742);
}
);
shapes = (
{
closed = 1;
nodes = (
(211,730,o),
(86,586,o),
(86,401,cs),
(86,115,ls),
(86,66,o),
(66,31,o),
(34,8,c),
(54,-8,l),
(89,18,o),
(140,31,o),
(174,31,cs),
(284,31,o),
(374,0,o),
(464,-11,c),
(535,136,l),
(520,145,l),
(494,113,o),
(451,83,o),
(405,83,cs),
(330,83,o),
(300,97,o),
(229,97,cs),
(187,97,o),
(160,80,o),
(131,57,c),
(126,59,l),
(150,89,o),
(167,117,o),
(167,163,cs),
(167,477,ls),
(167,572,o),
(212,675,o),
(338,675,c),
(384,675,o),
(416,652,o),
(416,608,cs),
(416,553,o),
(356,489,o),
(285,471,c),
(293,455,l),
(398,464,o),
(508,554,o),
(508,635,cs),
(508,692,o),
(462,730,o),
(392,730,cs)
);
},
{
closed = 1;
nodes = (
(663,712,o),
(630,676,o),
(590,652,c),
(575,666,l),
(585,676,o),
(597,694,o),
(599,707,c),
(576,714,o),
(559,736,o),
(559,758,cs),
(559,788,o),
(581,813,o),
(612,813,cs),
(639,813,o),
(663,788,o),
(663,758,cs)
);
}
);
};
layerId = "E777F328-EA17-4AE7-9EBA-8002E537BA4F";
name = Light;
shapes = (
{
ref = L;
},
{
pos = (499,-1);
ref = caroncomb.alt;
}
);
width = 559;
},
{
background = {
anchors = (
{
name = bottom;
pos = (299,0);
},
{
name = top;
pos = (335,742);
},
{
name = topright;
pos = (559,742);
}
);
shapes = (
{
closed = 1;
nodes = (
(200,730,o),
(71,586,o),
(71,401,cs),
(71,141,ls),
(71,79,o),
(60,54,o),
(32,26,c),
(69,-9,l),
(106,15,o),
(140,28,o),
(192,28,cs),
(302,28,o),
(356,-2,o),
(486,-9,c),
(574,186,l),
(544,209,l),
(515,167,o),
(485,138,o),
(431,138,cs),
(386,138,o),
(351,153,o),
(296,153,cs),
(260,153,o),
(227,145,o),
(203,134,c),
(197,140,l),
(218,163,o),
(229,183,o),
(229,221,cs),
(229,515,ls),
(229,582,o),
(268,668,o),
(341,668,cs),
(383,668,o),
(401,639,o),
(401,599,cs),
(401,537,o),
(372,502,o),
(302,460,c),
(315,425,l),
(451,463,o),
(549,527,o),
(549,623,cs),
(549,702,o),
(477,730,o),
(405,730,cs)
);
},
{
closed = 1;
nodes = (
(717,701,o),
(667,646,o),
(613,614,c),
(589,634,l),
(604,648,o),
(622,673,o),
(625,694,c),
(592,704,o),
(568,733,o),
(568,767,cs),
(568,807,o),
(602,842,o),
(643,842,cs),
(683,842,o),
(717,807,o),
(717,767,cs)
);
}
);
};
layerId = "39185045-6A8C-415A-8312-7B8F11386A4C";
name = Regular;
shapes = (
{
ref = L;
},
{
pos = (500,0);
ref = caroncomb.alt;
}
);
width = 569;
}
);
unicode = 317;
},
{
color = 6;
glyphname = Lcommaaccent;
kernLeft = H;
kernRight = L;
lastChange = "2023-01-27 11:36:49 +0000";
layers = (
{
background = {
anchors = (
{
name = bottom;
pos = (293,0);
},
{
name = top;
pos = (328,742);
},
{
name = topright;
pos = (548,742);
}
);
shapes = (
{
closed = 1;
nodes = (
(211,730,o),
(86,586,o),
(86,401,cs),
(86,115,ls),
(86,66,o),
(66,31,o),
(34,8,c),
(54,-8,l),
(89,18,o),
(140,31,o),
(174,31,cs),
(284,31,o),
(374,0,o),
(464,-11,c),
(535,136,l),
(520,145,l),
(494,113,o),
(451,83,o),
(405,83,cs),
(330,83,o),
(300,97,o),
(229,97,cs),
(187,97,o),
(160,80,o),
(131,57,c),
(126,59,l),
(150,89,o),
(167,117,o),
(167,163,cs),
(167,477,ls),
(167,572,o),
(212,675,o),
(338,675,c),
(384,675,o),
(416,652,o),
(416,608,cs),
(416,553,o),
(356,489,o),
(285,471,c),
(293,455,l),
(398,464,o),
(508,554,o),
(508,635,cs),
(508,692,o),
(462,730,o),
(392,730,cs)
);
},
{
closed = 1;
nodes = (
(345,-141,o),
(311,-179,o),
(272,-203,c),
(256,-189,l),
(267,-177,o),
(277,-161,o),
(281,-146,c),
(258,-140,o),
(242,-119,o),
(242,-95,cs),
(242,-66,o),
(266,-42,o),
(293,-42,cs),
(321,-42,o),
(345,-66,o),
(345,-95,cs)
);
}
);
};
layerId = "E777F328-EA17-4AE7-9EBA-8002E537BA4F";
name = Light;
shapes = (
{
ref = L;
},
{
pos = (216,0);
ref = commaaccentcomb;
}
);
width = 559;
},
{
background = {
anchors = (
{
name = bottom;
pos = (299,0);
},
{
name = top;
pos = (335,742);
},
{
name = topright;
pos = (559,742);
}
);
shapes = (
{
closed = 1;
nodes = (
(200,730,o),
(71,586,o),
(71,401,cs),
(71,141,ls),
(71,79,o),
(60,54,o),
(32,26,c),
(69,-9,l),
(106,15,o),
(140,28,o),
(192,28,cs),
(302,28,o),
(356,-2,o),
(486,-9,c),
(574,186,l),
(544,209,l),
(515,167,o),
(485,138,o),
(431,138,cs),
(386,138,o),
(351,153,o),
(296,153,cs),
(260,153,o),
(227,145,o),
(203,134,c),
(197,140,l),
(218,163,o),
(229,183,o),
(229,221,cs),
(229,515,ls),
(229,582,o),
(268,668,o),
(341,668,cs),
(383,668,o),
(401,639,o),
(401,599,cs),
(401,537,o),
(372,502,o),
(302,460,c),
(315,425,l),
(451,463,o),
(549,527,o),
(549,623,cs),
(549,702,o),
(477,730,o),
(405,730,cs)
);
},
{
closed = 1;
nodes = (
(373,-185,o),
(326,-237,o),
(269,-269,c),
(246,-251,l),
(262,-236,o),
(278,-211,o),
(282,-191,c),
(248,-181,o),
(225,-151,o),
(225,-117,cs),
(225,-76,o),
(257,-42,o),
(299,-42,cs),
(340,-42,o),
(373,-76,o),
(373,-117,cs)
);
}
);
};
layerId = "39185045-6A8C-415A-8312-7B8F11386A4C";
name = Regular;
shapes = (
{
ref = L;
},
{
pos = (223,0);
ref = commaaccentcomb;
}
);
width = 569;
}
);
unicode = 315;
},
{
color = 6;
glyphname = Ldot;
kernLeft = H;
kernRight = L;
lastChange = "2023-01-27 13:03:57 +0000";
layers = (
{
background = {
anchors = (
{
name = bottom;
pos = (293,0);
},
{
name = top;
pos = (328,742);
},
{
name = topright;
pos = (548,742);
}
);
shapes = (
{
closed = 1;
nodes = (
(211,730,o),
(86,586,o),
(86,401,cs),
(86,115,ls),
(86,66,o),
(66,31,o),
(34,8,c),
(54,-8,l),
(89,18,o),
(140,31,o),
(174,31,cs),
(284,31,o),
(374,0,o),
(464,-11,c),
(535,136,l),
(520,145,l),
(494,113,o),
(451,83,o),
(405,83,cs),
(330,83,o),
(300,97,o),
(229,97,cs),
(187,97,o),
(160,80,o),
(131,57,c),
(126,59,l),
(150,89,o),
(167,117,o),
(167,163,cs),
(167,477,ls),
(167,572,o),
(212,675,o),
(338,675,c),
(384,675,o),
(416,652,o),
(416,608,cs),
(416,553,o),
(356,489,o),
(285,471,c),
(293,455,l),
(398,464,o),
(508,554,o),
(508,635,cs),
(508,692,o),
(462,730,o),
(392,730,cs)
);
},
{
closed = 1;
nodes = (
(532,301,o),
(504,277,o),
(474,277,cs),
(443,277,o),
(417,301,o),
(417,334,cs),
(417,365,o),
(443,391,o),
(474,391,cs),
(504,391,o),
(532,365,o),
(532,334,cs)
);
}
);
};
layerId = "E777F328-EA17-4AE7-9EBA-8002E537BA4F";
name = Light;
shapes = (
{
ref = L;
},
{
pos = (368,-28);
ref = periodcentered;
}
);
width = 559;
},
{
background = {
anchors = (
{
name = bottom;
pos = (299,0);
},
{
name = top;
pos = (335,742);
},
{
name = topright;
pos = (559,742);
}
);
shapes = (
{
closed = 1;
nodes = (
(200,730,o),
(71,586,o),
(71,401,cs),
(71,141,ls),
(71,79,o),
(60,54,o),
(32,26,c),
(69,-9,l),
(106,15,o),
(140,28,o),
(192,28,cs),
(302,28,o),
(356,-2,o),
(486,-9,c),
(574,186,l),
(544,209,l),
(515,167,o),
(485,138,o),
(431,138,cs),
(386,138,o),
(351,153,o),
(296,153,cs),
(260,153,o),
(227,145,o),
(203,134,c),
(197,140,l),
(218,163,o),
(229,183,o),
(229,221,cs),
(229,515,ls),
(229,582,o),
(268,668,o),
(341,668,cs),
(383,668,o),
(401,639,o),
(401,599,cs),
(401,537,o),
(372,502,o),
(302,460,c),
(315,425,l),
(451,463,o),
(549,527,o),
(549,623,cs),
(549,702,o),
(477,730,o),
(405,730,cs)
);
},
{
closed = 1;
nodes = (
(545,275,o),
(511,244,o),
(470,244,cs),
(428,244,o),
(396,275,o),
(396,319,cs),
(396,358,o),
(428,392,o),
(470,392,cs),
(511,392,o),
(545,358,o),
(545,319,cs)
);
}
);
};
layerId = "39185045-6A8C-415A-8312-7B8F11386A4C";
name = Regular;
shapes = (
{
ref = L;
},
{
pos = (364,-45);
ref = periodcentered;
}
);
width = 569;
}
);
unicode = 319;
},
{
color = 6;
glyphname = Lslash;
kernLeft = H;
kernRight = L;
lastChange = "2023-01-27 11:29:31 +0000";
layers = (
{
background = {
anchors = (
{
name = bottom;
pos = (293,0);
},
{
name = top;
pos = (328,742);
},
{
name = topright;
pos = (548,742);
}
);
shapes = (
{
closed = 1;
nodes = (
(9,273,l),
(9,218,l),
(268,319,l),
(268,372,l)
);
},
{
closed = 1;
nodes = (
(211,730,o),
(86,586,o),
(86,401,cs),
(86,115,ls),
(86,66,o),
(66,31,o),
(34,8,c),
(54,-8,l),
(89,18,o),
(140,31,o),
(174,31,cs),
(284,31,o),
(374,0,o),
(464,-11,c),
(535,136,l),
(520,145,l),
(494,113,o),
(451,83,o),
(405,83,cs),
(330,83,o),
(300,97,o),
(229,97,cs),
(187,97,o),
(160,80,o),
(131,57,c),
(126,59,l),
(150,89,o),
(167,117,o),
(167,163,cs),
(167,477,ls),
(167,572,o),
(212,675,o),
(338,675,c),
(384,675,o),
(416,652,o),
(416,608,cs),
(416,553,o),
(356,489,o),
(285,471,c),
(293,455,l),
(398,464,o),
(508,554,o),
(508,635,cs),
(508,692,o),
(462,730,o),
(392,730,cs)
);
}
);
};
layerId = "E777F328-EA17-4AE7-9EBA-8002E537BA4F";
name = Light;
shapes = (
{
closed = 1;
nodes = (
(9,273,l),
(9,218,l),
(268,319,l),
(268,372,l)
);
},
{
ref = L;
}
);
width = 559;
},
{
background = {
anchors = (
{
name = bottom;
pos = (299,0);
},
{
name = top;
pos = (335,742);
},
{
name = topright;
pos = (559,742);
}
);
shapes = (
{
closed = 1;
nodes = (
(7,278,l),
(7,217,l),
(292,322,l),
(292,384,l)
);
},
{
closed = 1;
nodes = (
(200,730,o),
(71,586,o),
(71,401,cs),
(71,141,ls),
(71,79,o),
(60,54,o),
(32,26,c),
(69,-9,l),
(106,15,o),
(140,28,o),
(192,28,cs),
(302,28,o),
(356,-2,o),
(486,-9,c),
(574,186,l),
(544,209,l),
(515,167,o),
(485,138,o),
(431,138,cs),
(386,138,o),
(351,153,o),
(296,153,cs),
(260,153,o),
(227,145,o),
(203,134,c),
(197,140,l),
(218,163,o),
(229,183,o),
(229,221,cs),
(229,515,ls),
(229,582,o),
(268,668,o),
(341,668,cs),
(383,668,o),
(401,639,o),
(401,599,cs),
(401,537,o),
(372,502,o),
(302,460,c),
(315,425,l),
(451,463,o),
(549,527,o),
(549,623,cs),
(549,702,o),
(477,730,o),
(405,730,cs)
);
}
);
};
layerId = "39185045-6A8C-415A-8312-7B8F11386A4C";
name = Regular;
shapes = (
{
closed = 1;
nodes = (
(7,278,l),
(7,217,l),
(292,322,l),
(292,384,l)
);
},
{
ref = L;
}
);
width = 569;
}
);
unicode = 321;
},
{
color = 6;
glyphname = M;
kernLeft = M;
kernRight = M;
lastChange = "2023-01-27 11:36:36 +0000";
layers = (
{
anchors = (
{
name = bottom;
pos = (442,0);
},
{
name = top;
pos = (442,720);
}
);
background = {
shapes = (
{
closed = 1;
nodes = (
(99,-13,l),
(179,18,l),
(179,263,ls),
(179,517,o),
(308,652,o),
(365,652,cs),
(377,652,o),
(392,644,o),
(392,617,c),
(392,-13,l),
(471,18,l),
(471,263,ls),
(471,517,o),
(599,652,o),
(655,652,cs),
(670,652,o),
(685,644,o),
(685,617,c),
(685,115,l),
(685,36,o),
(728,-4,o),
(782,-4,cs),
(832,-4,o),
(871,33,o),
(885,68,c),
(873,79,l),
(860,59,o),
(834,42,o),
(813,42,cs),
(782,42,o),
(764,69,o),
(764,109,c),
(764,643,l),
(764,694,o),
(745,728,o),
(701,728,cs),
(630,728,o),
(519,635,o),
(472,449,c),
(472,643,l),
(472,692,o),
(453,728,o),
(408,728,cs),
(338,728,o),
(226,635,o),
(179,446,c),
(179,728,l),
(99,694,l)
);
}
);
};
layerId = "E777F328-EA17-4AE7-9EBA-8002E537BA4F";
name = Light;
shapes = (
{
closed = 1;
nodes = (
(99,-13,l),
(179,18,l),
(179,263,ls),
(179,517,o),
(308,652,o),
(365,652,cs),
(377,652,o),
(392,644,o),
(392,617,c),
(392,-13,l),
(471,18,l),
(471,263,ls),
(471,517,o),
(599,652,o),
(655,652,cs),
(670,652,o),
(685,644,o),
(685,617,c),
(685,115,l),
(685,36,o),
(728,-4,o),
(782,-4,cs),
(832,-4,o),
(871,33,o),
(885,68,c),
(873,79,l),
(860,59,o),
(834,42,o),
(813,42,cs),
(782,42,o),
(764,69,o),
(764,109,c),
(764,643,l),
(764,694,o),
(745,728,o),
(701,728,cs),
(630,728,o),
(519,635,o),
(472,449,c),
(472,643,l),
(472,692,o),
(453,728,o),
(408,728,cs),
(338,728,o),
(226,635,o),
(179,446,c),
(179,728,l),
(99,694,l)
);
}
);
width = 883;
},
{
anchors = (
{
name = bottom;
pos = (456,0);
},
{
name = top;
pos = (456,720);
}
);
background = {
shapes = (
{
closed = 1;
nodes = (
(69,-21,l),
(226,26,l),
(226,413,ls),
(226,475,o),
(260,670,o),
(325,670,cs),
(370,670,o),
(370,606,o),
(370,559,cs),
(370,-21,l),
(527,26,l),
(527,413,ls),
(527,475,o),
(561,670,o),
(625,670,cs),
(671,670,o),
(671,606,o),
(671,559,cs),
(671,134,ls),
(671,33,o),
(714,-9,o),
(792,-9,cs),
(871,-9,o),
(909,23,o),
(941,66,c),
(914,92,l),
(897,74,o),
(879,60,o),
(857,60,cs),
(837,60,o),
(829,80,o),
(829,96,cs),
(829,584,ls),
(829,662,o),
(785,730,o),
(690,730,cs),
(613,730,o),
(554,686,o),
(526,577,c),
(526,585,l),
(523,666,o),
(482,730,o),
(391,730,cs),
(313,730,o),
(253,686,o),
(226,582,c),
(226,738,l),
(69,692,l)
);
}
);
};
layerId = "39185045-6A8C-415A-8312-7B8F11386A4C";
name = Regular;
shapes = (
{
closed = 1;
nodes = (
(69,-21,l),
(226,26,l),
(226,413,ls),
(226,475,o),
(260,670,o),
(325,670,cs),
(370,670,o),
(370,606,o),
(370,559,cs),
(370,-21,l),
(527,26,l),
(527,413,ls),
(527,475,o),
(561,670,o),
(625,670,cs),
(671,670,o),
(671,606,o),
(671,559,cs),
(671,134,ls),
(671,33,o),
(714,-9,o),
(792,-9,cs),
(871,-9,o),
(909,23,o),
(941,66,c),
(914,92,l),
(897,74,o),
(879,60,o),
(857,60,cs),
(837,60,o),
(829,80,o),
(829,96,cs),
(829,584,ls),
(829,662,o),
(785,730,o),
(690,730,cs),
(613,730,o),
(554,686,o),
(526,577,c),
(526,585,l),
(523,666,o),
(482,730,o),
(391,730,cs),
(313,730,o),
(253,686,o),
(226,582,c),
(226,738,l),
(69,692,l)
);
}
);
width = 912;
}
);
metricRight = "=N";
unicode = 77;
},
{
color = 6;
glyphname = N;
kernLeft = H;
kernRight = H;
lastChange = "2023-01-27 11:29:29 +0000";
layers = (
{
anchors = (
{
name = bottom;
pos = (313,0);
},
{
name = top;
pos = (306,742);
}
);
background = {
anchors = (
{
name = bottom;
pos = (313,0);
},
{
name = top;
pos = (306,742);
}
);
shapes = (
{
closed = 1;
nodes = (
(96,-11,l),
(176,23,l),
(176,346,ls),
(176,443,o),
(220,678,o),
(353,678,cs),
(427,678,o),
(428,594,o),
(428,545,cs),
(428,115,l),
(428,36,o),
(472,-4,o),
(526,-4,cs),
(575,-4,o),
(615,33,o),
(628,68,c),
(617,79,l),
(605,59,o),
(579,42,o),
(556,42,cs),
(526,42,o),
(508,69,o),
(508,109,c),
(508,588,ls),
(508,662,o),
(471,730,o),
(389,730,cs),
(260,730,o),
(198,625,o),
(176,528,c),
(176,730,l),
(96,697,l)
);
}
);
};
layerId = "E777F328-EA17-4AE7-9EBA-8002E537BA4F";
name = Light;
shapes = (
{
closed = 1;
nodes = (
(96,-11,l),
(176,23,l),
(176,346,ls),
(176,443,o),
(220,678,o),
(353,678,cs),
(427,678,o),
(428,594,o),
(428,545,cs),
(428,115,l),
(428,36,o),
(472,-4,o),
(526,-4,cs),
(575,-4,o),
(615,33,o),
(628,68,c),
(617,79,l),
(605,59,o),
(579,42,o),
(556,42,cs),
(526,42,o),
(508,69,o),
(508,109,c),
(508,588,ls),
(508,662,o),
(471,730,o),
(389,730,cs),
(260,730,o),
(198,625,o),
(176,528,c),
(176,730,l),
(96,697,l)
);
}
);
width = 626;
},
{
anchors = (
{
name = bottom;
pos = (319,0);
},
{
name = top;
pos = (334,742);
}
);
background = {
anchors = (
{
name = bottom;
pos = (319,0);
},
{
name = top;
pos = (334,742);
}
);
shapes = (
{
closed = 1;
nodes = (
(69,-21,l),
(226,26,l),
(226,413,ls),
(226,475,o),
(268,670,o),
(351,670,cs),
(394,670,o),
(395,606,o),
(395,559,cs),
(395,134,ls),
(395,33,o),
(437,-9,o),
(517,-9,cs),
(597,-9,o),
(632,23,o),
(665,66,c),
(635,92,l),
(621,74,o),
(602,60,o),
(580,60,cs),
(559,60,o),
(553,80,o),
(553,96,cs),
(553,584,ls),
(553,662,o),
(511,730,o),
(416,730,cs),
(326,730,o),
(268,686,o),
(226,582,c),
(226,738,l),
(69,692,l)
);
}
);
};
layerId = "39185045-6A8C-415A-8312-7B8F11386A4C";
name = Regular;
shapes = (
{
closed = 1;
nodes = (
(69,-21,l),
(226,26,l),
(226,413,ls),
(226,475,o),
(268,670,o),
(351,670,cs),
(394,670,o),
(395,606,o),
(395,559,cs),
(395,134,ls),
(395,33,o),
(437,-9,o),
(517,-9,cs),
(597,-9,o),
(632,23,o),
(665,66,c),
(635,92,l),
(621,74,o),
(602,60,o),
(580,60,cs),
(559,60,o),
(553,80,o),
(553,96,cs),
(553,584,ls),
(553,662,o),
(511,730,o),
(416,730,cs),
(326,730,o),
(268,686,o),
(226,582,c),
(226,738,l),
(69,692,l)
);
}
);
width = 636;
}
);
unicode = 78;
},
{
color = 6;
glyphname = Nacute;
kernLeft = H;
kernRight = H;
lastChange = "2023-01-27 13:23:24 +0000";
layers = (
{
background = {
anchors = (
{
name = bottom;
pos = (313,0);
},
{
name = top;
pos = (306,742);
}
);
shapes = (
{
closed = 1;
nodes = (
(96,-11,l),
(176,23,l),
(176,346,ls),
(176,443,o),
(220,678,o),
(353,678,cs),
(427,678,o),
(428,594,o),
(428,545,cs),
(428,115,l),
(428,36,o),
(472,-4,o),
(526,-4,cs),
(575,-4,o),
(615,33,o),
(628,68,c),
(617,79,l),
(605,59,o),
(579,42,o),
(556,42,cs),
(526,42,o),
(508,69,o),
(508,109,c),
(508,588,ls),
(508,662,o),
(471,730,o),
(389,730,cs),
(260,730,o),
(198,625,o),
(176,528,c),
(176,730,l),
(96,697,l)
);
},
{
closed = 1;
nodes = (
(233,780,l),
(220,796,l),
(335,935,l),
(394,869,l)
);
}
);
};
layerId = "E777F328-EA17-4AE7-9EBA-8002E537BA4F";
name = Light;
shapes = (
{
ref = N;
},
{
pos = (150,20);
ref = acutecomb.case;
}
);
width = 626;
},
{
background = {
anchors = (
{
name = bottom;
pos = (319,0);
},
{
name = top;
pos = (334,742);
}
);
shapes = (
{
closed = 1;
nodes = (
(69,-21,l),
(226,26,l),
(226,413,ls),
(226,475,o),
(268,670,o),
(351,670,cs),
(394,670,o),
(395,606,o),
(395,559,cs),
(395,134,ls),
(395,33,o),
(437,-9,o),
(517,-9,cs),
(597,-9,o),
(632,23,o),
(665,66,c),
(635,92,l),
(621,74,o),
(602,60,o),
(580,60,cs),
(559,60,o),
(553,80,o),
(553,96,cs),
(553,584,ls),
(553,662,o),
(511,730,o),
(416,730,cs),
(326,730,o),
(268,686,o),
(226,582,c),
(226,738,l),
(69,692,l)
);
},
{
closed = 1;
nodes = (
(245,724,l),
(223,764,l),
(376,909,l),
(447,796,l)
);
}
);
};
layerId = "39185045-6A8C-415A-8312-7B8F11386A4C";
name = Regular;
shapes = (
{
ref = N;
},
{
pos = (153,22);
ref = acutecomb.case;
}
);
width = 636;
}
);
unicode = 323;
},
{
color = 6;
glyphname = Ncaron;
kernLeft = H;
kernRight = H;
lastChange = "2023-01-27 12:44:40 +0000";
layers = (
{
background = {
anchors = (
{
name = bottom;
pos = (313,0);
},
{
name = top;
pos = (306,742);
}
);
shapes = (
{
closed = 1;
nodes = (
(96,-11,l),
(176,23,l),
(176,346,ls),
(176,443,o),
(220,678,o),
(353,678,cs),
(427,678,o),
(428,594,o),
(428,545,cs),
(428,115,l),
(428,36,o),
(472,-4,o),
(526,-4,cs),
(575,-4,o),
(615,33,o),
(628,68,c),
(617,79,l),
(605,59,o),
(579,42,o),
(556,42,cs),
(526,42,o),
(508,69,o),
(508,109,c),
(508,588,ls),
(508,662,o),
(471,730,o),
(389,730,cs),
(260,730,o),
(198,625,o),
(176,528,c),
(176,730,l),
(96,697,l)
);
},
{
closed = 1;
nodes = (
(174,911,l),
(309,784,l),
(439,929,l),
(414,950,l),
(334,861,l),
(225,964,l)
);
}
);
};
layerId = "E777F328-EA17-4AE7-9EBA-8002E537BA4F";
name = Light;
shapes = (
{
ref = N;
},
{
pos = (104,22);
ref = caroncomb.case;
}
);
width = 626;
},
{
background = {
anchors = (
{
name = bottom;
pos = (319,0);
},
{
name = top;
pos = (334,742);
}
);
shapes = (
{
closed = 1;
nodes = (
(69,-21,l),
(226,26,l),
(226,413,ls),
(226,475,o),
(268,670,o),
(351,670,cs),
(394,670,o),
(395,606,o),
(395,559,cs),
(395,134,ls),
(395,33,o),
(437,-9,o),
(517,-9,cs),
(597,-9,o),
(632,23,o),
(665,66,c),
(635,92,l),
(621,74,o),
(602,60,o),
(580,60,cs),
(559,60,o),
(553,80,o),
(553,96,cs),
(553,584,ls),
(553,662,o),
(511,730,o),
(416,730,cs),
(326,730,o),
(268,686,o),
(226,582,c),
(226,738,l),
(69,692,l)
);
},
{
closed = 1;
nodes = (
(179,847,l),
(333,739,l),
(458,894,l),
(419,924,l),
(356,846,l),
(241,929,l)
);
}
);
};
layerId = "39185045-6A8C-415A-8312-7B8F11386A4C";
name = Regular;
shapes = (
{
ref = N;
},
{
pos = (109,22);
ref = caroncomb.case;
}
);
width = 636;
}
);
unicode = 327;
},
{
color = 6;
glyphname = Ncommaaccent;
kernLeft = H;
kernRight = H;
lastChange = "2023-01-27 11:36:49 +0000";
layers = (
{
background = {
anchors = (
{
name = bottom;
pos = (313,0);
},
{
name = top;
pos = (306,742);
}
);
shapes = (
{
closed = 1;
nodes = (
(96,-11,l),
(176,23,l),
(176,346,ls),
(176,443,o),
(220,678,o),
(353,678,cs),
(427,678,o),
(428,594,o),
(428,545,cs),
(428,115,l),
(428,36,o),
(472,-4,o),
(526,-4,cs),
(575,-4,o),
(615,33,o),
(628,68,c),
(617,79,l),
(605,59,o),
(579,42,o),
(556,42,cs),
(526,42,o),
(508,69,o),
(508,109,c),
(508,588,ls),
(508,662,o),
(471,730,o),
(389,730,cs),
(260,730,o),
(198,625,o),
(176,528,c),
(176,730,l),
(96,697,l)
);
},
{
closed = 1;
nodes = (
(365,-141,o),
(331,-179,o),
(292,-203,c),
(276,-189,l),
(287,-177,o),
(297,-161,o),
(301,-146,c),
(278,-140,o),
(262,-119,o),
(262,-95,cs),
(262,-66,o),
(286,-42,o),
(313,-42,cs),
(341,-42,o),
(365,-66,o),
(365,-95,cs)
);
}
);
};
layerId = "E777F328-EA17-4AE7-9EBA-8002E537BA4F";
name = Light;
shapes = (
{
ref = N;
},
{
pos = (236,0);
ref = commaaccentcomb;
}
);
width = 626;
},
{
background = {
anchors = (
{
name = bottom;
pos = (319,0);
},
{
name = top;
pos = (334,742);
}
);
shapes = (
{
closed = 1;
nodes = (
(69,-21,l),
(226,26,l),
(226,413,ls),
(226,475,o),
(268,670,o),
(351,670,cs),
(394,670,o),
(395,606,o),
(395,559,cs),
(395,134,ls),
(395,33,o),
(437,-9,o),
(517,-9,cs),
(597,-9,o),
(632,23,o),
(665,66,c),
(635,92,l),
(621,74,o),
(602,60,o),
(580,60,cs),
(559,60,o),
(553,80,o),
(553,96,cs),
(553,584,ls),
(553,662,o),
(511,730,o),
(416,730,cs),
(326,730,o),
(268,686,o),
(226,582,c),
(226,738,l),
(69,692,l)
);
},
{
closed = 1;
nodes = (
(393,-185,o),
(346,-237,o),
(289,-269,c),
(266,-251,l),
(282,-236,o),
(298,-211,o),
(302,-191,c),
(268,-181,o),
(245,-151,o),
(245,-117,cs),
(245,-76,o),
(277,-42,o),
(319,-42,cs),
(360,-42,o),
(393,-76,o),
(393,-117,cs)
);
}
);
};
layerId = "39185045-6A8C-415A-8312-7B8F11386A4C";
name = Regular;
shapes = (
{
ref = N;
},
{
pos = (243,0);
ref = commaaccentcomb;
}
);
width = 636;
}
);
unicode = 325;
},
{
color = 6;
glyphname = Ntilde;
kernLeft = H;
kernRight = H;
lastChange = "2023-01-27 12:49:12 +0000";
layers = (
{
background = {
anchors = (
{
name = bottom;
pos = (313,0);
},
{
name = top;
pos = (306,742);
}
);
shapes = (
{
closed = 1;
nodes = (
(96,-11,l),
(176,23,l),
(176,346,ls),
(176,443,o),
(220,678,o),
(353,678,cs),
(427,678,o),
(428,594,o),
(428,545,cs),
(428,115,l),
(428,36,o),
(472,-4,o),
(526,-4,cs),
(575,-4,o),
(615,33,o),
(628,68,c),
(617,79,l),
(605,59,o),
(579,42,o),
(556,42,cs),
(526,42,o),
(508,69,o),
(508,109,c),
(508,588,ls),
(508,662,o),
(471,730,o),
(389,730,cs),
(260,730,o),
(198,625,o),
(176,528,c),
(176,730,l),
(96,697,l)
);
},
{
closed = 1;
nodes = (
(369,937,l),
(373,927,o),
(374,919,o),
(374,911,cs),
(374,892,o),
(368,880,o),
(355,880,cs),
(329,880,o),
(312,937,o),
(265,937,cs),
(220,937,o),
(197,904,o),
(197,865,cs),
(197,852,o),
(200,829,o),
(218,807,c),
(246,815,l),
(241,825,o),
(239,833,o),
(239,840,cs),
(239,862,o),
(247,872,o),
(259,872,cs),
(285,872,o),
(301,815,o),
(350,815,cs),
(394,815,o),
(418,847,o),
(418,887,cs),
(418,899,o),
(415,923,o),
(397,944,c)
);
}
);
};
layerId = "E777F328-EA17-4AE7-9EBA-8002E537BA4F";
name = Light;
shapes = (
{
ref = N;
},
{
pos = (127,22);
ref = tildecomb.case;
}
);
width = 626;
},
{
background = {
anchors = (
{
name = bottom;
pos = (319,0);
},
{
name = top;
pos = (334,742);
}
);
shapes = (
{
closed = 1;
nodes = (
(69,-21,l),
(226,26,l),
(226,413,ls),
(226,475,o),
(268,670,o),
(351,670,cs),
(394,670,o),
(395,606,o),
(395,559,cs),
(395,134,ls),
(395,33,o),
(437,-9,o),
(517,-9,cs),
(597,-9,o),
(632,23,o),
(665,66,c),
(635,92,l),
(621,74,o),
(602,60,o),
(580,60,cs),
(559,60,o),
(553,80,o),
(553,96,cs),
(553,584,ls),
(553,662,o),
(511,730,o),
(416,730,cs),
(326,730,o),
(268,686,o),
(226,582,c),
(226,738,l),
(69,692,l)
);
},
{
closed = 1;
nodes = (
(381,891,l),
(386,886,o),
(390,878,o),
(390,869,cs),
(390,858,o),
(383,851,o),
(372,851,cs),
(341,851,o),
(330,902,o),
(271,902,cs),
(222,902,o),
(190,864,o),
(190,820,cs),
(190,796,o),
(198,772,o),
(217,750,c),
(254,768,l),
(249,774,o),
(247,781,o),
(247,791,cs),
(247,801,o),
(252,809,o),
(264,809,cs),
(295,809,o),
(305,758,o),
(364,758,cs),
(414,758,o),
(446,796,o),
(446,839,cs),
(446,863,o),
(438,888,o),
(419,909,c)
);
}
);
};
layerId = "39185045-6A8C-415A-8312-7B8F11386A4C";
name = Regular;
shapes = (
{
ref = N;
},
{
pos = (120,22);
ref = tildecomb.case;
}
);
width = 636;
}
);
unicode = 209;
},
{
color = 6;
glyphname = Eng;
kernLeft = Eng;
kernRight = Eng;
lastChange = "2023-01-27 11:36:36 +0000";
layers = (
{
anchors = (
{
name = bottom;
pos = (280,0);
},
{
name = top;
pos = (280,720);
}
);
background = {
shapes = (
{
closed = 1;
nodes = (
(106,697,l),
(106,-11,l),
(186,23,l),
(186,347,ls),
(186,443,o),
(226,678,o),
(353,678,cs),
(421,678,o),
(423,595,o),
(423,545,cs),
(423,-18,l),
(423,-60,o),
(411,-149,o),
(336,-149,cs),
(288,-149,o),
(236,-109,o),
(214,-74,c),
(141,-140,l),
(185,-172,o),
(243,-192,o),
(285,-192,cs),
(437,-192,o),
(502,-71,o),
(502,55,c),
(502,588,ls),
(502,662,o),
(468,730,o),
(389,730,cs),
(267,730,o),
(207,625,o),
(186,530,c),
(186,730,l)
);
}
);
};
layerId = "E777F328-EA17-4AE7-9EBA-8002E537BA4F";
name = Light;
shapes = (
{
closed = 1;
nodes = (
(106,697,l),
(106,-11,l),
(186,23,l),
(186,347,ls),
(186,443,o),
(226,678,o),
(353,678,cs),
(421,678,o),
(423,595,o),
(423,545,cs),
(423,-18,l),
(423,-60,o),
(411,-149,o),
(336,-149,cs),
(288,-149,o),
(236,-109,o),
(214,-74,c),
(141,-140,l),
(185,-172,o),
(243,-192,o),
(285,-192,cs),
(437,-192,o),
(502,-71,o),
(502,55,c),
(502,588,ls),
(502,662,o),
(468,730,o),
(389,730,cs),
(267,730,o),
(207,625,o),
(186,530,c),
(186,730,l)
);
}
);
width = 559;
},
{
anchors = (
{
name = bottom;
pos = (310,0);
},
{
name = top;
pos = (310,720);
}
);
background = {
shapes = (
{
closed = 1;
nodes = (
(69,692,l),
(69,-21,l),
(226,26,l),
(226,413,ls),
(226,475,o),
(268,670,o),
(351,670,cs),
(395,670,o),
(397,606,o),
(397,559,cs),
(397,-89,l),
(397,-160,o),
(368,-186,o),
(324,-186,cs),
(280,-186,o),
(241,-134,o),
(222,-91,c),
(113,-186,l),
(158,-225,o),
(209,-243,o),
(293,-243,cs),
(421,-243,o),
(554,-132,o),
(554,7,c),
(554,584,ls),
(554,662,o),
(511,730,o),
(416,730,cs),
(326,730,o),
(268,686,o),
(226,582,c),
(226,738,l)
);
}
);
};
layerId = "39185045-6A8C-415A-8312-7B8F11386A4C";
name = Regular;
shapes = (
{
closed = 1;
nodes = (
(69,692,l),
(69,-21,l),
(226,26,l),
(226,413,ls),
(226,475,o),
(268,670,o),
(351,670,cs),
(395,670,o),
(397,606,o),
(397,559,cs),
(397,-89,l),
(397,-160,o),
(368,-186,o),
(324,-186,cs),
(280,-186,o),
(241,-134,o),
(222,-91,c),
(113,-186,l),
(158,-225,o),
(209,-243,o),
(293,-243,cs),
(421,-243,o),
(554,-132,o),
(554,7,c),
(554,584,ls),
(554,662,o),
(511,730,o),
(416,730,cs),
(326,730,o),
(268,686,o),
(226,582,c),
(226,738,l)
);
}
);
width = 620;
}
);
unicode = 330;
},
{
color = 6;
glyphname = O;
kernLeft = O;
kernRight = O;
lastChange = "2023-01-27 12:43:02 +0000";
layers = (
{
anchors = (
{
name = bottom;
pos = (363,0);
},
{
name = center;
pos = (363,360);
},
{
name = ogonek;
pos = (653,10);
},
{
name = top;
pos = (370,742);
},
{
name = topleft;
pos = (20,720);
},
{
name = topright;
pos = (706,720);
}
);
background = {
anchors = (
{
name = top;
pos = (370,742);
}
);
shapes = (
{
closed = 1;
nodes = (
(141,722,o),
(48,527,o),
(48,349,cs),
(48,169,o),
(169,-19,o),
(368,-19,cs),
(590,-19,o),
(683,176,o),
(683,349,cs),
(683,535,o),
(563,722,o),
(368,722,cs)
);
},
{
closed = 1;
nodes = (
(528,666,o),
(603,437,o),
(603,284,cs),
(603,185,o),
(553,41,o),
(411,41,cs),
(203,41,o),
(126,267,o),
(126,425,cs),
(126,525,o),
(177,666,o),
(319,666,cs)
);
}
);
};
layerId = "E777F328-EA17-4AE7-9EBA-8002E537BA4F";
name = Light;
shapes = (
{
closed = 1;
nodes = (
(141,722,o),
(48,527,o),
(48,349,cs),
(48,169,o),
(169,-19,o),
(368,-19,cs),
(590,-19,o),
(683,176,o),
(683,349,cs),
(683,535,o),
(563,722,o),
(368,722,cs)
);
},
{
closed = 1;
nodes = (
(528,666,o),
(603,437,o),
(603,284,cs),
(603,185,o),
(553,41,o),
(411,41,cs),
(203,41,o),
(126,267,o),
(126,425,cs),
(126,525,o),
(177,666,o),
(319,666,cs)
);
}
);
width = 726;
},
{
anchors = (
{
name = bottom;
pos = (368,0);
},
{
name = center;
pos = (368,360);
},
{
name = ogonek;
pos = (662,10);
},
{
name = top;
pos = (368,742);
},
{
name = topleft;
pos = (20,720);
},
{
name = topright;
pos = (715,720);
}
);
background = {
anchors = (
{
name = top;
pos = (368,742);
}
);
shapes = (
{
closed = 1;
nodes = (
(158,730,o),
(28,558,o),
(28,361,cs),
(28,177,o),
(158,-9,o),
(368,-9,cs),
(579,-9,o),
(707,163,o),
(707,361,cs),
(707,543,o),
(579,730,o),
(368,730,cs)
);
},
{
closed = 1;
nodes = (
(491,675,o),
(551,460,o),
(551,306,cs),
(551,193,o),
(513,50,o),
(398,50,cs),
(243,50,o),
(185,264,o),
(185,419,cs),
(185,533,o),
(222,675,o),
(339,675,cs)
);
}
);
};
layerId = "39185045-6A8C-415A-8312-7B8F11386A4C";
name = Regular;
shapes = (
{
closed = 1;
nodes = (
(158,730,o),
(28,558,o),
(28,361,cs),
(28,177,o),
(158,-9,o),
(368,-9,cs),
(579,-9,o),
(707,163,o),
(707,361,cs),
(707,543,o),
(579,730,o),
(368,730,cs)
);
},
{
closed = 1;
nodes = (
(491,675,o),
(551,460,o),
(551,306,cs),
(551,193,o),
(513,50,o),
(398,50,cs),
(243,50,o),
(185,264,o),
(185,419,cs),
(185,533,o),
(222,675,o),
(339,675,cs)
);
}
);
width = 735;
}
);
unicode = 79;
},
{
color = 6;
glyphname = Oacute;
kernLeft = O;
kernRight = O;
lastChange = "2023-01-27 13:23:24 +0000";
layers = (
{
background = {
anchors = (
{
name = top;
pos = (370,742);
}
);
shapes = (
{
closed = 1;
nodes = (
(141,722,o),
(48,527,o),
(48,349,cs),
(48,169,o),
(169,-19,o),
(368,-19,cs),
(590,-19,o),
(683,176,o),
(683,349,cs),
(683,535,o),
(563,722,o),
(368,722,cs)
);
},
{
closed = 1;
nodes = (
(528,666,o),
(603,437,o),
(603,284,cs),
(603,185,o),
(553,41,o),
(411,41,cs),
(203,41,o),
(126,267,o),
(126,425,cs),
(126,525,o),
(177,666,o),
(319,666,cs)
);
},
{
closed = 1;
nodes = (
(297,780,l),
(284,796,l),
(399,935,l),
(458,869,l)
);
}
);
};
layerId = "E777F328-EA17-4AE7-9EBA-8002E537BA4F";
name = Light;
shapes = (
{
ref = O;
},
{
pos = (214,20);
ref = acutecomb.case;
}
);
width = 726;
},
{
background = {
anchors = (
{
name = top;
pos = (368,742);
}
);
shapes = (
{
closed = 1;
nodes = (
(158,730,o),
(28,558,o),
(28,361,cs),
(28,177,o),
(158,-9,o),
(368,-9,cs),
(579,-9,o),
(707,163,o),
(707,361,cs),
(707,543,o),
(579,730,o),
(368,730,cs)
);
},
{
closed = 1;
nodes = (
(491,675,o),
(551,460,o),
(551,306,cs),
(551,193,o),
(513,50,o),
(398,50,cs),
(243,50,o),
(185,264,o),
(185,419,cs),
(185,533,o),
(222,675,o),
(339,675,cs)
);
},
{
closed = 1;
nodes = (
(279,724,l),
(257,764,l),
(410,909,l),
(481,796,l)
);
}
);
};
layerId = "39185045-6A8C-415A-8312-7B8F11386A4C";
name = Regular;
shapes = (
{
ref = O;
},
{
pos = (187,22);
ref = acutecomb.case;
}
);
width = 735;
}
);
unicode = 211;
},
{
color = 6;
glyphname = Obreve;
kernLeft = O;
kernRight = O;
lastChange = "2023-01-27 12:45:59 +0000";
layers = (
{
background = {
anchors = (
{
name = top;
pos = (370,742);
}
);
shapes = (
{
closed = 1;
nodes = (
(141,722,o),
(48,527,o),
(48,349,cs),
(48,169,o),
(169,-19,o),
(368,-19,cs),
(590,-19,o),
(683,176,o),
(683,349,cs),
(683,535,o),
(563,722,o),
(368,722,cs)
);
},
{
closed = 1;
nodes = (
(528,666,o),
(603,437,o),
(603,284,cs),
(603,185,o),
(553,41,o),
(411,41,cs),
(203,41,o),
(126,267,o),
(126,425,cs),
(126,525,o),
(177,666,o),
(319,666,cs)
);
},
{
closed = 1;
nodes = (
(318,946,l),
(308,932,o),
(304,913,o),
(304,897,cs),
(304,861,o),
(324,804,o),
(368,804,cs),
(395,804,o),
(414,825,o),
(414,852,cs),
(414,877,o),
(400,903,o),
(383,919,c),
(447,959,l),
(467,938,o),
(475,913,o),
(475,885,cs),
(475,818,o),
(425,775,o),
(358,775,cs),
(304,775,o),
(264,810,o),
(264,865,cs),
(264,897,o),
(281,937,o),
(304,957,c)
);
}
);
};
layerId = "E777F328-EA17-4AE7-9EBA-8002E537BA4F";
name = Light;
shapes = (
{
ref = O;
},
{
pos = (184,22);
ref = brevecomb.case;
}
);
width = 726;
},
{
background = {
anchors = (
{
name = top;
pos = (368,742);
}
);
shapes = (
{
closed = 1;
nodes = (
(158,730,o),
(28,558,o),
(28,361,cs),
(28,177,o),
(158,-9,o),
(368,-9,cs),
(579,-9,o),
(707,163,o),
(707,361,cs),
(707,543,o),
(579,730,o),
(368,730,cs)
);
},
{
closed = 1;
nodes = (
(491,675,o),
(551,460,o),
(551,306,cs),
(551,193,o),
(513,50,o),
(398,50,cs),
(243,50,o),
(185,264,o),
(185,419,cs),
(185,533,o),
(222,675,o),
(339,675,cs)
);
},
{
closed = 1;
nodes = (
(314,902,l),
(309,889,o),
(304,875,o),
(304,849,cs),
(304,816,o),
(319,766,o),
(351,766,cs),
(370,766,o),
(384,784,o),
(384,809,cs),
(384,837,o),
(372,862,o),
(358,874,c),
(435,923,l),
(461,896,o),
(473,867,o),
(473,841,cs),
(473,774,o),
(417,729,o),
(344,729,cs),
(283,729,o),
(237,765,o),
(237,821,cs),
(237,862,o),
(254,894,o),
(289,920,c)
);
}
);
};
layerId = "39185045-6A8C-415A-8312-7B8F11386A4C";
name = Regular;
shapes = (
{
ref = O;
},
{
pos = (166,22);
ref = brevecomb.case;
}
);
width = 735;
}
);
unicode = 334;
},
{
color = 6;
glyphname = Ocircumflex;
kernLeft = O;
kernRight = O;
lastChange = "2023-01-27 12:43:53 +0000";
layers = (
{
background = {
anchors = (
{
name = top;
pos = (370,742);
}
);
shapes = (
{
closed = 1;
nodes = (
(141,722,o),
(48,527,o),
(48,349,cs),
(48,169,o),
(169,-19,o),
(368,-19,cs),
(590,-19,o),
(683,176,o),
(683,349,cs),
(683,535,o),
(563,722,o),
(368,722,cs)
);
},
{
closed = 1;
nodes = (
(528,666,o),
(603,437,o),
(603,284,cs),
(603,185,o),
(553,41,o),
(411,41,cs),
(203,41,o),
(126,267,o),
(126,425,cs),
(126,525,o),
(177,666,o),
(319,666,cs)
);
},
{
closed = 1;
nodes = (
(238,811,l),
(264,791,l),
(343,880,l),
(453,776,l),
(503,829,l),
(368,957,l)
);
}
);
};
layerId = "E777F328-EA17-4AE7-9EBA-8002E537BA4F";
name = Light;
shapes = (
{
ref = O;
},
{
pos = (168,22);
ref = circumflexcomb.case;
}
);
width = 726;
},
{
background = {
anchors = (
{
name = top;
pos = (368,742);
}
);
shapes = (
{
closed = 1;
nodes = (
(158,730,o),
(28,558,o),
(28,361,cs),
(28,177,o),
(158,-9,o),
(368,-9,cs),
(579,-9,o),
(707,163,o),
(707,361,cs),
(707,543,o),
(579,730,o),
(368,730,cs)
);
},
{
closed = 1;
nodes = (
(491,675,o),
(551,460,o),
(551,306,cs),
(551,193,o),
(513,50,o),
(398,50,cs),
(243,50,o),
(185,264,o),
(185,419,cs),
(185,533,o),
(222,675,o),
(339,675,cs)
);
},
{
closed = 1;
nodes = (
(213,754,l),
(252,724,l),
(314,802,l),
(431,720,l),
(491,801,l),
(338,909,l)
);
}
);
};
layerId = "39185045-6A8C-415A-8312-7B8F11386A4C";
name = Regular;
shapes = (
{
ref = O;
},
{
pos = (144,22);
ref = circumflexcomb.case;
}
);
width = 735;
}
);
unicode = 212;
},
{
color = 6;
glyphname = Odieresis;
kernLeft = O;
kernRight = O;
lastChange = "2023-01-27 12:43:02 +0000";
layers = (
{
background = {
anchors = (
{
name = top;
pos = (370,742);
}
);
shapes = (
{
closed = 1;
nodes = (
(141,722,o),
(48,527,o),
(48,349,cs),
(48,169,o),
(169,-19,o),
(368,-19,cs),
(590,-19,o),
(683,176,o),
(683,349,cs),
(683,535,o),
(563,722,o),
(368,722,cs)
);
},
{
closed = 1;
nodes = (
(528,666,o),
(603,437,o),
(603,284,cs),
(603,185,o),
(553,41,o),
(411,41,cs),
(203,41,o),
(126,267,o),
(126,425,cs),
(126,525,o),
(177,666,o),
(319,666,cs)
);
},
{
closed = 1;
nodes = (
(427,932,o),
(401,906,o),
(401,876,cs),
(401,844,o),
(427,820,o),
(457,820,cs),
(489,820,o),
(513,844,o),
(513,876,cs),
(513,906,o),
(489,932,o),
(457,932,cs)
);
},
{
closed = 1;
nodes = (
(252,932,o),
(227,906,o),
(227,876,cs),
(227,844,o),
(252,820,o),
(282,820,cs),
(313,820,o),
(339,844,o),
(339,876,cs),
(339,906,o),
(313,932,o),
(282,932,cs)
);
}
);
};
layerId = "E777F328-EA17-4AE7-9EBA-8002E537BA4F";
name = Light;
shapes = (
{
ref = O;
},
{
pos = (197,22);
ref = dieresiscomb.case;
}
);
width = 726;
},
{
background = {
anchors = (
{
name = top;
pos = (368,742);
}
);
shapes = (
{
closed = 1;
nodes = (
(158,730,o),
(28,558,o),
(28,361,cs),
(28,177,o),
(158,-9,o),
(368,-9,cs),
(579,-9,o),
(707,163,o),
(707,361,cs),
(707,543,o),
(579,730,o),
(368,730,cs)
);
},
{
closed = 1;
nodes = (
(491,675,o),
(551,460,o),
(551,306,cs),
(551,193,o),
(513,50,o),
(398,50,cs),
(243,50,o),
(185,264,o),
(185,419,cs),
(185,533,o),
(222,675,o),
(339,675,cs)
);
},
{
closed = 1;
nodes = (
(402,902,o),
(370,868,o),
(370,830,cs),
(370,791,o),
(402,760,o),
(440,760,cs),
(480,760,o),
(512,791,o),
(512,830,cs),
(512,868,o),
(480,902,o),
(440,902,cs)
);
},
{
closed = 1;
nodes = (
(218,902,o),
(185,868,o),
(185,830,cs),
(185,791,o),
(218,760,o),
(257,760,cs),
(296,760,o),
(327,791,o),
(327,830,cs),
(327,868,o),
(296,902,o),
(257,902,cs)
);
}
);
};
layerId = "39185045-6A8C-415A-8312-7B8F11386A4C";
name = Regular;
shapes = (
{
ref = O;
},
{
pos = (155,22);
ref = dieresiscomb.case;
}
);
width = 735;
}
);
unicode = 214;
},
{
color = 6;
glyphname = Ograve;
kernLeft = O;
kernRight = O;
lastChange = "2023-01-27 12:43:02 +0000";
layers = (
{
background = {
anchors = (
{
name = top;
pos = (370,742);
}
);
shapes = (
{
closed = 1;
nodes = (
(141,722,o),
(48,527,o),
(48,349,cs),
(48,169,o),
(169,-19,o),
(368,-19,cs),
(590,-19,o),
(683,176,o),
(683,349,cs),
(683,535,o),
(563,722,o),
(368,722,cs)
);
},
{
closed = 1;
nodes = (
(528,666,o),
(603,437,o),
(603,284,cs),
(603,185,o),
(553,41,o),
(411,41,cs),
(203,41,o),
(126,267,o),
(126,425,cs),
(126,525,o),
(177,666,o),
(319,666,cs)
);
},
{
closed = 1;
nodes = (
(270,869,l),
(328,935,l),
(444,796,l),
(431,778,l)
);
}
);
};
layerId = "E777F328-EA17-4AE7-9EBA-8002E537BA4F";
name = Light;
shapes = (
{
ref = O;
},
{
pos = (200,22);
ref = gravecomb.case;
}
);
width = 726;
},
{
background = {
anchors = (
{
name = top;
pos = (368,742);
}
);
shapes = (
{
closed = 1;
nodes = (
(158,730,o),
(28,558,o),
(28,361,cs),
(28,177,o),
(158,-9,o),
(368,-9,cs),
(579,-9,o),
(707,163,o),
(707,361,cs),
(707,543,o),
(579,730,o),
(368,730,cs)
);
},
{
closed = 1;
nodes = (
(491,675,o),
(551,460,o),
(551,306,cs),
(551,193,o),
(513,50,o),
(398,50,cs),
(243,50,o),
(185,264,o),
(185,419,cs),
(185,533,o),
(222,675,o),
(339,675,cs)
);
},
{
closed = 1;
nodes = (
(242,796,l),
(311,909,l),
(467,764,l),
(445,724,l)
);
}
);
};
layerId = "39185045-6A8C-415A-8312-7B8F11386A4C";
name = Regular;
shapes = (
{
ref = O;
},
{
pos = (162,22);
ref = gravecomb.case;
}
);
width = 735;
}
);
unicode = 210;
},
{
color = 6;
glyphname = Ohungarumlaut;
kernLeft = O;
kernRight = O;
lastChange = "2023-01-27 13:30:54 +0000";
layers = (
{
background = {
anchors = (
{
name = top;
pos = (370,742);
}
);
shapes = (
{
closed = 1;
nodes = (
(141,722,o),
(48,527,o),
(48,349,cs),
(48,169,o),
(169,-19,o),
(368,-19,cs),
(590,-19,o),
(683,176,o),
(683,349,cs),
(683,535,o),
(563,722,o),
(368,722,cs)
);
},
{
closed = 1;
nodes = (
(528,666,o),
(603,437,o),
(603,284,cs),
(603,185,o),
(553,41,o),
(411,41,cs),
(203,41,o),
(126,267,o),
(126,425,cs),
(126,525,o),
(177,666,o),
(319,666,cs)
);
},
{
closed = 1;
nodes = (
(230,780,l),
(217,796,l),
(332,935,l),
(391,869,l)
);
},
{
closed = 1;
nodes = (
(362,780,l),
(349,796,l),
(465,935,l),
(523,869,l)
);
}
);
};
layerId = "E777F328-EA17-4AE7-9EBA-8002E537BA4F";
name = Light;
shapes = (
{
ref = O;
},
{
pos = (217,247);
ref = hungarumlautcomb;
}
);
width = 726;
},
{
background = {
anchors = (
{
name = top;
pos = (368,742);
}
);
shapes = (
{
closed = 1;
nodes = (
(158,730,o),
(28,558,o),
(28,361,cs),
(28,177,o),
(158,-9,o),
(368,-9,cs),
(579,-9,o),
(707,163,o),
(707,361,cs),
(707,543,o),
(579,730,o),
(368,730,cs)
);
},
{
closed = 1;
nodes = (
(491,675,o),
(551,460,o),
(551,306,cs),
(551,193,o),
(513,50,o),
(398,50,cs),
(243,50,o),
(185,264,o),
(185,419,cs),
(185,533,o),
(222,675,o),
(339,675,cs)
);
},
{
closed = 1;
nodes = (
(174,724,l),
(146,764,l),
(270,909,l),
(340,796,l)
);
},
{
closed = 1;
nodes = (
(378,724,l),
(351,764,l),
(475,909,l),
(546,796,l)
);
}
);
};
layerId = "39185045-6A8C-415A-8312-7B8F11386A4C";
name = Regular;
shapes = (
{
ref = O;
},
{
pos = (168,247);
ref = hungarumlautcomb;
}
);
width = 735;
}
);
unicode = 336;
},
{
color = 6;
glyphname = Omacron;
kernLeft = O;
kernRight = O;
lastChange = "2023-01-27 13:15:20 +0000";
layers = (
{
background = {
anchors = (
{
name = top;
pos = (370,742);
}
);
shapes = (
{
closed = 1;
nodes = (
(141,722,o),
(48,527,o),
(48,349,cs),
(48,169,o),
(169,-19,o),
(368,-19,cs),
(590,-19,o),
(683,176,o),
(683,349,cs),
(683,535,o),
(563,722,o),
(368,722,cs)
);
},
{
closed = 1;
nodes = (
(528,666,o),
(603,437,o),
(603,284,cs),
(603,185,o),
(553,41,o),
(411,41,cs),
(203,41,o),
(126,267,o),
(126,425,cs),
(126,525,o),
(177,666,o),
(319,666,cs)
);
},
{
closed = 1;
nodes = (
(250,842,l),
(286,906,l),
(491,906,l),
(457,842,l)
);
}
);
};
layerId = "E777F328-EA17-4AE7-9EBA-8002E537BA4F";
name = Light;
shapes = (
{
ref = O;
},
{
pos = (250,247);
ref = macroncomb.case;
}
);
width = 726;
},
{
background = {
anchors = (
{
name = top;
pos = (368,742);
}
);
shapes = (
{
closed = 1;
nodes = (
(158,730,o),
(28,558,o),
(28,361,cs),
(28,177,o),
(158,-9,o),
(368,-9,cs),
(579,-9,o),
(707,163,o),
(707,361,cs),
(707,543,o),
(579,730,o),
(368,730,cs)
);
},
{
closed = 1;
nodes = (
(491,675,o),
(551,460,o),
(551,306,cs),
(551,193,o),
(513,50,o),
(398,50,cs),
(243,50,o),
(185,264,o),
(185,419,cs),
(185,533,o),
(222,675,o),
(339,675,cs)
);
},
{
closed = 1;
nodes = (
(216,784,l),
(253,877,l),
(491,877,l),
(454,784,l)
);
}
);
};
layerId = "39185045-6A8C-415A-8312-7B8F11386A4C";
name = Regular;
shapes = (
{
ref = O;
},
{
pos = (211,247);
ref = macroncomb.case;
}
);
width = 735;
}
);
unicode = 332;
},
{
color = 6;
glyphname = Oslash;
kernLeft = O;
kernRight = O;
lastChange = "2023-01-27 11:46:25 +0000";
layers = (
{
background = {
anchors = (
{
name = top;
pos = (364,742);
}
);
shapes = (
{
closed = 1;
nodes = (
(141,722,o),
(48,527,o),
(48,349,cs),
(48,169,o),
(169,-19,o),
(368,-19,cs),
(590,-19,o),
(683,176,o),
(683,349,cs),
(683,535,o),
(563,722,o),
(368,722,cs)
);
},
{
closed = 1;
nodes = (
(528,666,o),
(603,437,o),
(603,284,cs),
(603,185,o),
(553,41,o),
(411,41,cs),
(203,41,o),
(126,267,o),
(126,425,cs),
(126,525,o),
(177,666,o),
(319,666,cs)
);
},
{
closed = 1;
nodes = (
(116,14,l),
(158,-13,l),
(609,697,l),
(573,721,l)
);
}
);
};
layerId = "E777F328-EA17-4AE7-9EBA-8002E537BA4F";
name = Light;
shapes = (
{
ref = O;
},
{
pos = (74,0);
ref = slash;
}
);
width = 726;
},
{
background = {
anchors = (
{
name = top;
pos = (368,742);
}
);
shapes = (
{
closed = 1;
nodes = (
(158,730,o),
(28,558,o),
(28,361,cs),
(28,177,o),
(158,-9,o),
(368,-9,cs),
(579,-9,o),
(707,163,o),
(707,361,cs),
(707,543,o),
(579,730,o),
(368,730,cs)
);
},
{
closed = 1;
nodes = (
(491,675,o),
(551,460,o),
(551,306,cs),
(551,193,o),
(513,50,o),
(398,50,cs),
(243,50,o),
(185,264,o),
(185,419,cs),
(185,533,o),
(222,675,o),
(339,675,cs)
);
},
{
closed = 1;
nodes = (
(108,17,l),
(170,-25,l),
(627,694,l),
(570,733,l)
);
}
);
};
layerId = "39185045-6A8C-415A-8312-7B8F11386A4C";
name = Regular;
shapes = (
{
alignment = -1;
ref = O;
},
{
alignment = -1;
pos = (79,0);
ref = slash;
}
);
width = 662;
}
);
unicode = 216;
},
{
color = 6;
glyphname = Oslashacute;
kernLeft = O;
kernRight = O;
lastChange = "2023-01-27 13:23:24 +0000";
layers = (
{
background = {
anchors = (
{
name = top;
pos = (370,742);
}
);
shapes = (
{
closed = 1;
nodes = (
(141,722,o),
(48,527,o),
(48,349,cs),
(48,169,o),
(169,-19,o),
(368,-19,cs),
(590,-19,o),
(683,176,o),
(683,349,cs),
(683,535,o),
(563,722,o),
(368,722,cs)
);
},
{
closed = 1;
nodes = (
(528,666,o),
(603,437,o),
(603,284,cs),
(603,185,o),
(553,41,o),
(411,41,cs),
(203,41,o),
(126,267,o),
(126,425,cs),
(126,525,o),
(177,666,o),
(319,666,cs)
);
},
{
closed = 1;
nodes = (
(116,14,l),
(158,-13,l),
(609,697,l),
(573,721,l)
);
},
{
closed = 1;
nodes = (
(297,780,l),
(284,796,l),
(399,935,l),
(458,869,l)
);
}
);
};
layerId = "E777F328-EA17-4AE7-9EBA-8002E537BA4F";
name = Light;
shapes = (
{
ref = Oslash;
},
{
pos = (214,20);
ref = acutecomb.case;
}
);
width = 726;
},
{
background = {
anchors = (
{
name = top;
pos = (368,742);
}
);
shapes = (
{
closed = 1;
nodes = (
(158,730,o),
(28,558,o),
(28,361,cs),
(28,177,o),
(158,-9,o),
(368,-9,cs),
(579,-9,o),
(707,163,o),
(707,361,cs),
(707,543,o),
(579,730,o),
(368,730,cs)
);
},
{
closed = 1;
nodes = (
(491,675,o),
(551,460,o),
(551,306,cs),
(551,193,o),
(513,50,o),
(398,50,cs),
(243,50,o),
(185,264,o),
(185,419,cs),
(185,533,o),
(222,675,o),
(339,675,cs)
);
},
{
closed = 1;
nodes = (
(103,17,l),
(165,-25,l),
(622,694,l),
(565,733,l)
);
},
{
closed = 1;
nodes = (
(279,724,l),
(257,764,l),
(410,909,l),
(481,796,l)
);
}
);
};
layerId = "39185045-6A8C-415A-8312-7B8F11386A4C";
name = Regular;
shapes = (
{
ref = Oslash;
},
{
pos = (187,22);
ref = acutecomb.case;
}
);
width = 662;
}
);
unicode = 510;
},
{
color = 6;
glyphname = Otilde;
kernLeft = O;
kernRight = O;
lastChange = "2023-01-27 12:49:12 +0000";
layers = (
{
background = {
anchors = (
{
name = top;
pos = (370,742);
}
);
shapes = (
{
closed = 1;
nodes = (
(141,722,o),
(48,527,o),
(48,349,cs),
(48,169,o),
(169,-19,o),
(368,-19,cs),
(590,-19,o),
(683,176,o),
(683,349,cs),
(683,535,o),
(563,722,o),
(368,722,cs)
);
},
{
closed = 1;
nodes = (
(528,666,o),
(603,437,o),
(603,284,cs),
(603,185,o),
(553,41,o),
(411,41,cs),
(203,41,o),
(126,267,o),
(126,425,cs),
(126,525,o),
(177,666,o),
(319,666,cs)
);
},
{
closed = 1;
nodes = (
(433,937,l),
(437,927,o),
(438,919,o),
(438,911,cs),
(438,892,o),
(432,880,o),
(419,880,cs),
(393,880,o),
(376,937,o),
(329,937,cs),
(284,937,o),
(261,904,o),
(261,865,cs),
(261,852,o),
(264,829,o),
(282,807,c),
(310,815,l),
(305,825,o),
(303,833,o),
(303,840,cs),
(303,862,o),
(311,872,o),
(323,872,cs),
(349,872,o),
(365,815,o),
(414,815,cs),
(458,815,o),
(482,847,o),
(482,887,cs),
(482,899,o),
(479,923,o),
(461,944,c)
);
}
);
};
layerId = "E777F328-EA17-4AE7-9EBA-8002E537BA4F";
name = Light;
shapes = (
{
ref = O;
},
{
pos = (191,22);
ref = tildecomb.case;
}
);
width = 726;
},
{
background = {
anchors = (
{
name = top;
pos = (368,742);
}
);
shapes = (
{
closed = 1;
nodes = (
(158,730,o),
(28,558,o),
(28,361,cs),
(28,177,o),
(158,-9,o),
(368,-9,cs),
(579,-9,o),
(707,163,o),
(707,361,cs),
(707,543,o),
(579,730,o),
(368,730,cs)
);
},
{
closed = 1;
nodes = (
(491,675,o),
(551,460,o),
(551,306,cs),
(551,193,o),
(513,50,o),
(398,50,cs),
(243,50,o),
(185,264,o),
(185,419,cs),
(185,533,o),
(222,675,o),
(339,675,cs)
);
},
{
closed = 1;
nodes = (
(415,891,l),
(420,886,o),
(424,878,o),
(424,869,cs),
(424,858,o),
(417,851,o),
(406,851,cs),
(375,851,o),
(364,902,o),
(305,902,cs),
(256,902,o),
(224,864,o),
(224,820,cs),
(224,796,o),
(232,772,o),
(251,750,c),
(288,768,l),
(283,774,o),
(281,781,o),
(281,791,cs),
(281,801,o),
(286,809,o),
(298,809,cs),
(329,809,o),
(339,758,o),
(398,758,cs),
(448,758,o),
(480,796,o),
(480,839,cs),
(480,863,o),
(472,888,o),
(453,909,c)
);
}
);
};
layerId = "39185045-6A8C-415A-8312-7B8F11386A4C";
name = Regular;
shapes = (
{
ref = O;
},
{
pos = (154,22);
ref = tildecomb.case;
}
);
width = 735;
}
);
unicode = 213;
},
{
color = 6;
glyphname = OE;
kernLeft = O;
kernRight = E;
lastChange = "2023-01-27 11:36:36 +0000";
layers = (
{
anchors = (
{
name = bottom;
pos = (493,0);
},
{
name = top;
pos = (501,742);
}
);
background = {
anchors = (
{
name = top;
pos = (501,742);
}
);
shapes = (
{
closed = 1;
nodes = (
(141,722,o),
(48,527,o),
(48,349,cs),
(48,169,o),
(169,-19,o),
(368,-19,cs),
(438,-19,o),
(496,0,o),
(542,33,c),
(574,5,o),
(620,-11,o),
(671,-11,cs),
(804,-11,o),
(917,76,o),
(977,177,c),
(958,194,l),
(921,132,o),
(823,64,o),
(715,64,cs),
(626,64,o),
(577,125,o),
(577,203,cs),
(577,320,o),
(714,394,o),
(803,421,c),
(795,447,l),
(783,441,o),
(769,441,o),
(752,441,cs),
(685,441,o),
(608,494,o),
(608,558,cs),
(608,625,o),
(681,670,o),
(752,670,cs),
(808,670,o),
(847,635,o),
(878,609,c),
(928,657,l),
(896,694,o),
(858,714,o),
(809,714,cs),
(741,714,o),
(639,684,o),
(590,615,c),
(538,680,o),
(462,722,o),
(368,722,cs)
);
},
{
closed = 1;
nodes = (
(453,666,o),
(530,577,o),
(568,478,c),
(583,437,o),
(620,406,o),
(671,394,c),
(579,353,o),
(481,273,o),
(481,168,cs),
(481,131,o),
(491,97,o),
(508,69,c),
(482,52,o),
(450,41,o),
(411,41,cs),
(203,41,o),
(126,267,o),
(126,425,c),
(126,525,o),
(177,666,o),
(319,666,cs)
);
}
);
};
layerId = "E777F328-EA17-4AE7-9EBA-8002E537BA4F";
name = Light;
shapes = (
{
closed = 1;
nodes = (
(141,722,o),
(48,527,o),
(48,349,cs),
(48,169,o),
(169,-19,o),
(368,-19,cs),
(438,-19,o),
(496,0,o),
(542,33,c),
(574,5,o),
(620,-11,o),
(671,-11,cs),
(804,-11,o),
(917,76,o),
(977,177,c),
(958,194,l),
(921,132,o),
(823,64,o),
(715,64,cs),
(626,64,o),
(577,125,o),
(577,203,cs),
(577,320,o),
(714,394,o),
(803,421,c),
(795,447,l),
(783,441,o),
(769,441,o),
(752,441,cs),
(685,441,o),
(608,494,o),
(608,558,cs),
(608,625,o),
(681,670,o),
(752,670,cs),
(808,670,o),
(847,635,o),
(878,609,c),
(928,657,l),
(896,694,o),
(858,714,o),
(809,714,cs),
(741,714,o),
(639,684,o),
(590,615,c),
(538,680,o),
(462,722,o),
(368,722,cs)
);
},
{
closed = 1;
nodes = (
(453,666,o),
(530,577,o),
(568,478,c),
(583,437,o),
(620,406,o),
(671,394,c),
(579,353,o),
(481,273,o),
(481,168,cs),
(481,131,o),
(491,97,o),
(508,69,c),
(482,52,o),
(450,41,o),
(411,41,cs),
(203,41,o),
(126,267,o),
(126,425,c),
(126,525,o),
(177,666,o),
(319,666,cs)
);
}
);
width = 986;
},
{
anchors = (
{
name = bottom;
pos = (483,0);
},
{
name = top;
pos = (483,742);
}
);
background = {
anchors = (
{
name = top;
pos = (483,742);
}
);
shapes = (
{
closed = 1;
nodes = (
(158,730,o),
(28,558,o),
(28,361,cs),
(28,177,o),
(158,-9,o),
(368,-9,cs),
(424,-9,o),
(474,3,o),
(518,24,c),
(553,3,o),
(599,-11,o),
(658,-11,cs),
(798,-11,o),
(914,88,o),
(975,196,c),
(936,229,l),
(896,154,o),
(814,77,o),
(716,77,cs),
(652,77,o),
(614,132,o),
(614,203,cs),
(614,325,o),
(728,394,o),
(834,427,c),
(824,464,l),
(800,455,o),
(777,451,o),
(756,451,cs),
(692,451,o),
(651,492,o),
(651,570,cs),
(651,634,o),
(694,678,o),
(740,678,cs),
(777,678,o),
(814,653,o),
(839,590,c),
(954,652,l),
(915,702,o),
(850,730,o),
(782,730,cs),
(701,730,o),
(626,701,o),
(579,653,c),
(523,700,o),
(452,730,o),
(368,730,cs)
);
},
{
closed = 1;
nodes = (
(437,675,o),
(498,585,o),
(527,481,cs),
(540,437,o),
(572,397,o),
(617,383,c),
(530,341,o),
(446,267,o),
(446,169,cs),
(446,133,o),
(453,100,o),
(470,74,c),
(451,59,o),
(427,50,o),
(398,50,cs),
(243,50,o),
(185,264,o),
(185,419,c),
(185,533,o),
(222,675,o),
(339,675,cs)
);
}
);
};
layerId = "39185045-6A8C-415A-8312-7B8F11386A4C";
name = Regular;
shapes = (
{
closed = 1;
nodes = (
(158,730,o),
(28,558,o),
(28,361,cs),
(28,177,o),
(158,-9,o),
(368,-9,cs),
(424,-9,o),
(474,3,o),
(518,24,c),
(553,3,o),
(599,-11,o),
(658,-11,cs),
(798,-11,o),
(914,88,o),
(975,196,c),
(936,229,l),
(896,154,o),
(814,77,o),
(716,77,cs),
(652,77,o),
(614,132,o),
(614,203,cs),
(614,325,o),
(728,394,o),
(834,427,c),
(824,464,l),
(800,455,o),
(777,451,o),
(756,451,cs),
(692,451,o),
(651,492,o),
(651,570,cs),
(651,634,o),
(694,678,o),
(740,678,cs),
(777,678,o),
(814,653,o),
(839,590,c),
(954,652,l),
(915,702,o),
(850,730,o),
(782,730,cs),
(701,730,o),
(626,701,o),
(579,653,c),
(523,700,o),
(452,730,o),
(368,730,cs)
);
},
{
closed = 1;
nodes = (
(437,675,o),
(498,585,o),
(527,481,cs),
(540,437,o),
(572,397,o),
(617,383,c),
(530,341,o),
(446,267,o),
(446,169,cs),
(446,133,o),
(453,100,o),
(470,74,c),
(451,59,o),
(427,50,o),
(398,50,cs),
(243,50,o),
(185,264,o),
(185,419,c),
(185,533,o),
(222,675,o),
(339,675,cs)
);
}
);
width = 965;
}
);
metricLeft = "=O";
metricRight = "=E";
unicode = 338;
},
{
color = 6;
glyphname = P;
kernLeft = H;
kernRight = P;
lastChange = "2023-01-27 11:36:36 +0000";
layers = (
{
anchors = (
{
name = bottom;
pos = (309,0);
},
{
name = top;
pos = (309,720);
}
);
background = {
shapes = (
{
closed = 1;
nodes = (
(268,709,o),
(126,641,o),
(32,553,c),
(49,535,l),
(124,605,o),
(238,652,o),
(329,652,cs),
(456,652,o),
(513,580,o),
(513,485,cs),
(513,339,o),
(368,238,o),
(237,225,c),
(231,198,l),
(231,197,o),
(236,197,o),
(239,197,cs),
(405,197,o),
(599,334,o),
(599,504,cs),
(599,652,o),
(498,709,o),
(385,709,c)
);
},
{
closed = 1;
nodes = (
(96,528,l),
(96,-11,l),
(176,21,l),
(176,563,l)
);
}
);
};
layerId = "E777F328-EA17-4AE7-9EBA-8002E537BA4F";
name = Light;
shapes = (
{
closed = 1;
nodes = (
(268,709,o),
(126,641,o),
(32,553,c),
(49,535,l),
(124,605,o),
(238,652,o),
(329,652,cs),
(456,652,o),
(513,580,o),
(513,485,cs),
(513,339,o),
(368,238,o),
(237,225,c),
(231,198,l),
(231,197,o),
(236,197,o),
(239,197,cs),
(405,197,o),
(599,334,o),
(599,504,cs),
(599,652,o),
(498,709,o),
(385,709,c)
);
},
{
closed = 1;
nodes = (
(96,528,l),
(96,-11,l),
(176,21,l),
(176,563,l)
);
}
);
width = 618;
},
{
anchors = (
{
name = bottom;
pos = (315,0);
},
{
name = top;
pos = (315,720);
}
);
background = {
shapes = (
{
closed = 1;
nodes = (
(223,742,o),
(101,666,o),
(11,586,c),
(44,551,l),
(120,615,o),
(218,671,o),
(319,671,cs),
(428,671,o),
(474,608,o),
(474,517,cs),
(474,372,o),
(334,281,o),
(203,260,c),
(198,231,l),
(214,229,o),
(222,229,o),
(227,229,cs),
(431,229,o),
(630,365,o),
(630,536,cs),
(630,655,o),
(545,742,o),
(400,742,cs)
);
},
{
closed = 1;
nodes = (
(80,561,l),
(80,-23,l),
(230,25,l),
(230,606,l)
);
}
);
};
layerId = "39185045-6A8C-415A-8312-7B8F11386A4C";
name = Regular;
shapes = (
{
closed = 1;
nodes = (
(223,742,o),
(101,666,o),
(11,586,c),
(44,551,l),
(120,615,o),
(218,671,o),
(319,671,cs),
(428,671,o),
(474,608,o),
(474,517,cs),
(474,372,o),
(334,281,o),
(203,260,c),
(198,231,l),
(214,229,o),
(222,229,o),
(227,229,cs),
(431,229,o),
(630,365,o),
(630,536,cs),
(630,655,o),
(545,742,o),
(400,742,cs)
);
},
{
closed = 1;
nodes = (
(80,561,l),
(80,-23,l),
(230,25,l),
(230,606,l)
);
}
);
width = 630;
}
);
unicode = 80;
},
{
color = 6;
glyphname = Thorn;
kernLeft = H;
kernRight = Thorn;
lastChange = "2023-01-27 11:36:36 +0000";
layers = (
{
anchors = (
{
name = bottom;
pos = (309,0);
},
{
name = top;
pos = (309,720);
}
);
background = {
shapes = (
{
closed = 1;
nodes = (
(271,625,o),
(131,558,o),
(34,468,c),
(51,451,l),
(126,520,o),
(241,568,o),
(332,568,cs),
(458,568,o),
(517,496,o),
(517,401,cs),
(517,255,o),
(370,154,o),
(239,140,c),
(234,114,l),
(234,113,o),
(238,113,o),
(242,113,cs),
(408,113,o),
(602,249,o),
(602,420,cs),
(602,568,o),
(501,625,o),
(389,625,c)
);
},
{
closed = 1;
nodes = (
(95,694,l),
(95,-42,l),
(176,-9,l),
(176,728,l)
);
}
);
};
layerId = "E777F328-EA17-4AE7-9EBA-8002E537BA4F";
name = Light;
shapes = (
{
closed = 1;
nodes = (
(271,625,o),
(131,558,o),
(34,468,c),
(51,451,l),
(126,520,o),
(241,568,o),
(332,568,cs),
(458,568,o),
(517,496,o),
(517,401,cs),
(517,255,o),
(370,154,o),
(239,140,c),
(234,114,l),
(234,113,o),
(238,113,o),
(242,113,cs),
(408,113,o),
(602,249,o),
(602,420,cs),
(602,568,o),
(501,625,o),
(389,625,c)
);
},
{
closed = 1;
nodes = (
(95,694,l),
(95,-42,l),
(176,-9,l),
(176,728,l)
);
}
);
width = 618;
},
{
anchors = (
{
name = bottom;
pos = (311,0);
},
{
name = top;
pos = (311,720);
}
);
background = {
shapes = (
{
closed = 1;
nodes = (
(213,626,o),
(91,553,o),
(2,472,c),
(33,437,l),
(110,501,o),
(208,556,o),
(309,556,cs),
(419,556,o),
(464,494,o),
(464,403,cs),
(464,257,o),
(322,167,o),
(193,146,c),
(187,117,l),
(203,114,o),
(211,114,o),
(217,114,cs),
(421,114,o),
(621,251,o),
(621,421,cs),
(621,542,o),
(536,626,o),
(391,626,cs)
);
},
{
closed = 1;
nodes = (
(69,692,l),
(69,-21,l),
(226,25,l),
(226,737,l)
);
}
);
};
layerId = "39185045-6A8C-415A-8312-7B8F11386A4C";
name = Regular;
shapes = (
{
closed = 1;
nodes = (
(213,626,o),
(91,553,o),
(2,472,c),
(33,437,l),
(110,501,o),
(208,556,o),
(309,556,cs),
(419,556,o),
(464,494,o),
(464,403,cs),
(464,257,o),
(322,167,o),
(193,146,c),
(187,117,l),
(203,114,o),
(211,114,o),
(217,114,cs),
(421,114,o),
(621,251,o),
(621,421,cs),
(621,542,o),
(536,626,o),
(391,626,cs)
);
},
{
closed = 1;
nodes = (
(69,692,l),
(69,-21,l),
(226,25,l),
(226,737,l)
);
}
);
width = 621;
}
);
unicode = 222;
},
{
color = 6;
glyphname = Q;
kernLeft = O;
kernRight = O;
lastChange = "2023-01-27 11:29:31 +0000";
layers = (
{
background = {
anchors = (
{
name = top;
pos = (370,742);
}
);
shapes = (
{
closed = 1;
nodes = (
(249,203,o),
(217,179,o),
(194,150,c),
(212,131,l),
(226,140,o),
(242,146,o),
(267,146,cs),
(304,146,o),
(339,110,o),
(402,14,cs),
(456,-68,o),
(501,-101,o),
(558,-101,cs),
(599,-101,o),
(632,-77,o),
(654,-49,c),
(635,-29,l),
(623,-37,o),
(606,-44,o),
(581,-44,cs),
(544,-44,o),
(509,-8,o),
(446,86,cs),
(392,169,o),
(347,203,o),
(291,203,cs)
);
},
{
closed = 1;
nodes = (
(141,722,o),
(48,527,o),
(48,349,cs),
(48,169,o),
(169,-19,o),
(368,-19,cs),
(590,-19,o),
(683,176,o),
(683,349,cs),
(683,535,o),
(563,722,o),
(368,722,cs)
);
},
{
closed = 1;
nodes = (
(528,666,o),
(603,437,o),
(603,284,cs),
(603,185,o),
(553,41,o),
(411,41,cs),
(203,41,o),
(126,267,o),
(126,425,cs),
(126,525,o),
(177,666,o),
(319,666,cs)
);
}
);
};
layerId = "E777F328-EA17-4AE7-9EBA-8002E537BA4F";
name = Light;
shapes = (
{
closed = 1;
nodes = (
(249,203,o),
(217,179,o),
(194,150,c),
(212,131,l),
(226,140,o),
(242,146,o),
(267,146,cs),
(304,146,o),
(339,110,o),
(402,14,cs),
(456,-68,o),
(501,-101,o),
(558,-101,cs),
(599,-101,o),
(632,-77,o),
(654,-49,c),
(635,-29,l),
(623,-37,o),
(606,-44,o),
(581,-44,cs),
(544,-44,o),
(509,-8,o),
(446,86,cs),
(392,169,o),
(347,203,o),
(291,203,cs)
);
},
{
ref = O;
}
);
width = 726;
},
{
background = {
anchors = (
{
name = top;
pos = (368,742);
}
);
shapes = (
{
closed = 1;
nodes = (
(262,260,o),
(220,214,o),
(200,181,c),
(220,160,l),
(229,169,o),
(242,179,o),
(262,179,cs),
(308,179,o),
(340,146,o),
(416,42,cs),
(502,-76,o),
(538,-99,o),
(619,-99,cs),
(686,-99,o),
(727,-55,o),
(747,-21,c),
(727,0,l),
(719,-8,o),
(706,-18,o),
(685,-18,cs),
(639,-18,o),
(608,15,o),
(532,119,cs),
(446,236,o),
(409,260,o),
(329,260,cs)
);
},
{
closed = 1;
nodes = (
(158,730,o),
(28,558,o),
(28,361,cs),
(28,177,o),
(158,-9,o),
(368,-9,cs),
(579,-9,o),
(707,163,o),
(707,361,cs),
(707,543,o),
(579,730,o),
(368,730,cs)
);
},
{
closed = 1;
nodes = (
(491,675,o),
(551,460,o),
(551,306,cs),
(551,193,o),
(513,50,o),
(398,50,cs),
(243,50,o),
(185,264,o),
(185,419,cs),
(185,533,o),
(222,675,o),
(339,675,cs)
);
}
);
};
layerId = "39185045-6A8C-415A-8312-7B8F11386A4C";
name = Regular;
shapes = (
{
closed = 1;
nodes = (
(262,260,o),
(220,214,o),
(200,181,c),
(220,160,l),
(229,169,o),
(242,179,o),
(262,179,cs),
(308,179,o),
(340,146,o),
(416,42,cs),
(502,-76,o),
(538,-99,o),
(619,-99,cs),
(686,-99,o),
(727,-55,o),
(747,-21,c),
(727,0,l),
(719,-8,o),
(706,-18,o),
(685,-18,cs),
(639,-18,o),
(608,15,o),
(532,119,cs),
(446,236,o),
(409,260,o),
(329,260,cs)
);
},
{
ref = O;
}
);
width = 735;
}
);
unicode = 81;
},
{
color = 6;
glyphname = R;
kernLeft = H;
kernRight = R;
lastChange = "2023-01-27 12:42:58 +0000";
layers = (
{
anchors = (
{
name = bottom;
pos = (324,0);
},
{
name = top;
pos = (339,742);
}
);
background = {
anchors = (
{
name = bottom;
pos = (324,0);
},
{
name = top;
pos = (339,742);
}
);
shapes = (
{
closed = 1;
nodes = (
(268,709,o),
(126,641,o),
(32,553,c),
(49,535,l),
(124,605,o),
(238,652,o),
(329,652,cs),
(456,652,o),
(513,580,o),
(513,485,cs),
(513,339,o),
(379,238,o),
(248,225,c),
(242,198,l),
(364,53,ls),
(400,9,o),
(431,-17,o),
(468,-17,cs),
(542,-17,o),
(592,69,o),
(621,104,c),
(608,115,l),
(585,92,o),
(544,51,o),
(506,51,cs),
(480,51,o),
(462,64,o),
(447,77,c),
(336,211,l),
(471,248,o),
(599,364,o),
(599,504,cs),
(599,652,o),
(498,709,o),
(385,709,cs)
);
},
{
closed = 1;
nodes = (
(92,530,l),
(92,-13,l),
(172,21,l),
(172,563,l)
);
}
);
};
layerId = "E777F328-EA17-4AE7-9EBA-8002E537BA4F";
name = Light;
shapes = (
{
closed = 1;
nodes = (
(268,709,o),
(126,641,o),
(32,553,c),
(49,535,l),
(124,605,o),
(238,652,o),
(329,652,cs),
(456,652,o),
(513,580,o),
(513,485,cs),
(513,339,o),
(379,238,o),
(248,225,c),
(242,198,l),
(364,53,ls),
(400,9,o),
(431,-17,o),
(468,-17,cs),
(542,-17,o),
(592,69,o),
(621,104,c),
(608,115,l),
(585,92,o),
(544,51,o),
(506,51,cs),
(480,51,o),
(462,64,o),
(447,77,c),
(336,211,l),
(471,248,o),
(599,364,o),
(599,504,cs),
(599,652,o),
(498,709,o),
(385,709,cs)
);
},
{
closed = 1;
nodes = (
(92,530,l),
(92,-13,l),
(172,21,l),
(172,563,l)
);
}
);
width = 649;
},
{
anchors = (
{
name = bottom;
pos = (320,0);
},
{
name = top;
pos = (336,742);
}
);
background = {
anchors = (
{
name = bottom;
pos = (320,0);
},
{
name = top;
pos = (336,742);
}
);
shapes = (
{
closed = 1;
nodes = (
(223,742,o),
(101,666,o),
(11,586,c),
(44,551,l),
(120,615,o),
(218,671,o),
(319,671,cs),
(428,671,o),
(474,608,o),
(474,517,cs),
(474,372,o),
(334,281,o),
(203,260,c),
(198,231,l),
(311,75,ls),
(365,0,o),
(401,-9,o),
(446,-9,cs),
(513,-9,o),
(586,40,o),
(635,113,c),
(608,138,l),
(585,114,o),
(551,88,o),
(518,88,cs),
(498,88,o),
(480,97,o),
(464,119,cs),
(364,249,l),
(513,292,o),
(630,403,o),
(630,536,cs),
(630,655,o),
(545,742,o),
(400,742,cs)
);
},
{
closed = 1;
nodes = (
(80,561,l),
(80,-23,l),
(230,25,l),
(230,606,l)
);
}
);
};
layerId = "39185045-6A8C-415A-8312-7B8F11386A4C";
name = Regular;
shapes = (
{
closed = 1;
nodes = (
(223,742,o),
(101,666,o),
(11,586,c),
(44,551,l),
(120,615,o),
(218,671,o),
(319,671,cs),
(428,671,o),
(474,608,o),
(474,517,cs),
(474,372,o),
(334,281,o),
(203,260,c),
(198,231,l),
(311,75,ls),
(365,0,o),
(401,-9,o),
(446,-9,cs),
(513,-9,o),
(586,40,o),
(635,113,c),
(608,138,l),
(585,114,o),
(551,88,o),
(518,88,cs),
(498,88,o),
(481,97,o),
(464,119,cs),
(364,249,l),
(513,292,o),
(630,403,o),
(630,536,cs),
(630,655,o),
(545,742,o),
(400,742,cs)
);
},
{
closed = 1;
nodes = (
(80,561,l),
(80,-23,l),
(230,25,l),
(230,606,l)
);
}
);
width = 640;
}
);
unicode = 82;
},
{
color = 6;
glyphname = Racute;
kernLeft = H;
kernRight = R;
lastChange = "2023-01-27 13:23:24 +0000";
layers = (
{
background = {
anchors = (
{
name = bottom;
pos = (324,0);
},
{
name = top;
pos = (339,742);
}
);
shapes = (
{
closed = 1;
nodes = (
(268,709,o),
(126,641,o),
(32,553,c),
(49,535,l),
(124,605,o),
(238,652,o),
(329,652,cs),
(456,652,o),
(513,580,o),
(513,485,cs),
(513,339,o),
(379,238,o),
(248,225,c),
(242,198,l),
(364,53,ls),
(400,9,o),
(431,-17,o),
(468,-17,cs),
(542,-17,o),
(592,69,o),
(621,104,c),
(608,115,l),
(585,92,o),
(544,51,o),
(506,51,cs),
(480,51,o),
(462,64,o),
(447,77,c),
(336,211,l),
(471,248,o),
(599,364,o),
(599,504,cs),
(599,652,o),
(498,709,o),
(385,709,cs)
);
},
{
closed = 1;
nodes = (
(92,530,l),
(92,-13,l),
(172,21,l),
(172,563,l)
);
},
{
closed = 1;
nodes = (
(266,780,l),
(253,796,l),
(368,935,l),
(427,869,l)
);
}
);
};
layerId = "E777F328-EA17-4AE7-9EBA-8002E537BA4F";
name = Light;
shapes = (
{
ref = R;
},
{
pos = (183,20);
ref = acutecomb.case;
}
);
width = 649;
},
{
background = {
anchors = (
{
name = bottom;
pos = (320,0);
},
{
name = top;
pos = (336,742);
}
);
shapes = (
{
closed = 1;
nodes = (
(223,742,o),
(101,666,o),
(11,586,c),
(44,551,l),
(120,615,o),
(218,671,o),
(319,671,cs),
(428,671,o),
(474,608,o),
(474,517,cs),
(474,372,o),
(334,281,o),
(203,260,c),
(198,231,l),
(311,75,ls),
(365,0,o),
(401,-9,o),
(446,-9,cs),
(513,-9,o),
(586,40,o),
(635,113,c),
(608,138,l),
(585,114,o),
(551,88,o),
(518,88,cs),
(498,88,o),
(480,97,o),
(464,119,cs),
(364,249,l),
(513,292,o),
(630,403,o),
(630,536,cs),
(630,655,o),
(545,742,o),
(400,742,cs)
);
},
{
closed = 1;
nodes = (
(80,561,l),
(80,-23,l),
(230,25,l),
(230,606,l)
);
},
{
closed = 1;
nodes = (
(247,724,l),
(225,764,l),
(378,909,l),
(449,796,l)
);
}
);
};
layerId = "39185045-6A8C-415A-8312-7B8F11386A4C";
name = Regular;
shapes = (
{
ref = R;
},
{
pos = (155,22);
ref = acutecomb.case;
}
);
width = 640;
}
);
unicode = 340;
},
{
color = 6;
glyphname = Rcaron;
kernLeft = H;
kernRight = R;
lastChange = "2023-01-27 12:44:40 +0000";
layers = (
{
background = {
anchors = (
{
name = bottom;
pos = (324,0);
},
{
name = top;
pos = (339,742);
}
);
shapes = (
{
closed = 1;
nodes = (
(268,709,o),
(126,641,o),
(32,553,c),
(49,535,l),
(124,605,o),
(238,652,o),
(329,652,cs),
(456,652,o),
(513,580,o),
(513,485,cs),
(513,339,o),
(379,238,o),
(248,225,c),
(242,198,l),
(364,53,ls),
(400,9,o),
(431,-17,o),
(468,-17,cs),
(542,-17,o),
(592,69,o),
(621,104,c),
(608,115,l),
(585,92,o),
(544,51,o),
(506,51,cs),
(480,51,o),
(462,64,o),
(447,77,c),
(336,211,l),
(471,248,o),
(599,364,o),
(599,504,cs),
(599,652,o),
(498,709,o),
(385,709,cs)
);
},
{
closed = 1;
nodes = (
(92,530,l),
(92,-13,l),
(172,21,l),
(172,563,l)
);
},
{
closed = 1;
nodes = (
(207,911,l),
(342,784,l),
(472,929,l),
(447,950,l),
(367,861,l),
(258,964,l)
);
}
);
};
layerId = "E777F328-EA17-4AE7-9EBA-8002E537BA4F";
name = Light;
shapes = (
{
ref = R;
},
{
pos = (137,22);
ref = caroncomb.case;
}
);
width = 649;
},
{
background = {
anchors = (
{
name = bottom;
pos = (320,0);
},
{
name = top;
pos = (336,742);
}
);
shapes = (
{
closed = 1;
nodes = (
(223,742,o),
(101,666,o),
(11,586,c),
(44,551,l),
(120,615,o),
(218,671,o),
(319,671,cs),
(428,671,o),
(474,608,o),
(474,517,cs),
(474,372,o),
(334,281,o),
(203,260,c),
(198,231,l),
(311,75,ls),
(365,0,o),
(401,-9,o),
(446,-9,cs),
(513,-9,o),
(586,40,o),
(635,113,c),
(608,138,l),
(585,114,o),
(551,88,o),
(518,88,cs),
(498,88,o),
(480,97,o),
(464,119,cs),
(364,249,l),
(513,292,o),
(630,403,o),
(630,536,cs),
(630,655,o),
(545,742,o),
(400,742,cs)
);
},
{
closed = 1;
nodes = (
(80,561,l),
(80,-23,l),
(230,25,l),
(230,606,l)
);
},
{
closed = 1;
nodes = (
(181,847,l),
(335,739,l),
(460,894,l),
(421,924,l),
(358,846,l),
(243,929,l)
);
}
);
};
layerId = "39185045-6A8C-415A-8312-7B8F11386A4C";
name = Regular;
shapes = (
{
ref = R;
},
{
pos = (111,22);
ref = caroncomb.case;
}
);
width = 640;
}
);
unicode = 344;
},
{
color = 6;
glyphname = Rcommaaccent;
kernLeft = H;
kernRight = R;
lastChange = "2023-01-27 11:36:49 +0000";
layers = (
{
background = {
anchors = (
{
name = bottom;
pos = (324,0);
},
{
name = top;
pos = (339,742);
}
);
shapes = (
{
closed = 1;
nodes = (
(268,709,o),
(126,641,o),
(32,553,c),
(49,535,l),
(124,605,o),
(238,652,o),
(329,652,cs),
(456,652,o),
(513,580,o),
(513,485,cs),
(513,339,o),
(379,238,o),
(248,225,c),
(242,198,l),
(364,53,ls),
(400,9,o),
(431,-17,o),
(468,-17,cs),
(542,-17,o),
(592,69,o),
(621,104,c),
(608,115,l),
(585,92,o),
(544,51,o),
(506,51,cs),
(480,51,o),
(462,64,o),
(447,77,c),
(336,211,l),
(471,248,o),
(599,364,o),
(599,504,cs),
(599,652,o),
(498,709,o),
(385,709,cs)
);
},
{
closed = 1;
nodes = (
(92,530,l),
(92,-13,l),
(172,21,l),
(172,563,l)
);
},
{
closed = 1;
nodes = (
(376,-141,o),
(342,-179,o),
(303,-203,c),
(287,-189,l),
(298,-177,o),
(308,-161,o),
(312,-146,c),
(289,-140,o),
(273,-119,o),
(273,-95,cs),
(273,-66,o),
(297,-42,o),
(324,-42,cs),
(352,-42,o),
(376,-66,o),
(376,-95,cs)
);
}
);
};
layerId = "E777F328-EA17-4AE7-9EBA-8002E537BA4F";
name = Light;
shapes = (
{
ref = R;
},
{
pos = (247,0);
ref = commaaccentcomb;
}
);
width = 649;
},
{
background = {
anchors = (
{
name = bottom;
pos = (320,0);
},
{
name = top;
pos = (336,742);
}
);
shapes = (
{
closed = 1;
nodes = (
(223,742,o),
(101,666,o),
(11,586,c),
(44,551,l),
(120,615,o),
(218,671,o),
(319,671,cs),
(428,671,o),
(474,608,o),
(474,517,cs),
(474,372,o),
(334,281,o),
(203,260,c),
(198,231,l),
(311,75,ls),
(365,0,o),
(401,-9,o),
(446,-9,cs),
(513,-9,o),
(586,40,o),
(635,113,c),
(608,138,l),
(585,114,o),
(551,88,o),
(518,88,cs),
(498,88,o),
(480,97,o),
(464,119,cs),
(364,249,l),
(513,292,o),
(630,403,o),
(630,536,cs),
(630,655,o),
(545,742,o),
(400,742,cs)
);
},
{
closed = 1;
nodes = (
(80,561,l),
(80,-23,l),
(230,25,l),
(230,606,l)
);
},
{
closed = 1;
nodes = (
(394,-185,o),
(347,-237,o),
(290,-269,c),
(267,-251,l),
(283,-236,o),
(299,-211,o),
(303,-191,c),
(269,-181,o),
(246,-151,o),
(246,-117,cs),
(246,-76,o),
(278,-42,o),
(320,-42,cs),
(361,-42,o),
(394,-76,o),
(394,-117,cs)
);
}
);
};
layerId = "39185045-6A8C-415A-8312-7B8F11386A4C";
name = Regular;
shapes = (
{
ref = R;
},
{
pos = (244,0);
ref = commaaccentcomb;
}
);
width = 640;
}
);
unicode = 342;
},
